<svg xmlns="http://www.w3.org/2000/svg" xmlns:xlink="http://www.w3.org/1999/xlink" preserveAspectRatio="xMidYMid" width="50" height="50" viewBox="0 0 50 50">
  <defs>
    <style>
      .cls-1 {
        fill: #c8c8c8;
        fill-rule: evenodd;
      }
    </style>
  </defs>
  <path d="M49.819,24.733 C49.845,24.959 49.965,25.166 49.891,25.383 C50.143,25.612 49.658,26.004 49.877,26.211 C49.846,26.551 49.777,26.887 49.745,27.227 C49.696,27.598 50.020,27.965 49.859,28.312 C49.653,28.597 49.981,29.053 49.637,29.239 C49.580,29.524 49.512,29.808 49.523,30.108 C49.413,30.490 49.307,30.880 49.235,31.265 C49.181,31.452 49.015,31.547 49.213,31.684 C49.125,31.991 49.152,32.351 48.813,32.504 C48.783,32.830 48.671,33.118 48.600,33.432 C48.552,33.746 48.588,34.059 48.365,34.326 C48.350,34.683 48.132,34.959 48.039,35.271 C47.960,35.687 47.703,36.048 47.600,36.455 C47.365,36.812 47.007,37.087 46.863,37.501 C46.606,37.725 46.495,38.046 46.269,38.302 C46.016,38.524 45.931,38.887 45.686,39.104 C45.560,39.404 45.230,39.518 45.090,39.784 C44.886,40.109 44.579,40.321 44.288,40.566 C44.171,40.836 44.048,41.351 43.612,41.175 C43.452,41.367 43.464,41.783 43.183,41.970 C43.014,42.136 42.843,42.309 42.662,42.468 L42.527,42.779 C42.411,43.049 42.149,43.210 41.870,43.222 C41.791,43.324 41.708,43.423 41.607,43.497 C41.240,43.844 40.873,44.205 40.437,44.465 C40.085,44.613 39.887,45.010 39.532,45.203 C39.272,45.456 38.870,45.480 38.650,45.785 C38.220,46.028 37.848,46.373 37.397,46.587 C36.805,46.899 36.181,47.152 35.611,47.503 C35.540,47.534 35.465,47.552 35.390,47.570 C35.389,47.571 35.388,47.572 35.387,47.573 C35.247,47.711 35.058,47.787 34.860,47.787 C34.776,47.787 34.688,47.788 34.604,47.788 C34.564,47.809 34.521,47.822 34.483,47.850 C34.103,48.052 33.641,47.974 33.274,48.212 C32.936,48.374 32.590,48.495 32.242,48.624 C31.755,48.901 31.173,48.949 30.682,49.218 C30.290,49.374 29.849,49.291 29.463,49.468 C29.095,49.529 28.740,49.652 28.360,49.658 C27.511,49.724 26.655,49.751 25.817,49.899 C25.364,49.935 24.908,49.957 24.457,50.000 C24.367,49.995 24.276,49.986 24.186,49.974 L24.186,49.974 C23.651,49.921 23.119,49.849 22.589,49.754 C22.162,49.765 21.733,49.733 21.318,49.620 C20.699,49.454 20.049,49.410 19.441,49.207 C19.055,49.169 18.660,49.191 18.289,49.054 C17.569,48.821 16.784,48.768 16.111,48.406 C15.864,48.159 15.611,47.988 15.255,48.007 C15.227,47.993 15.199,47.985 15.171,47.973 C14.550,47.976 13.936,47.978 13.339,47.978 C13.089,47.978 12.856,47.855 12.717,47.650 L11.942,46.511 C11.899,46.448 11.883,46.374 11.861,46.302 C11.523,46.078 11.110,45.975 10.811,45.693 C10.282,45.343 9.783,44.948 9.348,44.486 C8.969,44.286 8.926,43.817 8.561,43.632 C8.201,43.573 7.985,43.244 7.764,43.006 C7.390,43.011 7.291,42.570 7.017,42.374 C6.663,42.017 6.376,41.590 5.979,41.278 C5.660,41.103 5.517,40.728 5.264,40.476 C4.928,40.067 4.488,39.731 4.250,39.251 C3.979,39.029 3.910,38.673 3.698,38.419 C3.541,38.102 3.260,37.806 3.192,37.469 C3.000,37.162 2.902,36.804 2.706,36.487 C2.661,36.103 2.259,35.944 2.173,35.565 C1.977,35.157 1.748,34.763 1.645,34.317 C1.495,33.944 1.461,33.523 1.282,33.174 C1.122,32.897 1.189,32.473 0.979,32.278 C1.242,32.121 0.646,31.761 0.849,31.495 C0.927,31.460 1.367,31.450 1.078,31.442 C0.687,31.483 0.605,31.016 0.654,30.725 C0.673,30.421 0.262,30.335 0.363,29.973 C0.270,29.670 0.181,29.353 0.261,29.058 C-0.068,28.936 0.322,28.472 0.131,28.267 C0.075,28.054 0.336,27.883 0.182,27.641 C0.107,27.368 0.012,27.055 0.082,26.721 C0.052,26.428 0.321,26.142 0.002,25.994 C0.132,25.651 -0.100,25.261 0.096,24.938 C0.207,24.585 0.001,24.203 0.065,23.824 C0.080,22.991 -0.051,22.132 0.199,21.323 C0.043,21.072 0.223,20.921 0.468,20.913 C0.399,20.841 0.011,20.826 0.165,20.546 C0.270,20.381 0.536,20.365 0.290,20.160 C0.051,19.891 0.438,19.725 0.286,19.409 C0.348,19.074 0.331,18.726 0.474,18.394 C0.425,18.064 0.992,18.247 0.946,18.037 C0.662,18.163 0.513,18.008 0.663,17.734 C0.620,17.364 0.952,17.119 1.004,16.756 C1.131,16.389 1.318,16.059 1.488,15.715 C1.631,15.425 1.677,15.103 1.852,14.831 C2.003,14.535 2.170,14.246 2.296,13.934 C2.420,13.532 2.808,13.273 2.889,12.850 C3.001,12.519 3.253,12.253 3.398,11.941 C3.507,11.594 3.830,11.311 4.033,11.006 C4.270,10.706 4.379,10.323 4.650,10.048 C4.656,9.864 5.136,10.024 4.865,9.820 C4.768,9.457 5.354,9.420 5.410,9.200 C5.399,8.871 5.854,8.660 6.039,8.394 C6.315,8.119 6.489,7.767 6.809,7.532 C7.018,7.322 7.264,7.203 7.328,6.898 C7.465,6.732 7.962,6.894 7.947,6.737 C7.519,6.658 8.206,6.431 8.234,6.213 C8.543,5.938 8.987,5.847 9.259,5.507 C9.594,5.311 9.847,5.013 10.146,4.769 C10.419,4.538 10.775,4.392 11.008,4.126 C11.143,3.821 11.705,3.917 11.755,3.527 C11.986,3.308 12.369,3.431 12.483,3.143 C12.860,3.082 13.063,2.689 13.429,2.630 C13.793,2.407 14.237,2.332 14.567,2.037 C14.895,1.755 15.387,1.813 15.764,1.602 C15.931,1.544 16.102,1.480 15.902,1.364 C16.049,1.161 16.325,1.608 16.489,1.340 C16.659,1.415 16.925,1.169 16.970,1.236 C17.127,1.305 17.205,0.869 17.463,1.039 C17.789,1.013 18.115,0.916 18.440,0.882 C18.419,0.649 18.802,0.650 18.952,0.608 C19.116,0.739 19.577,0.772 19.283,0.531 C19.555,0.313 19.955,0.430 20.285,0.397 C20.966,0.330 21.638,0.179 22.310,0.047 C22.946,-0.026 23.592,0.011 24.232,-0.004 C25.637,0.006 27.043,-0.016 28.447,0.043 C28.757,0.173 29.060,0.139 29.401,0.151 C29.849,0.167 30.288,0.265 30.736,0.269 C31.074,0.371 31.423,0.368 31.746,0.515 C32.021,0.615 32.491,0.645 32.396,0.950 C32.694,0.646 33.150,0.953 33.490,1.055 C33.846,1.128 34.172,1.289 34.504,1.429 C34.950,1.526 35.315,1.809 35.717,2.007 C35.950,2.291 36.356,2.306 36.595,2.580 C36.730,2.694 36.778,2.945 36.898,2.670 C37.211,2.834 37.529,3.067 37.871,3.220 C38.259,3.442 38.656,3.663 38.968,3.986 C39.309,4.282 39.736,4.447 40.069,4.753 C40.334,5.011 40.704,5.140 40.927,5.435 C41.261,5.622 41.546,5.880 41.847,6.114 C42.229,6.279 42.349,6.741 42.646,6.993 C43.039,7.115 43.210,7.461 43.536,7.658 C43.972,7.925 44.222,8.395 44.576,8.752 C44.697,8.939 45.244,9.419 44.777,9.491 C44.960,9.595 45.174,9.377 45.327,9.656 C45.740,10.011 45.870,10.566 46.235,10.958 C46.384,11.161 46.279,11.551 46.614,11.559 C46.648,11.944 47.034,12.127 47.136,12.489 C47.287,12.831 47.353,13.195 47.516,13.526 C47.627,13.869 47.817,14.203 47.949,14.548 C48.039,14.871 48.114,15.199 48.269,15.500 C48.440,15.853 48.485,16.241 48.548,16.620 C48.725,16.935 48.737,17.301 48.864,17.636 C48.989,18.105 49.176,18.564 49.206,19.053 C49.374,19.598 49.468,20.161 49.533,20.728 C49.636,21.023 49.559,21.392 49.773,21.604 C49.773,21.776 49.492,21.896 49.743,22.040 C49.937,22.584 49.911,23.175 49.868,23.741 C49.950,24.071 49.975,24.419 49.819,24.733 ZM0.380,26.527 C0.126,26.494 0.434,26.616 0.380,26.527 ZM0.451,21.109 C0.201,20.900 0.358,21.335 0.451,21.109 ZM43.797,40.852 L43.825,40.825 L43.842,40.795 C43.785,40.581 43.488,41.024 43.797,40.852 ZM46.510,19.256 C46.295,18.972 46.371,18.561 46.133,18.246 C46.091,18.170 46.060,18.091 46.027,18.011 C45.997,17.972 45.970,17.928 45.939,17.889 C45.892,17.982 45.849,18.078 45.968,18.150 C45.903,18.293 46.118,18.518 46.059,18.556 C45.998,18.689 46.379,18.756 46.231,18.975 C46.254,19.251 46.338,19.527 46.368,19.803 C46.571,19.785 46.570,20.109 46.607,20.236 C46.493,20.374 46.464,20.759 46.670,20.521 C46.656,20.404 46.639,20.289 46.629,20.172 C46.598,19.843 46.379,19.592 46.510,19.256 ZM46.821,23.215 C46.824,23.240 46.828,23.300 46.868,23.304 C46.996,23.230 46.844,22.951 46.821,23.215 ZM46.910,23.963 C47.026,23.874 46.956,23.355 46.902,23.738 C46.910,23.809 46.831,23.912 46.910,23.963 ZM46.899,27.470 C47.025,27.169 46.963,26.861 46.929,26.548 C46.904,25.704 46.963,24.848 46.764,24.019 C46.704,23.669 46.811,23.318 46.735,22.967 C46.670,22.859 47.022,22.756 46.835,22.723 C46.666,22.937 46.588,22.327 46.542,22.191 C46.336,21.374 46.237,20.535 45.984,19.730 C45.929,19.456 45.905,19.205 45.735,18.977 C45.649,18.725 45.924,18.518 45.689,18.302 C45.591,18.234 45.730,18.505 45.742,18.564 C45.392,18.620 45.411,18.028 45.197,17.833 C45.053,17.524 44.866,17.228 44.783,16.890 C44.640,16.577 44.435,16.295 44.312,15.970 C44.160,15.718 44.029,15.447 43.924,15.173 C43.904,15.149 43.886,15.126 43.866,15.103 C44.160,15.949 44.432,16.806 44.650,17.687 C45.749,20.410 46.311,23.175 46.311,25.969 C46.311,28.245 45.945,30.525 45.220,32.803 L45.453,32.264 C46.000,30.965 46.451,29.588 46.805,28.138 C46.845,27.916 46.881,27.694 46.899,27.470 ZM46.433,20.709 C46.462,20.494 46.356,20.754 46.433,20.709 ZM45.268,16.956 C45.181,16.938 44.933,17.004 45.190,17.062 L45.230,17.037 C45.264,17.017 45.283,17.002 45.292,16.989 C45.284,16.978 45.276,16.967 45.268,16.956 ZM43.814,14.784 C43.785,14.786 43.764,14.808 43.839,14.854 C43.848,14.844 43.843,14.840 43.846,14.833 C43.836,14.816 43.825,14.800 43.814,14.784 ZM23.977,4.433 C23.983,4.433 23.990,4.432 23.996,4.432 C23.993,4.410 23.985,4.411 23.977,4.433 ZM13.075,8.620 C12.807,8.766 12.632,8.956 12.393,9.103 C12.135,9.286 11.878,9.476 11.640,9.693 C11.386,9.889 11.219,10.172 10.937,10.340 C10.929,10.346 10.923,10.353 10.915,10.358 C10.414,10.941 9.924,11.539 9.460,12.161 C10.868,10.969 12.151,9.798 13.085,8.614 C13.082,8.616 13.078,8.618 13.075,8.620 ZM5.293,24.822 L5.310,24.784 L5.311,24.784 C5.345,24.524 5.327,24.227 5.376,23.954 C5.461,23.644 5.510,23.317 5.358,23.018 C5.331,22.714 5.472,22.427 5.479,22.123 C5.523,21.697 5.562,21.265 5.700,20.858 C5.748,20.513 5.901,20.195 5.982,19.855 C6.101,19.539 6.085,19.200 6.253,18.903 C6.424,18.656 6.526,18.364 6.670,18.098 C6.751,17.800 6.947,17.546 7.011,17.244 C7.226,16.991 7.369,16.682 7.457,16.362 C7.554,16.075 7.640,15.791 7.846,15.557 C7.874,15.506 7.901,15.454 7.929,15.403 C7.538,15.740 7.149,16.079 6.774,16.424 C5.427,19.028 4.650,21.557 4.477,23.863 C4.580,25.179 4.723,26.523 4.916,27.872 L5.916,30.387 C5.847,30.099 5.693,29.836 5.713,29.532 C5.560,28.486 5.408,27.438 5.338,26.382 C5.309,25.863 5.248,25.341 5.293,24.822 ZM15.180,8.202 C15.245,8.167 15.308,8.127 15.374,8.094 C15.853,7.933 16.214,7.533 16.713,7.421 C16.959,7.259 17.239,7.195 17.474,7.019 C17.726,6.891 17.985,6.775 18.255,6.697 C18.376,6.615 18.511,6.558 18.649,6.507 C17.605,6.695 16.600,6.919 15.653,7.206 C15.526,7.544 15.364,7.875 15.180,8.202 ZM31.386,5.717 C30.737,5.717 30.101,5.721 29.470,5.727 C29.801,5.800 30.133,5.871 30.453,5.983 C30.770,6.010 31.030,6.159 31.327,6.255 C31.631,6.332 31.931,6.346 32.177,6.558 C32.523,6.737 32.919,6.801 33.244,7.022 C33.525,7.148 33.792,7.252 34.072,7.403 C34.438,7.583 34.821,7.740 35.159,7.966 C35.422,8.149 35.732,8.288 36.005,8.468 C36.502,8.688 36.920,9.046 37.344,9.377 C37.463,9.469 37.594,9.544 37.722,9.623 C37.113,8.938 36.477,8.256 35.790,7.579 L31.386,5.717 ZM21.864,4.605 C21.848,4.599 21.836,4.600 21.826,4.608 C21.839,4.607 21.851,4.606 21.864,4.605 ZM44.167,15.327 C44.169,15.354 44.177,15.376 44.201,15.379 C44.190,15.361 44.178,15.344 44.167,15.327 ZM44.816,16.589 C45.004,16.466 44.634,16.482 44.816,16.589 ZM45.587,18.113 C45.762,17.932 45.311,18.129 45.587,18.113 ZM45.955,18.913 C45.922,18.950 45.834,19.086 45.932,19.102 C46.081,19.014 46.188,18.641 45.955,18.913 ZM23.979,45.906 C29.836,45.906 35.232,44.056 39.314,40.678 C39.755,40.134 40.147,39.577 40.506,39.019 C40.466,39.064 40.421,39.107 40.384,39.154 C40.215,39.345 39.986,39.652 39.783,39.720 C39.750,39.604 39.860,39.512 39.936,39.441 L39.936,39.441 C40.263,39.133 40.551,38.789 40.853,38.458 C41.170,37.926 41.460,37.396 41.710,36.877 C42.053,36.162 42.354,35.420 42.623,34.659 C42.508,34.865 42.394,35.073 42.235,35.252 C42.105,35.525 41.775,35.678 41.766,35.991 C41.529,36.234 41.358,36.538 41.139,36.804 C40.871,37.147 40.561,37.456 40.273,37.782 C39.531,38.584 38.707,39.308 37.889,40.034 C37.614,40.173 37.405,40.380 37.190,40.592 C36.952,40.795 36.691,40.978 36.426,41.140 C36.251,41.353 35.922,41.426 35.691,41.589 C35.398,41.710 35.155,41.861 34.882,42.019 C34.579,42.179 34.252,42.285 33.957,42.462 C33.635,42.548 33.375,42.761 33.054,42.833 C32.807,43.046 32.450,43.000 32.194,43.175 C31.745,43.352 31.304,43.575 30.828,43.688 C30.629,43.767 30.428,43.772 30.248,43.890 C29.899,43.895 29.551,43.974 29.205,44.025 C28.925,44.073 28.606,44.205 28.360,44.146 C27.894,44.243 27.411,44.226 26.940,44.299 C26.682,44.541 26.305,44.293 25.988,44.383 C25.686,44.385 25.369,44.480 25.075,44.404 C24.982,44.242 24.895,44.557 24.724,44.427 C24.302,44.378 23.874,44.378 23.457,44.295 C23.174,44.413 22.868,44.221 22.562,44.232 C22.267,44.158 21.968,44.121 21.670,44.084 C21.377,43.929 21.051,43.926 20.729,43.879 C20.382,43.826 20.093,43.609 19.750,43.549 C19.497,43.439 19.244,43.349 18.978,43.283 C18.668,43.137 18.337,43.061 18.009,42.973 C17.769,42.811 17.492,42.702 17.212,42.615 C16.722,42.459 16.331,42.099 15.838,41.953 C15.606,41.735 15.326,41.607 15.062,41.443 C14.815,41.342 14.561,41.198 14.380,41.006 C13.928,40.785 13.520,40.480 13.105,40.198 C12.928,39.931 12.504,39.918 12.442,39.586 C12.395,39.347 11.978,39.495 11.916,39.202 C11.705,38.959 11.397,38.814 11.206,38.546 C10.979,38.330 10.848,38.034 10.650,37.806 C10.375,37.613 10.184,37.315 9.953,37.067 C9.755,36.803 9.589,36.529 9.369,36.284 C9.191,35.982 9.046,35.660 8.824,35.385 C8.511,34.835 8.206,34.279 7.918,33.717 C7.729,33.350 7.608,32.952 7.407,32.592 C7.209,32.351 7.247,32.020 7.135,31.738 C7.095,31.337 6.902,30.973 6.822,30.579 C6.692,30.122 6.610,29.649 6.451,29.200 C6.354,28.902 6.328,28.582 6.269,28.271 C6.176,27.476 6.165,26.674 6.094,25.877 C5.951,25.582 6.119,25.287 6.051,24.985 C6.034,24.598 6.007,24.206 6.053,23.820 L6.053,23.820 C6.138,23.543 6.040,23.251 6.185,22.977 C6.215,22.607 6.391,22.263 6.435,21.891 C6.521,21.569 6.526,21.235 6.575,20.911 C6.694,20.558 6.616,20.171 6.782,19.830 C6.921,19.310 6.990,18.759 7.269,18.287 C7.430,17.909 7.589,17.529 7.814,17.183 C8.016,16.739 8.419,16.402 8.551,15.927 C8.763,15.735 8.892,15.465 9.106,15.263 C9.377,14.964 9.497,14.553 9.831,14.308 C10.041,13.994 10.344,13.747 10.565,13.438 C10.868,13.098 11.240,12.820 11.501,12.443 C11.685,12.168 11.993,12.023 12.221,11.788 C12.432,11.557 12.715,11.412 12.942,11.201 C13.242,10.874 13.612,10.619 13.954,10.341 C14.183,10.093 14.516,9.973 14.768,9.749 C15.021,9.625 15.208,9.449 15.437,9.277 C15.722,9.150 15.958,8.954 16.236,8.818 C16.645,8.589 17.049,8.333 17.499,8.189 C17.721,8.038 17.963,7.946 18.204,7.821 C18.490,7.720 18.769,7.618 19.054,7.502 C19.553,7.329 20.070,7.188 20.540,6.956 C20.826,6.921 21.070,6.745 21.360,6.716 C21.703,6.659 22.041,6.575 22.373,6.496 C22.592,6.509 22.757,6.368 22.955,6.478 C23.393,6.365 23.853,6.348 24.304,6.323 C24.853,6.393 25.414,6.362 25.956,6.484 C26.288,6.530 26.644,6.440 26.958,6.574 C27.030,6.777 26.538,6.627 26.401,6.659 C25.427,6.589 24.450,6.644 23.476,6.639 C23.325,6.435 23.125,6.775 22.878,6.727 C22.395,6.812 21.886,6.783 21.430,6.986 C21.129,6.959 20.865,7.153 20.579,7.163 C20.230,7.216 19.968,7.514 19.612,7.567 C19.349,7.663 19.100,7.829 18.832,7.873 C18.558,8.157 18.140,8.234 17.798,8.418 C17.494,8.554 17.197,8.713 16.875,8.806 C16.620,8.942 16.431,9.116 16.200,9.283 C16.080,9.453 15.878,9.308 15.872,9.529 C15.635,9.708 15.375,9.872 15.176,10.065 C14.856,10.156 14.650,10.443 14.342,10.549 C14.097,10.763 13.857,10.989 13.556,11.129 C13.325,11.345 13.071,11.539 12.840,11.733 C12.694,11.976 12.395,12.083 12.209,12.297 C12.066,12.504 11.685,12.591 11.754,12.869 C11.469,12.897 11.258,13.167 11.110,13.376 C10.910,13.571 10.793,13.840 10.575,14.025 C10.312,14.292 10.120,14.617 9.850,14.881 C9.576,15.160 9.368,15.488 9.169,15.820 C8.941,16.097 8.817,16.439 8.598,16.723 C8.392,17.022 8.261,17.363 8.048,17.657 C7.859,17.966 7.847,18.330 7.782,18.670 C7.705,18.963 7.443,19.255 7.446,19.527 C7.624,19.731 7.194,19.924 7.248,20.187 C7.160,20.486 7.011,20.762 6.986,21.077 C6.841,21.545 6.714,22.018 6.646,22.503 C6.528,23.062 6.432,23.628 6.450,24.201 L6.450,24.857 C6.389,25.636 6.334,25.606 6.422,25.974 C6.503,26.229 6.476,26.536 6.567,26.820 C6.624,27.178 6.741,27.526 6.718,27.893 C6.800,28.156 6.819,28.436 6.856,28.711 C6.928,29.010 6.977,29.305 7.028,29.607 C6.989,29.955 7.224,30.231 7.230,30.565 C7.239,30.717 7.323,30.947 7.297,30.665 C7.485,30.805 7.341,31.191 7.554,31.376 C7.525,31.563 7.512,31.762 7.730,31.779 C7.831,32.070 7.907,32.363 8.035,32.655 C8.190,32.933 8.228,33.242 8.372,33.500 C8.653,33.719 8.644,34.087 8.808,34.373 C8.860,34.695 9.195,34.822 9.208,35.143 C9.457,35.261 9.460,35.648 9.716,35.828 C9.980,36.067 10.071,36.422 10.345,36.655 C10.466,36.932 10.680,37.146 10.857,37.398 C11.061,37.646 11.283,37.884 11.544,38.075 C11.799,38.253 11.906,38.592 12.168,38.772 C12.509,39.080 12.838,39.406 13.114,39.772 C13.346,39.936 13.630,40.033 13.817,40.262 C14.037,40.498 14.319,40.660 14.592,40.827 C14.839,40.997 15.078,41.216 15.359,41.313 C15.616,41.506 15.940,41.594 16.181,41.813 C16.633,42.042 17.056,42.328 17.540,42.493 C18.058,42.670 18.546,42.922 19.077,43.064 C19.404,43.188 19.770,43.219 20.050,43.441 C20.331,43.548 20.615,43.658 20.925,43.705 C21.590,43.838 22.246,44.047 22.930,44.053 C24.239,44.199 25.562,44.127 26.875,44.056 C27.769,43.976 28.645,43.769 29.540,43.697 C29.827,43.671 30.045,43.485 30.339,43.596 C30.587,43.414 30.945,43.478 31.220,43.276 C31.579,43.085 31.999,43.037 32.352,42.835 C32.447,42.688 32.383,42.515 32.482,42.757 C32.749,42.827 33.015,42.542 33.283,42.478 C33.597,42.439 33.858,42.277 34.149,42.162 C34.438,42.026 34.705,41.833 35.025,41.772 C35.367,41.590 35.693,41.379 36.026,41.182 C36.462,40.908 36.817,40.532 37.256,40.264 C37.690,39.876 38.182,39.552 38.619,39.167 C39.194,38.698 39.706,38.161 40.157,37.577 C40.512,37.147 40.908,36.746 41.190,36.265 C41.452,36.183 41.624,36.008 41.715,35.744 C41.947,35.407 42.154,35.054 42.387,34.717 C42.605,34.482 42.715,34.180 42.856,33.896 C44.189,29.683 44.446,24.925 43.689,20.385 C43.565,20.080 43.524,19.746 43.395,19.439 C43.254,19.000 43.105,18.564 42.913,18.144 C42.834,17.860 42.652,17.627 42.556,17.351 C42.369,17.127 42.279,16.877 42.144,16.624 C41.975,16.297 41.749,16.001 41.586,15.679 C41.426,15.416 41.324,15.118 41.071,14.910 C41.022,14.744 40.684,14.439 40.874,14.306 L40.874,14.306 C41.071,14.459 41.114,14.765 41.331,14.922 C41.541,15.296 41.893,15.594 42.009,16.018 C42.151,16.285 42.324,16.531 42.492,16.784 C42.623,17.068 42.798,17.336 42.893,17.633 C42.927,17.904 43.196,18.091 43.247,18.366 C43.279,18.512 43.331,18.654 43.371,18.799 C43.330,18.612 43.303,18.420 43.258,18.234 C42.204,15.622 40.609,13.043 38.490,10.509 C38.324,10.376 38.160,10.241 37.986,10.120 C37.675,9.961 37.428,9.710 37.135,9.526 C36.855,9.416 36.604,9.239 36.364,9.059 C36.084,8.931 35.861,8.716 35.598,8.558 C35.292,8.449 35.043,8.244 34.732,8.142 C34.360,7.887 33.957,7.681 33.585,7.426 C33.287,7.296 33.041,7.079 32.714,7.023 C32.455,6.896 32.203,6.745 31.914,6.699 C31.562,6.469 31.148,6.364 30.739,6.283 C30.433,6.217 30.133,6.063 29.821,6.061 C29.433,6.024 29.048,5.947 28.657,5.922 C28.308,5.877 27.950,5.844 27.608,5.756 C24.669,5.818 21.948,5.982 19.475,6.366 C19.456,6.378 19.439,6.389 19.410,6.404 C19.147,6.587 18.890,6.756 18.562,6.806 C18.159,6.949 17.787,7.161 17.409,7.354 C17.065,7.463 16.755,7.662 16.437,7.829 C16.168,8.010 15.878,8.152 15.590,8.297 C15.323,8.472 15.058,8.651 14.790,8.825 C13.563,10.648 11.570,12.333 9.491,14.074 C9.144,14.365 8.798,14.659 8.452,14.953 C8.099,15.510 7.779,16.088 7.553,16.705 C7.211,17.385 7.029,18.128 6.740,18.828 C6.463,19.532 6.288,20.270 6.068,20.992 C5.880,21.765 5.801,22.560 5.728,23.350 C5.635,24.502 5.660,25.661 5.726,26.814 C5.838,27.320 5.852,27.843 5.938,28.355 C6.019,28.884 6.028,29.434 6.241,29.933 C6.288,30.489 6.475,31.021 6.586,31.566 C6.769,32.145 7.032,32.697 7.222,33.275 C7.521,34.094 7.982,34.844 8.353,35.631 C8.306,35.966 8.009,35.464 7.961,35.328 C7.909,35.202 7.828,35.092 7.744,34.984 L8.931,37.971 C11.527,40.893 14.652,43.281 18.030,44.848 C18.256,44.919 18.480,44.990 18.686,45.090 C18.986,45.161 19.253,45.332 19.562,45.380 C19.826,45.567 20.146,45.614 20.466,45.627 C20.878,45.650 21.286,45.715 21.693,45.774 C21.771,45.776 21.844,45.797 21.916,45.823 C22.602,45.876 23.291,45.906 23.979,45.906 ZM4.201,15.842 C4.456,15.194 4.735,14.578 5.038,13.992 L4.578,14.383 C4.449,14.578 4.322,14.774 4.199,14.974 C4.199,15.259 4.200,15.544 4.201,15.842 ZM19.374,4.913 C19.460,4.866 19.548,4.841 19.628,4.879 C19.682,4.871 19.737,4.864 19.792,4.857 C19.916,4.729 20.158,4.698 20.334,4.726 C20.599,4.742 20.674,4.394 20.989,4.480 C21.254,4.401 21.530,4.325 21.787,4.394 C21.894,4.114 22.299,4.445 22.478,4.284 C22.663,4.236 22.812,4.457 23.024,4.326 C23.262,4.263 23.535,4.183 23.827,4.242 C24.061,4.218 24.287,4.392 24.423,4.213 C21.743,4.117 19.152,4.493 16.838,5.389 C17.655,5.199 18.506,5.047 19.374,4.913 ZM25.257,2.193 C24.125,2.257 22.934,2.421 21.663,2.732 C21.645,2.737 21.627,2.743 21.609,2.748 L25.257,2.193 ZM27.885,2.632 C28.282,2.668 28.675,2.729 29.049,2.870 C29.117,3.072 28.629,2.823 28.476,2.857 C28.454,2.854 28.431,2.855 28.409,2.853 L30.117,3.575 C30.845,3.764 31.569,3.992 32.288,4.242 C32.731,4.242 33.179,4.244 33.628,4.245 C33.327,4.110 33.017,4.001 32.695,3.929 C32.429,3.822 32.068,3.721 31.869,3.572 C32.479,3.651 33.043,3.917 33.639,4.064 C31.755,3.004 29.489,2.267 26.802,2.174 L27.885,2.632 ZM36.419,6.048 C36.297,5.939 36.166,5.834 36.038,5.727 C35.956,5.727 35.874,5.727 35.793,5.727 C36.002,5.832 36.212,5.937 36.419,6.048 ZM41.919,40.426 L42.019,40.197 C41.937,40.280 41.852,40.361 41.768,40.443 C41.819,40.438 41.870,40.421 41.919,40.426 ZM38.161,45.130 C38.657,45.010 38.947,44.545 39.386,44.329 C39.721,43.999 40.137,43.764 40.461,43.420 C40.684,43.201 40.960,43.052 41.192,42.843 C41.183,42.827 41.168,42.815 41.160,42.798 C39.949,43.851 38.683,44.753 37.375,45.511 C37.343,45.547 37.308,45.582 37.275,45.618 C37.561,45.432 37.876,45.317 38.161,45.130 ZM23.511,48.895 C23.494,48.929 23.469,48.955 23.448,48.986 C24.647,49.012 25.849,49.006 27.044,48.910 L27.101,48.902 L27.101,48.902 L27.101,48.902 C27.496,48.828 27.885,48.728 28.290,48.718 C28.684,48.676 29.061,48.543 29.459,48.521 C29.834,48.437 30.214,48.403 30.596,48.356 C31.058,48.280 31.519,48.164 31.940,47.958 C32.154,47.927 32.359,47.864 32.561,47.795 C32.290,47.797 32.022,47.798 31.748,47.800 C30.172,48.185 28.560,48.383 26.926,48.383 C25.754,48.383 24.570,48.270 23.381,48.069 C23.588,48.286 23.652,48.611 23.511,48.895 ZM18.238,48.174 C18.643,48.285 19.026,48.476 19.446,48.537 C19.827,48.606 20.219,48.594 20.592,48.706 C20.944,48.757 21.298,48.787 21.651,48.818 L19.820,47.934 C19.021,47.943 18.228,47.951 17.443,47.958 C17.700,48.058 17.951,48.186 18.238,48.174 ZM13.607,46.311 C13.728,46.374 13.850,46.437 13.971,46.501 C14.838,46.500 15.734,46.495 16.644,46.488 C16.572,46.455 16.499,46.424 16.429,46.387 C16.310,46.356 16.197,46.307 16.085,46.257 C15.196,46.002 14.322,45.718 13.481,45.379 C13.508,45.504 13.510,45.636 13.467,45.763 L13.389,45.990 L13.607,46.311 ZM10.364,41.575 L10.439,41.764 L10.755,41.916 C10.624,41.803 10.494,41.690 10.364,41.575 ZM10.323,44.486 C10.402,44.531 10.481,44.576 10.560,44.620 C10.392,44.455 10.234,44.281 10.073,44.110 C9.974,44.248 10.320,44.323 10.323,44.486 ZM7.928,42.304 C8.399,42.272 8.452,42.835 8.794,43.060 C9.078,43.294 9.427,43.464 9.619,43.802 C9.660,44.014 9.872,44.060 10.035,44.067 C9.721,43.733 9.405,43.400 9.117,43.044 C8.580,42.673 8.071,42.277 7.586,41.862 C7.712,42.001 7.835,42.142 7.928,42.304 ZM5.666,37.340 C5.800,37.539 5.933,37.739 6.070,37.937 C5.743,37.185 5.447,36.414 5.180,35.629 C4.946,35.280 4.722,34.926 4.502,34.567 C4.763,35.549 5.159,36.473 5.666,37.340 ZM3.692,29.697 C3.650,29.457 3.610,29.218 3.572,28.978 C3.569,29.121 3.567,29.264 3.566,29.407 C3.606,29.505 3.651,29.600 3.692,29.697 ZM0.586,28.967 C0.473,28.857 0.474,29.144 0.586,28.967 ZM0.605,20.130 L0.653,20.114 L0.693,20.093 C0.796,19.922 0.173,20.212 0.605,20.130 ZM0.789,19.119 L0.783,19.103 L0.747,19.077 C0.477,18.918 0.556,19.209 0.789,19.119 ZM0.855,19.589 C0.637,19.109 0.720,19.903 0.855,19.589 ZM0.789,18.905 L0.783,18.889 L0.747,18.864 C0.477,18.704 0.556,18.995 0.789,18.905 ZM0.856,18.569 C0.904,18.615 1.031,18.708 1.071,18.600 C1.008,18.366 0.519,18.275 0.856,18.569 ZM1.879,15.388 C1.734,15.172 1.752,15.596 1.879,15.388 ZM1.795,16.081 C1.830,16.064 1.875,16.041 1.879,15.998 C1.780,15.823 1.456,16.212 1.795,16.081 ZM2.633,14.208 C2.544,14.066 2.461,14.427 2.633,14.208 ZM2.724,17.987 C2.624,18.250 2.547,18.522 2.491,18.797 C2.467,18.905 2.433,19.013 2.397,19.121 C2.508,18.954 2.615,18.786 2.734,18.623 C2.730,18.407 2.727,18.198 2.724,17.987 ZM2.256,25.017 C2.344,23.946 2.463,22.925 2.612,21.951 C2.273,22.916 2.128,23.932 2.256,25.017 ZM2.652,32.357 C2.623,32.262 2.591,32.168 2.564,32.073 C2.496,31.887 2.416,31.366 2.632,31.783 C2.632,31.755 2.630,31.729 2.630,31.701 C2.630,31.553 2.685,31.424 2.761,31.308 C2.667,31.104 2.577,30.897 2.487,30.691 C2.238,30.571 2.062,30.324 2.062,30.032 C2.062,29.911 2.066,29.797 2.067,29.676 C1.970,29.429 1.888,29.176 1.798,28.926 C1.767,29.022 1.800,29.293 1.687,29.126 L1.687,29.126 C1.616,28.835 1.573,28.536 1.551,28.236 C1.340,27.607 1.145,26.972 0.980,26.328 C0.360,23.896 0.851,21.784 1.928,19.884 C1.987,19.628 2.047,19.372 2.137,19.124 C2.169,18.761 2.344,18.464 2.458,18.122 C2.533,17.834 2.565,17.550 2.714,17.300 C2.704,16.354 2.703,15.460 2.703,14.631 C2.650,14.718 2.605,14.811 2.588,14.921 C2.377,15.260 2.369,15.679 2.087,15.979 C1.923,16.218 1.915,16.546 1.772,16.752 C1.926,17.022 1.439,17.130 1.496,17.332 C1.445,17.615 1.293,17.955 1.265,18.279 C1.164,18.498 1.268,18.921 1.029,18.995 C1.152,19.238 0.739,19.241 0.992,19.479 C1.029,19.773 0.904,20.166 0.676,20.304 C0.998,20.386 0.676,20.796 0.422,20.686 C0.551,20.745 0.879,21.058 0.691,21.318 C0.608,21.731 0.782,22.139 0.677,22.543 C0.619,23.199 0.661,23.859 0.576,24.514 C0.466,24.897 0.711,25.273 0.546,25.635 C0.633,25.895 0.594,26.275 0.650,26.444 C0.284,26.509 0.795,26.631 0.709,26.874 C0.786,27.401 0.915,27.957 0.753,28.479 C1.016,28.689 0.503,28.520 0.695,28.716 C1.039,29.070 1.052,29.589 1.062,30.048 C1.216,30.373 1.412,30.684 1.416,31.056 C1.501,31.386 1.692,31.699 1.596,32.021 C1.819,32.155 1.633,32.285 1.882,32.401 C1.982,32.825 1.941,33.313 2.211,33.683 C2.396,33.960 2.604,34.255 2.715,34.584 C2.849,34.992 3.148,35.327 3.256,35.748 C3.282,35.788 3.309,35.827 3.335,35.867 C2.947,34.766 2.714,33.594 2.652,32.357 ZM3.522,12.500 C3.273,12.291 3.429,12.726 3.522,12.500 ZM3.883,11.715 C3.628,11.682 3.936,11.804 3.883,11.715 ZM6.082,9.021 C5.969,8.912 5.970,9.199 6.082,9.021 ZM6.931,8.072 C6.885,7.849 6.719,8.359 6.931,8.072 ZM7.183,7.576 C6.934,7.457 7.179,7.851 7.183,7.576 ZM10.295,4.978 C10.041,4.945 10.348,5.066 10.295,4.978 ZM12.602,3.781 C12.489,3.671 12.490,3.959 12.602,3.781 ZM13.221,2.982 C13.128,2.780 12.998,3.159 13.221,2.982 ZM13.090,3.410 C13.122,3.401 13.226,3.419 13.225,3.363 C13.103,3.170 12.740,3.394 13.090,3.410 ZM13.627,2.949 C13.436,2.860 13.067,3.393 13.429,3.116 C13.529,2.980 14.039,3.061 13.627,2.949 ZM14.649,2.661 C14.504,2.446 14.522,2.869 14.649,2.661 ZM15.177,2.186 C14.985,1.864 15.108,2.658 15.206,2.232 L15.177,2.186 ZM16.447,1.778 C16.233,1.576 16.465,2.093 16.447,1.778 ZM17.390,1.355 C17.435,1.393 17.594,1.493 17.613,1.382 C17.510,1.211 17.070,1.088 17.390,1.355 ZM19.509,0.807 C19.255,0.774 19.562,0.895 19.509,0.807 ZM22.466,0.362 C22.495,0.358 22.566,0.354 22.570,0.308 C22.483,0.162 22.155,0.336 22.466,0.362 ZM23.082,0.270 C23.167,0.260 23.287,0.351 23.349,0.260 C23.244,0.127 22.630,0.208 23.082,0.270 ZM28.562,0.218 C28.308,0.186 28.615,0.307 28.562,0.218 ZM29.467,0.395 C29.642,0.402 29.842,0.436 30.007,0.368 C29.854,0.179 29.620,0.401 29.467,0.395 ZM31.828,0.884 C31.962,0.790 32.029,1.055 32.135,0.897 C32.088,0.754 31.673,0.565 31.828,0.884 ZM34.216,1.750 L34.268,1.746 L34.317,1.731 C34.158,1.594 33.844,1.776 34.216,1.750 ZM35.508,2.111 C35.160,1.972 35.640,2.407 35.508,2.111 ZM36.560,2.913 L36.607,2.875 C36.537,2.691 36.274,2.991 36.560,2.913 ZM37.873,3.517 C37.570,3.355 37.701,3.613 37.927,3.560 L37.873,3.517 ZM38.476,3.962 C38.222,3.929 38.529,4.050 38.476,3.962 ZM41.644,6.276 C41.453,6.092 41.414,6.374 41.644,6.276 ZM48.181,17.571 C48.132,17.191 48.098,16.791 47.891,16.457 C47.834,16.137 47.568,15.835 47.640,15.511 C47.598,15.115 47.440,14.740 47.271,14.377 C47.141,14.039 46.996,13.727 46.869,13.383 C46.702,13.099 46.521,12.826 46.374,12.529 C46.140,12.257 46.000,11.917 45.730,11.661 C45.474,11.361 45.224,11.050 45.000,10.726 C44.880,10.290 44.477,10.019 44.240,9.650 C43.572,8.744 42.804,7.916 42.035,7.096 C41.801,6.807 41.400,6.676 41.161,6.367 C40.764,5.991 40.330,5.657 39.894,5.327 C39.644,5.045 39.316,4.869 39.031,4.628 C38.575,4.289 38.117,3.942 37.609,3.688 C37.374,3.455 37.171,3.268 36.818,3.264 C36.522,3.139 36.299,2.962 36.017,2.816 C35.693,2.674 35.394,2.452 35.055,2.377 C34.700,2.211 34.345,2.037 34.004,1.842 C33.660,1.747 33.307,1.555 32.948,1.445 C32.623,1.247 32.246,1.195 31.924,1.004 C31.496,0.966 31.094,0.770 30.660,0.775 C30.306,0.743 30.381,0.541 30.647,0.471 C30.325,0.267 30.264,0.807 29.907,0.658 C29.092,0.575 28.303,0.335 27.485,0.273 C27.130,0.128 26.767,0.199 26.398,0.238 C25.403,0.268 24.392,0.200 23.414,0.428 C23.002,0.496 22.587,0.374 22.174,0.461 C22.046,0.535 21.925,0.132 21.885,0.347 C22.138,0.540 21.418,0.629 21.257,0.683 C20.294,0.918 19.304,1.032 18.354,1.322 C18.032,1.385 17.735,1.412 17.466,1.608 C17.168,1.706 16.925,1.391 16.670,1.660 C16.590,1.772 16.910,1.613 16.979,1.599 C17.045,2.000 16.347,1.979 16.117,2.224 C15.752,2.389 15.402,2.604 15.004,2.698 C14.634,2.863 14.302,3.098 13.919,3.238 C13.622,3.413 13.302,3.563 12.978,3.684 C12.752,3.863 12.553,4.060 12.263,4.158 C11.984,4.339 11.680,4.479 11.417,4.686 C11.131,4.947 10.767,5.041 10.493,5.292 C10.219,5.567 9.900,5.778 9.592,6.033 C9.304,6.204 9.158,6.533 8.814,6.627 C8.345,7.166 7.793,7.629 7.290,8.137 C6.940,8.438 6.627,8.778 6.393,9.178 C6.149,9.427 5.862,9.641 5.650,9.927 C5.414,10.225 5.228,10.558 4.969,10.839 C4.778,11.178 4.533,11.479 4.346,11.820 C4.166,12.153 3.899,12.449 3.790,12.814 C3.515,12.944 3.509,13.278 3.342,13.485 L6.350,10.930 C6.590,10.569 6.795,10.183 7.091,9.860 C7.516,9.324 8.053,8.884 8.453,8.328 C8.755,8.080 9.038,7.844 9.363,7.621 C9.928,7.243 10.388,6.730 10.986,6.399 C11.117,6.238 11.527,6.184 11.264,6.448 C10.976,6.629 10.683,6.811 10.425,7.030 C10.168,7.339 9.748,7.483 9.560,7.850 C9.305,8.112 8.963,8.264 8.725,8.553 C8.394,8.882 8.041,9.196 7.752,9.562 C7.623,9.749 7.475,9.925 7.327,10.101 L13.008,5.276 C12.755,5.393 12.505,5.625 12.261,5.621 L12.261,5.621 C12.420,5.339 12.891,5.230 13.162,4.994 C13.331,4.890 13.506,4.797 13.682,4.704 L14.596,3.928 C14.702,3.838 14.832,3.779 14.970,3.757 L16.007,3.600 C16.181,3.527 16.355,3.453 16.521,3.363 C16.634,3.343 16.740,3.300 16.848,3.265 C18.372,2.336 19.884,1.648 21.301,1.300 C27.043,-0.106 32.331,0.948 36.567,4.253 C36.953,4.254 37.331,4.256 37.722,4.256 C37.920,4.256 38.109,4.333 38.249,4.471 C39.063,5.268 39.780,6.124 40.460,6.998 C40.724,7.254 40.980,7.522 41.270,7.741 C41.494,7.935 41.857,8.197 41.937,8.430 C41.801,8.468 41.691,8.342 41.608,8.254 L41.608,8.254 C41.426,8.067 41.227,7.898 41.030,7.726 C41.918,8.937 42.722,10.189 43.493,11.437 C44.488,12.499 45.335,13.613 46.062,14.761 C45.965,14.508 45.862,14.257 45.724,14.020 C45.460,13.508 45.238,12.971 44.916,12.491 C44.803,12.054 45.256,12.546 45.277,12.726 C45.629,13.246 45.948,13.796 46.147,14.394 C46.277,14.778 46.556,15.106 46.618,15.511 C46.697,15.699 46.773,15.892 46.843,16.088 C47.101,16.575 47.342,17.066 47.554,17.564 C47.835,17.915 48.128,18.251 48.428,18.578 C48.339,18.245 48.286,17.901 48.181,17.571 ZM47.416,23.307 C47.371,22.654 47.297,22.003 47.170,21.360 C47.170,21.416 47.171,21.472 47.159,21.524 C47.274,22.058 47.253,22.613 47.339,23.152 C47.385,23.198 47.396,23.254 47.416,23.307 ZM47.437,24.243 C47.438,24.349 47.449,24.457 47.462,24.565 C47.463,24.553 47.466,24.541 47.467,24.529 C47.470,24.289 47.446,24.052 47.437,23.813 C47.416,23.959 47.398,24.106 47.437,24.243 ZM49.484,21.644 C49.314,21.442 49.459,21.872 49.484,21.644 ZM49.637,25.456 C49.147,25.389 49.549,24.795 49.425,24.482 C49.324,24.144 49.300,23.791 49.318,23.437 C49.378,23.049 49.176,22.704 49.178,22.322 C49.179,22.314 49.176,22.307 49.177,22.299 C49.127,23.101 49.056,23.890 48.960,24.662 C48.928,26.490 48.605,28.340 47.978,30.183 L47.510,31.265 C47.481,31.436 47.444,31.605 47.364,31.765 C47.357,32.131 47.205,32.419 47.136,32.780 C46.966,33.150 46.933,33.588 46.679,33.914 C46.640,34.247 46.387,34.450 46.310,34.761 C46.152,35.076 45.930,35.348 45.861,35.703 C45.713,36.108 45.350,36.373 45.141,36.740 L43.462,40.620 C43.573,40.499 43.699,40.393 43.804,40.267 C44.099,40.029 44.343,39.756 44.514,39.415 C44.735,39.175 44.912,38.904 45.144,38.670 C45.301,38.393 45.491,38.138 45.635,37.859 C45.878,37.427 46.244,37.076 46.495,36.652 C46.670,36.330 46.895,36.034 47.048,35.703 C47.093,35.381 47.257,35.064 47.402,34.757 C47.573,34.440 47.647,34.084 47.845,33.788 C47.994,33.395 48.091,32.979 48.273,32.613 C48.356,32.269 48.557,31.964 48.614,31.610 C48.835,31.306 48.891,30.940 48.906,30.573 C48.932,30.100 49.010,29.633 49.079,29.166 C49.089,28.839 49.378,28.580 49.293,28.271 C49.281,27.879 49.335,27.472 49.383,27.108 C49.498,26.890 49.184,26.670 49.328,26.407 C49.346,26.085 49.323,25.666 49.583,25.489 C49.752,25.482 49.879,25.477 49.637,25.456 ZM44.699,12.104 L44.668,12.065 L44.638,12.023 C44.476,11.872 44.498,11.498 44.681,11.849 C44.807,11.967 44.965,12.425 44.699,12.104 ZM44.334,11.437 C44.112,11.301 44.273,11.098 44.386,11.358 C44.436,11.450 44.468,11.595 44.334,11.437 ZM43.434,10.297 C43.250,10.089 43.498,9.934 43.577,10.220 C43.677,10.344 43.504,10.412 43.434,10.297 ZM43.231,9.923 C43.152,9.880 43.096,9.805 43.046,9.733 C42.929,9.632 42.612,9.161 42.952,9.367 C43.054,9.495 43.453,9.835 43.231,9.923 ZM42.586,9.162 C42.481,9.087 42.400,8.985 42.315,8.890 L42.315,8.890 C42.141,8.749 42.006,8.401 42.297,8.691 C42.389,8.785 42.811,9.125 42.586,9.162 ZM2.332,31.409 L2.332,31.409 C2.309,31.034 2.586,31.606 2.332,31.409 ZM1.823,29.701 L1.799,29.649 L1.799,29.649 C1.730,29.337 1.981,29.666 1.823,29.701 ZM32.727,3.677 C32.742,3.498 32.875,3.845 32.727,3.677 ZM30.168,3.143 C30.069,3.107 29.507,3.053 29.778,2.955 C29.963,3.048 30.447,3.001 30.455,3.182 C30.360,3.208 30.252,3.191 30.168,3.143 ZM20.362,44.536 C20.058,44.450 19.722,44.464 19.426,44.320 C19.107,44.314 18.856,44.185 18.541,44.127 C18.218,43.983 17.836,43.955 17.552,43.739 C17.261,43.706 17.084,43.492 16.813,43.426 C16.538,43.293 16.301,43.104 15.990,43.046 C15.583,42.901 15.346,42.502 14.937,42.356 C14.680,42.205 14.473,41.988 14.191,41.879 C13.857,41.724 13.594,41.480 13.309,41.288 C12.980,41.111 12.734,40.815 12.396,40.649 C12.083,40.412 11.822,40.119 11.577,39.819 C11.293,39.637 11.117,39.359 10.874,39.132 C10.596,38.833 10.246,38.607 10.020,38.262 C9.872,37.988 9.613,37.798 9.449,37.533 C9.189,37.144 8.903,36.775 8.628,36.398 C8.596,36.290 8.270,35.930 8.442,35.875 L8.442,35.874 C8.677,36.124 8.851,36.431 9.050,36.712 C9.250,36.965 9.441,37.228 9.673,37.460 C10.015,37.880 10.363,38.296 10.768,38.661 C11.241,39.121 11.689,39.606 12.204,40.023 C12.417,40.284 12.722,40.462 12.993,40.661 C13.260,40.887 13.547,41.089 13.839,41.284 C14.117,41.501 14.422,41.679 14.706,41.887 C14.963,42.019 15.179,42.236 15.446,42.373 C15.768,42.516 16.057,42.721 16.353,42.907 C16.684,43.056 17.005,43.221 17.351,43.341 C17.684,43.517 18.062,43.591 18.395,43.769 C18.735,43.886 19.097,43.933 19.434,44.066 C19.879,44.228 20.345,44.308 20.808,44.394 C21.313,44.544 21.850,44.525 22.358,44.664 C23.069,44.790 23.787,44.916 24.511,44.914 C25.087,44.905 25.658,45.040 26.236,45.004 C26.604,45.026 26.971,44.962 27.337,44.989 C27.215,45.068 26.765,45.141 26.520,45.195 C26.146,45.240 25.760,45.305 25.395,45.172 C25.091,45.031 24.786,45.232 24.504,45.102 C24.007,45.055 23.504,45.108 23.007,45.052 C22.718,44.988 22.418,44.959 22.135,44.868 C21.832,44.821 21.511,44.871 21.220,44.773 C20.947,44.699 20.658,44.563 20.362,44.536 ZM30.038,44.451 L30.075,44.437 C30.421,44.412 29.907,44.747 30.009,44.472 L30.038,44.451 ZM30.457,44.387 C30.840,44.276 31.237,44.207 31.598,44.034 C31.893,43.962 32.190,43.903 32.480,43.810 C32.782,43.753 33.077,43.677 33.365,43.576 C33.864,43.327 34.419,43.206 34.906,42.930 C35.353,42.706 35.821,42.518 36.240,42.245 C36.621,42.149 36.193,42.533 36.036,42.551 C35.582,42.849 35.102,43.120 34.580,43.288 C34.245,43.399 33.959,43.635 33.605,43.687 C33.315,43.807 33.013,43.924 32.706,44.002 C32.348,44.066 32.012,44.188 31.669,44.297 C31.290,44.388 30.901,44.450 30.514,44.480 C30.458,44.483 30.330,44.417 30.457,44.387 L30.457,44.387 ZM36.578,42.061 L36.612,42.035 L36.649,42.009 C36.781,41.871 37.107,41.890 36.800,42.046 C36.698,42.153 36.298,42.286 36.578,42.061 ZM37.229,41.796 C37.149,41.838 37.022,41.865 37.160,41.752 C37.278,41.563 37.455,41.700 37.229,41.796 ZM38.222,41.110 C38.113,41.195 38.054,41.048 38.154,40.988 C38.335,40.833 38.471,41.043 38.222,41.110 ZM38.966,40.580 C38.854,40.667 38.558,41.005 38.480,40.817 C38.518,40.749 38.584,40.702 38.647,40.660 C38.734,40.561 39.145,40.292 38.966,40.580 ZM39.382,40.040 C39.505,39.893 39.809,39.778 39.555,40.025 C39.473,40.103 39.176,40.461 39.144,40.270 C39.210,40.181 39.299,40.112 39.382,40.040 L39.382,40.040 ZM8.152,34.740 C8.138,34.699 8.146,34.649 8.178,34.618 C8.435,34.530 8.302,34.993 8.152,34.740 ZM27.666,6.736 C27.425,6.895 27.330,6.707 27.159,6.626 C27.285,6.476 27.751,6.624 27.666,6.736 ZM28.127,6.694 L28.127,6.694 C28.558,6.761 28.991,6.818 29.425,6.838 C30.123,7.005 30.803,7.236 31.491,7.438 C31.846,7.570 32.238,7.659 32.540,7.893 C32.351,8.080 32.018,7.732 31.765,7.718 C31.452,7.603 31.142,7.511 30.831,7.394 C30.520,7.336 30.221,7.276 29.925,7.150 C29.386,7.033 28.823,7.023 28.300,6.839 C28.116,6.928 27.673,6.645 28.127,6.694 ZM33.592,8.342 C33.928,8.329 34.196,8.620 34.508,8.722 C34.997,8.941 35.419,9.272 35.903,9.500 C36.331,9.695 36.682,10.004 37.067,10.264 C37.417,10.402 37.650,10.711 37.956,10.919 C38.539,11.390 39.069,11.925 39.544,12.499 C39.603,12.640 39.910,12.847 39.823,12.961 C39.551,12.758 39.253,12.578 39.002,12.346 C38.740,12.082 38.497,11.768 38.135,11.636 C37.955,11.339 37.610,11.201 37.384,10.939 C37.139,10.687 36.841,10.470 36.656,10.173 C36.445,9.948 36.103,9.889 35.898,9.672 C35.618,9.643 35.506,9.364 35.221,9.338 C34.916,9.256 34.716,8.993 34.419,8.892 C34.171,8.721 33.853,8.702 33.635,8.480 C33.562,8.417 33.377,8.379 33.592,8.342 L33.592,8.342 ZM39.937,13.072 C40.195,13.214 40.289,13.534 40.462,13.761 C40.517,13.909 40.888,14.204 40.686,14.296 C40.537,14.016 40.246,13.836 40.125,13.540 C40.069,13.434 39.736,13.159 39.937,13.072 L39.937,13.072 ZM20.887,0.196 L20.846,0.181 C20.983,0.030 21.233,0.230 20.930,0.200 L20.887,0.196 ZM15.203,1.613 C15.402,1.553 15.287,1.710 15.203,1.613 ZM49.048,32.730 L49.022,32.734 L48.987,32.727 C48.757,32.492 49.129,32.480 49.048,32.730 Z" class="cls-1"/>
</svg>
