<svg xmlns="http://www.w3.org/2000/svg" xmlns:xlink="http://www.w3.org/1999/xlink" width="20" height="20" viewBox="0 0 20 20"><defs><path id="xpn5a" d="M1495.33 18.471a1.2 1.2 0 1 0 0 2.4 1.2 1.2 0 0 0 0-2.4zm-5.336 9.869a3.332 3.332 0 1 1 0-6.665 3.332 3.332 0 0 1 0 6.665zm0-8.467a5.134 5.134 0 1 0 0 10.267 5.134 5.134 0 0 0 0-10.267zm0-3.062c2.67 0 2.986.01 4.04.059.974.044 1.503.207 1.856.344.466.181.8.398 1.15.748.35.35.566.683.748 1.15.136.352.3.881.344 1.856.048 1.054.058 1.37.058 4.04 0 2.668-.01 2.985-.058 4.04-.045.974-.208 1.503-.344 1.856a3.1 3.1 0 0 1-.748 1.15 3.1 3.1 0 0 1-1.15.747c-.352.137-.882.3-1.856.344-1.054.048-1.37.059-4.04.059s-2.986-.01-4.04-.059c-.974-.044-1.503-.207-1.856-.344a3.104 3.104 0 0 1-1.15-.748 3.094 3.094 0 0 1-.747-1.15c-.137-.351-.3-.881-.345-1.856-.048-1.054-.058-1.37-.058-4.04 0-2.668.01-2.985.058-4.039.045-.975.208-1.504.345-1.857.18-.466.397-.8.747-1.15.35-.35.683-.566 1.15-.747.352-.137.882-.3 1.856-.344 1.054-.048 1.37-.059 4.04-.059zm0-1.801c-2.715 0-3.056.011-4.122.06-1.064.049-1.791.217-2.426.465a4.89 4.89 0 0 0-1.771 1.153 4.896 4.896 0 0 0-1.153 1.77c-.247.637-.416 1.363-.465 2.427-.049 1.066-.06 1.406-.06 4.122 0 2.715.011 3.056.06 4.122.049 1.064.217 1.79.465 2.426a4.893 4.893 0 0 0 1.153 1.77 4.908 4.908 0 0 0 1.77 1.154c.637.247 1.363.416 2.427.465 1.066.049 1.407.06 4.122.06s3.056-.011 4.122-.06c1.065-.049 1.791-.218 2.427-.465a4.892 4.892 0 0 0 1.77-1.153 4.91 4.91 0 0 0 1.153-1.77c.247-.637.416-1.363.465-2.427.049-1.066.06-1.406.06-4.122 0-2.715-.011-3.056-.06-4.122-.049-1.065-.217-1.791-.465-2.427a4.89 4.89 0 0 0-1.153-1.77 4.903 4.903 0 0 0-1.77-1.153c-.637-.247-1.363-.416-2.427-.465-1.067-.048-1.407-.06-4.122-.06z"/></defs><g><g opacity=".5" transform="translate(-1480 -15)"><use fill="#fff" xlink:href="#xpn5a"/></g></g></svg>