<svg id="Logo-title" data-name="Logo-title" xmlns="http://www.w3.org/2000/svg" width="50.031" height="50" viewBox="0 0 50.031 50">
  <defs>
    <style>
      .cls-1 {
        fill: #c81919;
      }
      .cls-2 {
        fill: #ffffff;
      }
      .cls-1, .cls-2 {
        fill-rule: evenodd;
      }
    </style>
  </defs>
  <path id="Img" data-name="Img" class="cls-1" d="M454.85,624.733a1.466,1.466,0,0,1,.072.65c0.252,0.229-.233.621-0.014,0.828-0.03.341-.1,0.676-0.132,1.016a3.667,3.667,0,0,1,.115,1.085c-0.207.285,0.122,0.741-.223,0.927a3.7,3.7,0,0,0-.114.869c-0.11.382-.216,0.772-0.288,1.157-0.054.187-.221,0.282-0.022,0.419a1,1,0,0,1-.4.82,6.939,6.939,0,0,1-.214.928,1.592,1.592,0,0,1-.235.893,3.738,3.738,0,0,1-.326.946c-0.079.416-.337,0.777-0.439,1.184a5.115,5.115,0,0,0-.738,1.046,7.548,7.548,0,0,0-.594.8c-0.253.222-.339,0.585-0.584,0.8a8.279,8.279,0,0,1-.6.68,3.545,3.545,0,0,1-.8.782c-0.117.27-.241,0.785-0.676,0.609a2.539,2.539,0,0,1-.43.8c-0.169.166-.34,0.339-0.521,0.5l-0.135.311a0.745,0.745,0,0,1-.658.443,1.376,1.376,0,0,1-.263.275,6.912,6.912,0,0,1-1.171.968c-0.351.148-.55,0.545-0.9,0.738a5.778,5.778,0,0,0-.883.581c-0.43.244-.8,0.589-1.253,0.8-0.592.313-1.217,0.565-1.787,0.916a1.32,1.32,0,0,1-.222.067l0,0a0.749,0.749,0,0,1-.527.214h-0.257a0.8,0.8,0,0,0-.12.062c-0.381.2-.843,0.124-1.211,0.362-0.338.162-.683,0.283-1.032,0.412-0.487.277-1.07,0.325-1.561,0.594-0.392.156-.834,0.074-1.22,0.25a7.308,7.308,0,0,1-1.1.19c-0.849.066-1.706,0.093-2.545,0.241-0.453.037-.909,0.058-1.36,0.1-0.091,0-.182-0.013-0.271-0.025h0c-0.536-.053-1.069-0.125-1.6-0.22a4.4,4.4,0,0,1-1.272-.134c-0.619-.166-1.269-0.21-1.878-0.413a4.523,4.523,0,0,1-1.153-.153,12.6,12.6,0,0,1-2.179-.648,1.091,1.091,0,0,0-.857-0.4c-0.027-.014-0.056-0.022-0.083-0.034-0.622,0-1.236,0-1.834,0a0.751,0.751,0,0,1-.622-0.328l-0.775-1.139a0.7,0.7,0,0,1-.081-0.209,6.93,6.93,0,0,1-1.051-.609,8.278,8.278,0,0,1-1.464-1.207c-0.379-.2-0.423-0.669-0.788-0.855a1.543,1.543,0,0,1-.8-0.626,1.5,1.5,0,0,1-.747-0.631,12.248,12.248,0,0,0-1.039-1.1,3.849,3.849,0,0,1-.716-0.8,7,7,0,0,1-1.014-1.225,5.086,5.086,0,0,1-.553-0.831,4.413,4.413,0,0,1-.506-0.951c-0.192-.307-0.29-0.665-0.486-0.982a10.2,10.2,0,0,0-.534-0.922,6.168,6.168,0,0,1-.528-1.248c-0.15-.373-0.184-0.793-0.363-1.143a4.054,4.054,0,0,0-.3-0.9c0.263-.157-0.334-0.517-0.13-0.783,0.077-.035.518-0.045,0.228-0.053-0.39.041-.473-0.426-0.423-0.717,0.018-.3-0.393-0.39-0.292-0.751a1.678,1.678,0,0,1-.1-0.916c-0.33-.122.06-0.586-0.13-0.792a1.34,1.34,0,0,0,.05-0.625,1.932,1.932,0,0,1-.1-0.92c-0.03-.293.239-0.579-0.08-0.727a5.561,5.561,0,0,1,.094-1.056,8.766,8.766,0,0,0-.031-1.114,8.906,8.906,0,0,1,.134-2.5c-0.155-.251.025-0.4,0.269-0.41-0.069-.072-0.457-0.087-0.3-0.367,0.1-.165.372-0.181,0.125-0.386-0.239-.269.148-0.435,0-0.751a4.393,4.393,0,0,1,.189-1.015c-0.05-.33.518-0.147,0.472-0.357-0.284.127-.434-0.029-0.283-0.3a3.843,3.843,0,0,1,.341-0.979,8.867,8.867,0,0,1,.484-1.041,8.366,8.366,0,0,1,.364-0.884c0.151-.3.319-0.585,0.444-0.9a10.472,10.472,0,0,0,.594-1.084,9.3,9.3,0,0,1,.509-0.909,4.224,4.224,0,0,1,.636-0.935,10.082,10.082,0,0,1,.617-0.958c0.006-.184.487-0.024,0.216-0.228-0.1-.363.488-0.4,0.544-0.62a1.831,1.831,0,0,1,.63-0.806,7.416,7.416,0,0,1,.771-0.862,1.337,1.337,0,0,0,.519-0.634,4.519,4.519,0,0,0,.619-0.161c-0.428-.079.259-0.306,0.287-0.524a6.9,6.9,0,0,0,1.026-.706,20.8,20.8,0,0,1,1.75-1.381c0.135-.3.7-0.209,0.747-0.6a1.964,1.964,0,0,0,.729-0.384c0.377-.061.58-0.454,0.946-0.513a6.883,6.883,0,0,0,1.139-.593,6.476,6.476,0,0,1,1.2-.435c0.167-.058.338-0.122,0.138-0.238,0.147-.2.423,0.244,0.588-0.024a2.273,2.273,0,0,0,.48-0.1c0.157,0.069.236-.367,0.494-0.2,0.326-.026.652-0.123,0.978-0.157-0.021-.233.362-0.232,0.512-0.274,0.164,0.131.625,0.164,0.331-.077a1.819,1.819,0,0,1,1-.134c0.683-.067,1.355-0.218,2.027-0.351,0.636-.072,1.283-0.035,1.923-0.05,1.406,0.01,2.813-.012,4.218.047a2.572,2.572,0,0,0,.955.108c0.447,0.016.887,0.114,1.335,0.117a7.766,7.766,0,0,1,1.011.247c0.275,0.1.746,0.131,0.65,0.435a1.08,1.08,0,0,1,1.1.1,13.238,13.238,0,0,1,2.228.952c0.233,0.284.64,0.3,0.879,0.573,0.136,0.114.183,0.365,0.3,0.09,0.313,0.164.632,0.4,0.973,0.55a4.759,4.759,0,0,1,1.1.766c0.341,0.3.768,0.461,1.1,0.767a7.289,7.289,0,0,1,.859.682,7.709,7.709,0,0,1,.92.679,3.834,3.834,0,0,1,.8.88,4.071,4.071,0,0,1,.891.664,6.245,6.245,0,0,1,1.041,1.094c0.121,0.187.668,0.668,0.2,0.739,0.183,0.1.4-.114,0.551,0.165a13.885,13.885,0,0,1,.908,1.3c0.149,0.2.044,0.594,0.379,0.6a5.421,5.421,0,0,0,.523.929c0.151,0.342.217,0.706,0.38,1.038,0.11,0.341.3,0.676,0.433,1.021a4.849,4.849,0,0,0,.321.952,4.017,4.017,0,0,1,.278,1.12,6.88,6.88,0,0,1,.316,1.016,7.247,7.247,0,0,1,.343,1.417,9.245,9.245,0,0,1,.327,1.674,2.153,2.153,0,0,0,.24.877c0,0.171-.281.292-0.03,0.437a4.1,4.1,0,0,1,.125,1.7A1.423,1.423,0,0,1,454.85,624.733Zm-49.469,1.794C405.126,626.5,405.434,626.616,405.381,626.527Zm0.07-5.418C405.2,620.9,405.358,621.335,405.451,621.109Zm43.373,19.743,0.028-.027,0.017-.03C448.812,640.581,448.516,641.024,448.824,640.852Zm2.715-21.6c-0.215-.284-0.139-0.695-0.377-1.01a2.251,2.251,0,0,1-.106-0.235c-0.03-.04-0.058-0.083-0.088-0.122-0.047.093-.091,0.189,0.029,0.26a1.876,1.876,0,0,0,.091.407c-0.061.133,0.32,0.2,0.172,0.419,0.023,0.276.107,0.552,0.137,0.828,0.2-.018.2,0.306,0.239,0.433-0.114.138-.143,0.523,0.063,0.285-0.014-.117-0.031-0.232-0.041-0.349A1.791,1.791,0,0,1,451.539,619.256Zm0.312,3.959a0.087,0.087,0,0,0,.046.089C452.025,623.23,451.873,622.951,451.851,623.215Zm0.089,0.748c0.116-.089.045-0.608-0.009-0.225C451.939,623.809,451.861,623.912,451.94,623.963Zm-0.012,3.507a1.789,1.789,0,0,0,.031-0.922,12.3,12.3,0,0,0-.166-2.529c-0.059-.35.047-0.7-0.029-1.052-0.065-.108.288-0.21,0.1-0.244-0.168.214-.247-0.4-0.293-0.532-0.206-.817-0.305-1.656-0.558-2.461a1.708,1.708,0,0,0-.25-0.753,1.025,1.025,0,0,0-.046-0.675c-0.1-.067.042,0.2,0.054,0.262-0.35.056-.332-0.536-0.546-0.731a5.249,5.249,0,0,1-.414-0.943c-0.143-.313-0.349-0.6-0.471-0.92a5.02,5.02,0,0,1-.389-0.8c-0.019-.024-0.038-0.047-0.058-0.07,0.3,0.846.566,1.7,0.785,2.584a21.973,21.973,0,0,1,1.662,8.282,22.41,22.41,0,0,1-1.092,6.834l0.234-.539a27.421,27.421,0,0,0,1.352-4.126A6.313,6.313,0,0,0,451.928,627.47Zm-0.465-6.761C451.491,620.494,451.385,620.754,451.463,620.709Zm-1.167-3.753c-0.087-.018-0.335.048-0.078,0.105l0.04-.024a0.2,0.2,0,0,0,.062-0.048Zm-1.454-2.172c-0.03,0-.051.024,0.024,0.07a0.029,0.029,0,0,0,.007-0.021C448.863,614.816,448.852,614.8,448.842,614.784Zm-19.85-10.351h0.02C429.008,604.41,429,604.411,428.992,604.433Zm-10.909,4.187c-0.268.145-.443,0.335-0.682,0.483a7.809,7.809,0,0,0-.753.59,7.844,7.844,0,0,1-.7.647l-0.022.018c-0.5.583-.992,1.181-1.456,1.8a26.39,26.39,0,0,0,3.627-3.547Zm-7.786,16.2,0.017-.038h0c0.034-.26.016-0.557,0.065-0.83a1.276,1.276,0,0,0-.017-0.936,7.842,7.842,0,0,1,.12-0.895,5.813,5.813,0,0,1,.222-1.265c0.048-.345.2-0.663,0.281-1a6.37,6.37,0,0,1,.272-0.952,8.5,8.5,0,0,0,.418-0.805c0.08-.3.277-0.553,0.34-0.853a2.294,2.294,0,0,0,.447-0.883,2.213,2.213,0,0,1,.389-0.8l0.083-.154c-0.391.337-.78,0.677-1.156,1.02a19.662,19.662,0,0,0-2.3,7.44c0.1,1.316.246,2.66,0.439,4.009l1,2.516a2.821,2.821,0,0,1-.2-0.856c-0.154-1.046-.305-2.094-0.376-3.15A10.843,10.843,0,0,1,410.3,624.822Zm9.893-16.62c0.065-.035.127-0.075,0.193-0.108a14.476,14.476,0,0,1,1.341-.673c0.246-.162.526-0.226,0.761-0.4a4.491,4.491,0,0,1,.781-0.322,1.938,1.938,0,0,1,.394-0.191,27.164,27.164,0,0,0-3,.7A7.226,7.226,0,0,1,420.19,608.2Zm16.215-2.485c-0.649,0-1.285,0-1.916.01a8.567,8.567,0,0,1,.984.256,3.918,3.918,0,0,1,.874.272,1.878,1.878,0,0,1,.85.3,9.543,9.543,0,0,1,1.068.464c0.281,0.126.549,0.23,0.829,0.381a9.388,9.388,0,0,1,1.087.563c0.263,0.183.573,0.322,0.846,0.5a6.576,6.576,0,0,1,1.34.909,4.293,4.293,0,0,0,.378.246c-0.609-.685-1.245-1.367-1.932-2.044Zm-9.528-1.112a0.034,0.034,0,0,0-.037,0ZM449.2,615.327a0.046,0.046,0,0,0,.034.052Zm0.649,1.262C450.032,616.466,449.662,616.482,449.844,616.589Zm0.771,1.524C450.79,617.932,450.339,618.129,450.615,618.113Zm0.369,0.8c-0.033.037-.121,0.173-0.024,0.189C451.109,619.014,451.217,618.641,450.984,618.913Zm-21.99,26.993a23.92,23.92,0,0,0,15.344-5.228,18.431,18.431,0,0,0,1.193-1.659c-0.04.045-.085,0.088-0.122,0.135a2.029,2.029,0,0,1-.6.566,0.31,0.31,0,0,1,.153-0.279h0c0.327-.308.615-0.652,0.917-0.983,0.318-.532.608-1.062,0.858-1.581a22.336,22.336,0,0,0,.914-2.218,3.225,3.225,0,0,1-.389.593,2.1,2.1,0,0,0-.469.739c-0.237.243-.408,0.547-0.627,0.813-0.268.343-.578,0.652-0.867,0.978-0.743.8-1.567,1.526-2.385,2.252a2.864,2.864,0,0,0-.7.558,6.016,6.016,0,0,1-.764.548,3.478,3.478,0,0,1-.735.449,6.6,6.6,0,0,0-.81.43c-0.3.16-.63,0.266-0.925,0.443-0.322.086-.583,0.3-0.9,0.371a7.171,7.171,0,0,1-.861.342,10.29,10.29,0,0,1-1.366.513,2.914,2.914,0,0,0-.581.2,8.038,8.038,0,0,0-1.044.135,2.441,2.441,0,0,1-.845.121c-0.466.1-.95,0.08-1.421,0.153a1.971,1.971,0,0,1-.952.084,3.6,3.6,0,0,1-.914.021,1.566,1.566,0,0,0-.352.023c-0.422-.048-0.85-0.049-1.267-0.132a2.576,2.576,0,0,1-.9-0.063,7.39,7.39,0,0,0-.893-0.148,2.784,2.784,0,0,0-.941-0.2c-0.347-.053-0.637-0.27-0.98-0.33a4.924,4.924,0,0,0-.772-0.266,5.675,5.675,0,0,0-.97-0.31,3.016,3.016,0,0,0-.8-0.358c-0.49-.157-0.882-0.516-1.375-0.662a4.6,4.6,0,0,0-.776-0.51,1.965,1.965,0,0,1-.683-0.437,10.673,10.673,0,0,1-1.276-.808,2.167,2.167,0,0,1-.663-0.612c-0.047-.239-0.464-0.091-0.526-0.384a9.571,9.571,0,0,1-.711-0.656c-0.227-.217-0.358-0.512-0.556-0.74a4.951,4.951,0,0,1-.7-0.739c-0.2-.264-0.364-0.538-0.584-0.782a7.087,7.087,0,0,0-.545-0.9c-0.314-.55-0.619-1.105-0.907-1.668-0.189-.367-0.31-0.765-0.512-1.125a2.853,2.853,0,0,1-.271-0.854c-0.041-.4-0.234-0.765-0.313-1.158-0.131-.458-0.213-0.931-0.372-1.38a7.551,7.551,0,0,1-.182-0.929c-0.094-.795-0.1-1.6-0.175-2.394a3.547,3.547,0,0,1-.043-0.892,7.193,7.193,0,0,1,0-1.165h0a4.073,4.073,0,0,1,.132-0.843c0.03-.37.206-0.714,0.25-1.086a8.857,8.857,0,0,0,.14-0.98,8.4,8.4,0,0,1,.207-1.082,5.884,5.884,0,0,1,.488-1.542,7.075,7.075,0,0,1,.545-1.1,9.1,9.1,0,0,0,.737-1.256c0.213-.192.341-0.462,0.556-0.664a5.8,5.8,0,0,1,.726-0.956c0.209-.313.513-0.56,0.733-0.869a11,11,0,0,0,.937-1,5.407,5.407,0,0,1,.72-0.655c0.212-.231.5-0.376,0.722-0.587a9.132,9.132,0,0,1,1.013-.86c0.229-.249.563-0.368,0.814-0.592a4.275,4.275,0,0,0,.67-0.472c0.285-.127.521-0.323,0.8-0.459a7.092,7.092,0,0,1,1.264-.629,6.441,6.441,0,0,1,.7-0.367c0.286-.1.566-0.2,0.851-0.321a12.686,12.686,0,0,0,1.487-.545c0.286-.035.531-0.211,0.821-0.239,0.343-.058.681-0.142,1.013-0.221a1.191,1.191,0,0,1,.582-0.018,7.028,7.028,0,0,1,1.351-.155c0.549,0.07,1.11.039,1.652,0.161a3.808,3.808,0,0,1,1,.09c0.072,0.2-.421.053-0.557,0.085-0.975-.07-1.952-0.015-2.927-0.02-0.152-.2-0.352.137-0.6,0.088a5.979,5.979,0,0,0-1.449.259,6.4,6.4,0,0,0-.852.177c-0.35.053-.612,0.351-0.968,0.4a4.755,4.755,0,0,1-.78.306,3.827,3.827,0,0,1-1.034.545,7.25,7.25,0,0,1-.924.388,5.749,5.749,0,0,0-.676.477c-0.12.17-.323,0.025-0.328,0.246a7.355,7.355,0,0,0-.7.536c-0.319.092-.526,0.378-0.834,0.484a3.429,3.429,0,0,1-.787.58c-0.23.216-.485,0.41-0.716,0.6a5.031,5.031,0,0,1-.631.564,0.884,0.884,0,0,0-.455.572,1.028,1.028,0,0,0-.645.507c-0.2.2-.317,0.464-0.535,0.649-0.264.267-.456,0.592-0.726,0.856a4.9,4.9,0,0,0-.681.939c-0.228.277-.352,0.619-0.572,0.9-0.206.3-.337,0.64-0.55,0.934a2.864,2.864,0,0,0-.266,1.013,4.175,4.175,0,0,0-.336.857c0.177,0.2-.252.4-0.2,0.66a4.3,4.3,0,0,0-.262.89,8.993,8.993,0,0,0-.341,1.426,7.2,7.2,0,0,0-.2,1.7v0.656a2.8,2.8,0,0,0-.028,1.117c0.081,0.255.054,0.562,0.145,0.846a35.012,35.012,0,0,0,.289,1.891c0.072,0.3.121,0.594,0.172,0.9a6.932,6.932,0,0,0,.2.958c0.009,0.152.093,0.382,0.067,0.1,0.189,0.14.045,0.526,0.258,0.711-0.029.187-.042,0.386,0.176,0.4,0.1,0.292.177,0.585,0.305,0.877,0.155,0.278.194,0.587,0.337,0.845a2.385,2.385,0,0,1,.437.873,5.416,5.416,0,0,0,.908,1.455c0.264,0.239.355,0.594,0.629,0.827a4.417,4.417,0,0,0,.513.743,3.862,3.862,0,0,0,.687.677c0.255,0.178.363,0.517,0.625,0.7a7.328,7.328,0,0,1,.946,1,3.1,3.1,0,0,1,.7.49,3.571,3.571,0,0,0,.776.565,3.439,3.439,0,0,0,.768.486c0.257,0.193.581,0.281,0.822,0.5a10.784,10.784,0,0,0,1.36.68c0.519,0.177,1.007.429,1.538,0.571a3.343,3.343,0,0,1,.973.378,4.331,4.331,0,0,0,.876.263,10.719,10.719,0,0,0,2.006.348,23.971,23.971,0,0,0,3.947,0c0.895-.08,1.772-0.287,2.667-0.359a1.61,1.61,0,0,1,.8-0.1c0.248-.182.606-0.118,0.882-0.32,0.359-.191.779-0.239,1.132-0.441,0.095-.147.031-0.32,0.13-0.078a1.916,1.916,0,0,0,.8-0.279,3.587,3.587,0,0,0,.868-0.316,3.793,3.793,0,0,1,.876-0.39c0.342-.182.668-0.393,1-0.59,0.437-.274.792-0.649,1.232-0.918,0.434-.388.926-0.712,1.363-1.1a9.691,9.691,0,0,0,1.54-1.59,10.491,10.491,0,0,0,1.033-1.312,0.777,0.777,0,0,0,.525-0.521c0.233-.337.44-0.69,0.673-1.026a3.31,3.31,0,0,0,.469-0.822,29.365,29.365,0,0,0,.833-13.511c-0.124-.3-0.164-0.639-0.293-0.946a11.716,11.716,0,0,0-.484-1.295c-0.078-.284-0.26-0.517-0.357-0.793a3.978,3.978,0,0,1-.412-0.727c-0.169-.327-0.4-0.624-0.558-0.945a2.667,2.667,0,0,0-.515-0.769c-0.05-.166-0.388-0.471-0.2-0.605h0c0.2,0.153.24,0.459,0.458,0.616a5.231,5.231,0,0,1,.678,1.1c0.143,0.267.315,0.512,0.483,0.766a7.727,7.727,0,0,1,.4.849c0.034,0.271.3,0.459,0.354,0.733,0.032,0.146.084,0.288,0.124,0.433-0.041-.187-0.068-0.379-0.112-0.565a29.149,29.149,0,0,0-4.772-7.725c-0.166-.133-0.33-0.268-0.5-0.389-0.312-.159-0.559-0.41-0.852-0.594a3.376,3.376,0,0,1-.771-0.467,8.338,8.338,0,0,1-.767-0.5c-0.306-.109-0.555-0.314-0.866-0.417-0.372-.254-0.775-0.46-1.148-0.715a3.892,3.892,0,0,0-.872-0.4,2.88,2.88,0,0,0-.8-0.324,3.275,3.275,0,0,0-1.176-.416,4.686,4.686,0,0,0-.918-0.222c-0.389-.037-0.774-0.114-1.165-0.139a8.855,8.855,0,0,1-1.05-.166,62.335,62.335,0,0,0-8.138.61,0.631,0.631,0,0,1-.065.038,2.011,2.011,0,0,1-.848.4,9.744,9.744,0,0,0-1.154.548,6.121,6.121,0,0,0-.973.475,7.854,7.854,0,0,1-.847.469c-0.268.174-.532,0.353-0.8,0.527a28.25,28.25,0,0,1-5.3,5.249q-0.521.437-1.039,0.879a9.242,9.242,0,0,0-.9,1.752c-0.342.681-.523,1.423-0.813,2.123s-0.452,1.442-.672,2.164a16.438,16.438,0,0,0-.341,2.358,25.345,25.345,0,0,0,0,3.464c0.111,0.506.126,1.029,0.212,1.541a6.387,6.387,0,0,0,.3,1.578,14.322,14.322,0,0,0,.345,1.633c0.183,0.579.447,1.131,0.636,1.709,0.3,0.819.762,1.569,1.132,2.356-0.046.335-.344-0.167-0.392-0.3a1.511,1.511,0,0,0-.217-0.344l1.188,2.987a28.236,28.236,0,0,0,9.1,6.877,4.843,4.843,0,0,1,.657.242c0.3,0.071.567,0.242,0.876,0.29a1.641,1.641,0,0,0,.9.247c0.413,0.023.82,0.088,1.228,0.147a0.7,0.7,0,0,1,.222.049C427.617,645.876,428.306,645.906,428.994,645.906ZM409.2,615.842a20.112,20.112,0,0,1,.838-1.85l-0.46.391c-0.129.195-.257,0.391-0.379,0.591C409.2,615.259,409.2,615.544,409.2,615.842Zm15.183-10.929a0.277,0.277,0,0,1,.254-0.034l0.164-.022a0.665,0.665,0,0,1,.542-0.131A1.992,1.992,0,0,1,426,604.48a1.508,1.508,0,0,1,.8-0.087c0.107-.279.512,0.052,0.691-0.109a1.2,1.2,0,0,0,.546.042,1.752,1.752,0,0,1,.8-0.085,0.765,0.765,0,0,0,.6-0.028,19.161,19.161,0,0,0-7.59,1.176C422.666,605.2,423.517,605.047,424.386,604.913Zm5.887-2.72a19.744,19.744,0,0,0-3.6.539l-0.053.016Zm2.63,0.439a4.4,4.4,0,0,1,1.164.238c0.069,0.2-.42-0.047-0.573-0.013l-0.067,0,1.708,0.722c0.73,0.189,1.454.417,2.174,0.667l1.34,0a4.883,4.883,0,0,0-.933-0.316,4.16,4.16,0,0,1-.827-0.357,16.209,16.209,0,0,1,1.771.492,14.821,14.821,0,0,0-6.841-1.89Zm8.539,3.416c-0.123-.109-0.254-0.214-0.381-0.321h-0.246C441.025,605.832,441.235,605.937,441.442,606.048Zm5.5,34.378,0.1-.229c-0.082.083-.167,0.164-0.25,0.246A0.776,0.776,0,0,1,446.946,640.426Zm-3.761,4.7a6.423,6.423,0,0,0,1.225-.8c0.336-.33.752-0.565,1.076-0.909,0.224-.219.5-0.368,0.732-0.577a0.46,0.46,0,0,1-.032-0.045,24.579,24.579,0,0,1-3.787,2.713c-0.033.036-.068,0.071-0.1,0.107C442.584,645.432,442.9,645.317,443.185,645.13Zm-14.659,3.764a0.735,0.735,0,0,1-.063.091,35.086,35.086,0,0,0,3.6-.075l0.058-.008h0a7.6,7.6,0,0,1,1.189-.184c0.395-.042.772-0.175,1.17-0.2a11.422,11.422,0,0,1,1.138-.165,4.861,4.861,0,0,0,1.345-.4,3.46,3.46,0,0,0,.621-0.163l-0.813,0a20.253,20.253,0,0,1-4.825.583,21.2,21.2,0,0,1-3.547-.314A0.725,0.725,0,0,1,428.526,648.894Zm-5.276-.72a10.129,10.129,0,0,0,1.209.363,10.276,10.276,0,0,1,1.146.169c0.352,0.051.706,0.081,1.06,0.112l-1.832-.884-2.379.024A1.966,1.966,0,0,0,423.25,648.174Zm-4.634-1.863,0.364,0.19c0.867,0,1.763-.006,2.674-0.013-0.072-.033-0.145-0.064-0.215-0.1a2.23,2.23,0,0,1-.344-0.13,26.294,26.294,0,0,1-2.605-.879,0.721,0.721,0,0,1-.015.385l-0.077.227Zm-3.245-4.736,0.075,0.189,0.316,0.152C415.631,641.8,415.5,641.69,415.371,641.575Zm-0.041,2.911c0.078,0.045.157,0.09,0.237,0.134-0.169-.165-0.326-0.339-0.488-0.51A0.947,0.947,0,0,0,415.33,644.486Zm-2.4-2.182c0.471-.032.525,0.531,0.867,0.756a2.982,2.982,0,0,1,.825.742,0.385,0.385,0,0,0,.416.265c-0.314-.334-0.63-0.667-0.919-1.023a18.734,18.734,0,0,1-1.531-1.182A2.6,2.6,0,0,1,412.933,642.3Zm-2.264-4.964c0.135,0.2.268,0.4,0.405,0.6q-0.49-1.128-.891-2.308c-0.234-.349-0.458-0.7-0.678-1.062A11.237,11.237,0,0,0,410.669,637.34Zm-1.975-7.643c-0.042-.239-0.081-0.479-0.12-0.719l-0.006.429C408.608,629.505,408.654,629.6,408.694,629.7Zm-3.108-.73C405.473,628.857,405.474,629.145,405.586,628.967Zm0.019-8.837,0.049-.016,0.04-.021C405.8,619.922,405.173,620.212,405.605,620.13Zm0.185-1.011-0.007-.016-0.035-.026C405.477,618.918,405.556,619.209,405.79,619.119Zm0.066,0.469C405.637,619.109,405.72,619.9,405.856,619.588Zm-0.066-.683-0.007-.016-0.035-.026C405.477,618.7,405.556,619,405.79,618.905Zm0.067-.336c0.047,0.045.175,0.139,0.214,0.031C406.009,618.367,405.519,618.275,405.857,618.569Zm1.023-3.181C406.735,615.172,406.753,615.6,406.88,615.388Zm-0.084.693A0.121,0.121,0,0,0,406.88,616C406.781,615.823,406.457,616.212,406.8,616.081Zm0.839-1.873C407.546,614.066,407.463,614.427,407.635,614.208Zm0.091,3.779a5.2,5.2,0,0,0-.233.81c-0.025.108-.059,0.216-0.094,0.324,0.111-.167.217-0.335,0.336-0.5C407.731,618.407,407.729,618.2,407.726,617.987Zm-0.469,7.03q0.132-1.607.357-3.065A6.73,6.73,0,0,0,407.257,625.017Zm0.4,7.34c-0.029-.1-0.061-0.189-0.088-0.284-0.068-.186-0.148-0.707.068-0.29,0-.028,0-0.054,0-0.082a0.715,0.715,0,0,1,.13-0.392c-0.093-.2-0.184-0.412-0.273-0.618a0.734,0.734,0,0,1-.426-0.659c0-.121,0-0.235,0-0.356-0.1-.247-0.179-0.5-0.269-0.75-0.031.1,0,.367-0.111,0.2h0a5.435,5.435,0,0,1-.136-0.89c-0.211-.629-0.407-1.263-0.571-1.908a8.369,8.369,0,0,1,.948-6.444,6.475,6.475,0,0,1,.209-0.76,4.36,4.36,0,0,1,.321-1,2.982,2.982,0,0,1,.257-0.823c-0.01-.947-0.012-1.84-0.012-2.669a0.8,0.8,0,0,0-.114.29,5.668,5.668,0,0,1-.5,1.058c-0.164.239-.171,0.567-0.315,0.773,0.154,0.27-.334.378-0.276,0.58-0.051.282-.2,0.623-0.231,0.947a1.1,1.1,0,0,1-.236.716c0.122,0.243-.291.246-0.038,0.484a0.911,0.911,0,0,1-.316.825c0.323,0.082,0,.492-0.254.382a0.494,0.494,0,0,1,.27.632c-0.083.413,0.091,0.821-.014,1.225-0.058.656-.016,1.316-0.1,1.971a7.554,7.554,0,0,1-.031,1.121c0.088,0.26.048,0.64,0.1,0.809-0.366.065,0.145,0.187,0.059,0.43a3.643,3.643,0,0,1,.044,1.605c0.263,0.21-.25.041-0.057,0.237a1.889,1.889,0,0,1,.367,1.332,2.451,2.451,0,0,1,.354,1.008,1.855,1.855,0,0,1,.18.965,2.392,2.392,0,0,0,.286.38,3.312,3.312,0,0,0,.329,1.282,3.891,3.891,0,0,1,.5.9c0.135,0.408.434,0.743,0.542,1.164l0.079,0.119A12.382,12.382,0,0,1,407.654,632.357Zm0.87-19.857C408.275,612.291,408.431,612.726,408.524,612.5Zm0.361-.785C408.631,611.683,408.938,611.8,408.885,611.715Zm2.2-2.694C410.972,608.911,410.974,609.2,411.086,609.021Zm0.85-.949C411.889,607.849,411.723,608.359,411.936,608.072Zm0.252-.5C411.938,607.457,412.184,607.851,412.188,607.576Zm3.113-2.6C415.047,604.945,415.354,605.066,415.3,604.978Zm2.309-1.2C417.5,603.671,417.5,603.959,417.61,603.781Zm0.62-.8C418.136,602.781,418.006,603.159,418.23,602.982Zm-0.132.428c0.032-.01.136,0.009,0.136-0.047C418.111,603.17,417.748,603.394,418.1,603.41Zm0.537-.461c-0.191-.089-0.559.444-0.2,0.167C418.537,602.98,419.048,603.061,418.635,602.949Zm1.023-.288C419.513,602.446,419.531,602.869,419.658,602.661Zm0.528-.475c-0.192-.322-0.069.472,0.03,0.046Zm1.271-.409C421.243,601.576,421.476,602.093,421.457,601.777Zm0.944-.422c0.044,0.037.2,0.139,0.223,0.027C422.521,601.211,422.081,601.088,422.4,601.355Zm2.12-.548C424.267,600.774,424.575,600.9,424.521,600.807Zm2.959-.445a0.105,0.105,0,0,0,.1-0.054C427.5,600.162,427.169,600.336,427.48,600.362Zm0.617-.092c0.084-.01.205,0.081,0.266-0.01C428.258,600.127,427.645,600.208,428.1,600.27Zm5.482-.052C433.325,600.186,433.633,600.307,433.579,600.218Zm0.906,0.177a1.323,1.323,0,0,0,.54-0.027C434.873,600.179,434.639,600.4,434.485,600.4Zm2.363,0.49c0.134-.1.2,0.17,0.307,0.012C437.108,600.754,436.692,600.565,436.848,600.885Zm2.389,0.866,0.053,0,0.048-.014C439.179,601.594,438.865,601.776,439.237,601.751Zm1.293,0.36C440.182,601.972,440.662,602.407,440.53,602.111Zm1.053,0.8,0.046-.038C441.56,602.691,441.3,602.991,441.583,602.913Zm1.314,0.6c-0.3-.162-0.172.1,0.053,0.043Zm0.6,0.445C443.246,603.929,443.553,604.05,443.5,603.962Zm3.171,2.315C446.479,606.092,446.44,606.373,446.671,606.277Zm6.54,11.294a2.716,2.716,0,0,0-.29-1.114,2.562,2.562,0,0,1-.251-0.946,3.644,3.644,0,0,0-.369-1.134c-0.131-.338-0.276-0.65-0.4-0.994-0.168-.284-0.349-0.557-0.5-0.854a10.135,10.135,0,0,0-.644-0.868,11.685,11.685,0,0,1-.73-0.935,4.317,4.317,0,0,0-.762-1.076,28.483,28.483,0,0,0-2.206-2.554c-0.234-.289-0.635-0.42-0.875-0.729a14.493,14.493,0,0,0-1.267-1.04,7.759,7.759,0,0,0-.863-0.7,9.885,9.885,0,0,0-1.423-.939,1.091,1.091,0,0,0-.792-0.424c-0.3-.126-0.519-0.3-0.8-0.448a5.526,5.526,0,0,0-.962-0.439c-0.355-.166-0.71-0.34-1.051-0.534-0.345-.1-0.7-0.288-1.057-0.4-0.325-.2-0.7-0.25-1.025-0.441a12.74,12.74,0,0,0-1.264-.229c-0.355-.032-0.28-0.234-0.014-0.3-0.322-.2-0.383.336-0.74,0.187-0.815-.083-1.6-0.323-2.424-0.385a2.177,2.177,0,0,0-1.088-.035,15.042,15.042,0,0,0-2.985.19c-0.413.068-.828-0.054-1.242,0.033-0.127.074-.249-0.329-0.288-0.114,0.252,0.193-.468.282-0.628,0.336-0.964.235-1.955,0.349-2.905,0.639a2.058,2.058,0,0,0-.889.286,1.237,1.237,0,0,0-.8.053c-0.079.111,0.24-.048,0.309-0.062,0.067,0.4-.632.38-0.862,0.625a6.322,6.322,0,0,1-1.113.474c-0.37.165-.7,0.4-1.087,0.54a6,6,0,0,1-.941.446,2.385,2.385,0,0,1-.715.474c-0.279.181-.583,0.321-0.847,0.528-0.286.261-.651,0.355-0.924,0.606-0.275.275-.594,0.487-0.9,0.741a3.372,3.372,0,0,1-.779.594c-0.469.539-1.022,1-1.525,1.51a4.14,4.14,0,0,0-.9,1.041,7.507,7.507,0,0,0-.743.749c-0.237.3-.423,0.63-0.682,0.913-0.191.338-.436,0.639-0.623,0.98a5.526,5.526,0,0,0-.556.994,1.661,1.661,0,0,0-.448.671l3.009-2.554a8.206,8.206,0,0,1,.742-1.071c0.425-.536.962-0.976,1.362-1.532,0.3-.248.586-0.484,0.911-0.706,0.565-.379,1.025-0.892,1.624-1.224,0.131-.159.542-0.214,0.278,0.05a7.2,7.2,0,0,0-.839.582,5.27,5.27,0,0,0-.866.82c-0.256.262-.6,0.414-0.836,0.7a11.858,11.858,0,0,0-.973,1.008c-0.129.188-.277,0.364-0.425,0.54l5.685-4.825a2.154,2.154,0,0,1-.748.345h0a3.959,3.959,0,0,1,.9-0.627c0.169-.1.345-0.2,0.521-0.29l0.914-.776a0.764,0.764,0,0,1,.374-0.171l1.038-.157a5.564,5.564,0,0,0,.514-0.237,2.52,2.52,0,0,0,.328-0.1,16.21,16.21,0,0,1,4.456-1.965,17.337,17.337,0,0,1,15.275,2.953c0.387,0,.764,0,1.155,0a0.752,0.752,0,0,1,.528.215A24.97,24.97,0,0,1,445.486,607a8.989,8.989,0,0,0,.81.743,2.382,2.382,0,0,1,.668.689,0.367,0.367,0,0,1-.33-0.176h0c-0.182-.187-0.381-0.356-0.578-0.527,0.889,1.21,1.692,2.462,2.465,3.709a22.406,22.406,0,0,1,2.57,3.325,5.257,5.257,0,0,0-.338-0.741,15.072,15.072,0,0,0-.809-1.529c-0.113-.436.34,0.055,0.361,0.234a18.889,18.889,0,0,1,1.342,2.786c0.08,0.189.156,0.381,0.225,0.577,0.259,0.487.5,0.978,0.711,1.476q0.423,0.525.876,1.014C453.369,618.245,453.316,617.9,453.211,617.571Zm-0.765,5.736a15.747,15.747,0,0,0-.247-1.947,0.683,0.683,0,0,1-.011.164c0.115,0.534.1,1.089,0.181,1.628A0.4,0.4,0,0,1,452.446,623.307Zm0.021,0.936a3.214,3.214,0,0,0,.024.322c0-.012,0-0.024.006-0.036,0-.24-0.021-0.477-0.03-0.716A1.022,1.022,0,0,0,452.467,624.243Zm2.048-2.6C454.345,621.442,454.49,621.872,454.515,621.644Zm0.153,3.812c-0.49-.067-0.088-0.661-0.212-0.974a3.087,3.087,0,0,1-.107-1.045,7.233,7.233,0,0,0-.141-1.115,0.177,0.177,0,0,0,0-.023q-0.075,1.2-.217,2.363a18.08,18.08,0,0,1-.983,5.521l-0.468,1.082a1.748,1.748,0,0,1-.146.5,5.781,5.781,0,0,1-.229,1.015,5.3,5.3,0,0,1-.457,1.134,6.53,6.53,0,0,1-.369.847,3.705,3.705,0,0,0-.449.942,7.422,7.422,0,0,1-.721,1.037l-1.68,3.88c0.111-.121.237-0.227,0.342-0.353a2.577,2.577,0,0,0,.711-0.852c0.221-.24.4-0.511,0.63-0.745,0.157-.277.347-0.532,0.492-0.811,0.243-.432.609-0.783,0.86-1.207,0.175-.322.4-0.618,0.554-0.949a3.485,3.485,0,0,1,.353-0.946c0.171-.317.246-0.673,0.444-0.969,0.149-.393.246-0.809,0.428-1.175,0.083-.344.285-0.649,0.342-1a1.853,1.853,0,0,0,.292-1.037c0.026-.473.1-0.94,0.173-1.406a3.228,3.228,0,0,0,.214-0.9,7.337,7.337,0,0,1,.09-1.163,5.077,5.077,0,0,1-.055-0.7,1.16,1.16,0,0,1,.255-0.918C454.784,625.482,454.911,625.477,454.668,625.456ZM449.727,612.1l-0.031-.039-0.03-.042c-0.163-.151-0.14-0.525.043-0.174C449.835,611.967,449.993,612.425,449.727,612.1Zm-0.365-.667c-0.223-.136-0.061-0.339.052-0.079C449.464,611.45,449.5,611.6,449.362,611.437Zm-0.9-1.14c-0.183-.208.064-0.363,0.143-0.077C448.705,610.345,448.531,610.412,448.461,610.3Zm-0.2-.374a0.579,0.579,0,0,1-.185-0.19c-0.117-.1-0.434-0.572-0.094-0.366C448.081,609.5,448.48,609.834,448.258,609.923Zm-0.645-.761a1.749,1.749,0,0,1-.272-0.272h0c-0.174-.141-0.309-0.489-0.017-0.2C447.415,608.785,447.838,609.125,447.613,609.162Zm-40.28,22.248h0C407.311,631.034,407.588,631.606,407.333,631.41Zm-0.509-1.709-0.024-.052h0C406.731,629.336,406.982,629.665,406.824,629.7Zm30.923-26.024C437.762,603.5,437.9,603.846,437.747,603.677Zm-2.561-.534c-0.1-.036-0.661-0.09-0.389-0.189a1.217,1.217,0,0,1,.677.228A0.391,0.391,0,0,1,435.186,603.143Zm-9.811,41.393a74.431,74.431,0,0,0-1.823-.409,4.644,4.644,0,0,1-.989-0.388,5.643,5.643,0,0,1-.74-0.313,3.318,3.318,0,0,0-.822-0.38c-0.408-.145-0.645-0.544-1.054-0.69a5.429,5.429,0,0,0-.747-0.477,6.5,6.5,0,0,1-.883-0.591c-0.328-.177-0.575-0.473-0.913-0.639a4.878,4.878,0,0,1-.82-0.83,5.3,5.3,0,0,1-.7-0.687,7.231,7.231,0,0,1-.855-0.869c-0.147-.275-0.406-0.465-0.571-0.73-0.26-.388-0.546-0.758-0.822-1.135-0.032-.108-0.357-0.468-0.186-0.523h0a7.328,7.328,0,0,1,.608.837,8.5,8.5,0,0,0,.624.748,10.555,10.555,0,0,0,1.1,1.2c0.473,0.46.922,0.945,1.436,1.362a4.105,4.105,0,0,0,.79.638,9.27,9.27,0,0,0,.847.623c0.277,0.217.583,0.395,0.867,0.6,0.257,0.132.474,0.349,0.74,0.486a7.266,7.266,0,0,1,.909.535c0.331,0.148.652,0.313,1,.433,0.334,0.176.712,0.25,1.045,0.428,0.341,0.117.7,0.164,1.041,0.3a8.481,8.481,0,0,0,1.374.328c0.506,0.15,1.042.131,1.551,0.27a12.208,12.208,0,0,0,2.154.25c0.576-.009,1.148.126,1.727,0.09,0.367,0.022.735-.042,1.1-0.015a4.248,4.248,0,0,1-.818.2,2.389,2.389,0,0,1-1.125-.022c-0.305-.141-0.609.06-0.891-0.07-0.5-.047-1,0.006-1.5-0.051-0.289-.063-0.59-0.092-0.873-0.183a5.543,5.543,0,0,1-.915-0.094A5.09,5.09,0,0,0,425.375,644.536Zm9.682-.085,0.036-.014c0.347-.025-0.167.31-0.065,0.035Zm0.419-.064a7.29,7.29,0,0,0,1.142-.353c0.3-.072.592-0.131,0.882-0.224a6.078,6.078,0,0,0,.886-0.234c0.5-.249,1.055-0.37,1.542-0.646a13.322,13.322,0,0,0,1.335-.685c0.381-.1-0.048.288-0.2,0.306a6.116,6.116,0,0,1-1.456.737,6,6,0,0,1-.975.4,6.718,6.718,0,0,1-.9.315,8.3,8.3,0,0,0-1.038.3,7.4,7.4,0,0,1-1.155.183c-0.055,0-.184-0.063-0.057-0.093h0Zm6.124-2.326,0.035-.026,0.037-.026c0.132-.138.458-0.119,0.151,0.037C441.721,642.153,441.321,642.286,441.6,642.061Zm0.652-.265c-0.08.042-.207,0.069-0.069-0.044C442.3,641.564,442.479,641.7,442.252,641.8Zm0.994-.686c-0.109.085-.168-0.062-0.068-0.121C443.359,640.833,443.5,641.043,443.246,641.11Zm0.744-.53c-0.111.087-.408,0.425-0.485,0.237a0.48,0.48,0,0,1,.166-0.157C443.758,640.561,444.169,640.292,443.99,640.58Zm0.417-.54c0.122-.147.427-0.262,0.173-0.015-0.082.078-.379,0.436-0.411,0.245a1.481,1.481,0,0,1,.238-0.23h0Zm-31.25-5.3a0.119,0.119,0,0,1,.026-0.122C413.44,634.53,413.307,634.993,413.157,634.74Zm19.527-28c-0.241.159-.336-0.029-0.508-0.11C432.3,606.476,432.768,606.624,432.684,606.736Zm0.461-.042h0a12.084,12.084,0,0,0,1.3.144c0.7,0.167,1.379.4,2.067,0.6a3.822,3.822,0,0,1,1.049.455,1.179,1.179,0,0,1-.775-0.175c-0.314-.115-0.623-0.206-0.935-0.324a4.232,4.232,0,0,1-.906-0.244,13.3,13.3,0,0,1-1.627-.311C433.134,606.928,432.69,606.645,433.145,606.694Zm5.468,1.648a2.876,2.876,0,0,1,.917.38c0.489,0.219.911,0.55,1.4,0.778a8.375,8.375,0,0,1,1.165.764,4.98,4.98,0,0,1,.889.655,11.3,11.3,0,0,1,1.589,1.58,0.88,0.88,0,0,1,.279.462,10.028,10.028,0,0,1-.821-0.615,2.574,2.574,0,0,0-.868-0.71,6.23,6.23,0,0,0-.751-0.7,4.97,4.97,0,0,1-.729-0.766c-0.211-.225-0.554-0.284-0.758-0.5-0.281-.029-0.393-0.308-0.677-0.334-0.306-.082-0.506-0.345-0.8-0.446a4.438,4.438,0,0,1-.784-0.412c-0.073-.063-0.258-0.1-0.043-0.138h0Zm6.349,4.73a2.108,2.108,0,0,1,.525.689c0.055,0.148.426,0.443,0.225,0.535a9.019,9.019,0,0,1-.562-0.756c-0.056-.106-0.389-0.381-0.188-0.468h0ZM425.9,600.2l-0.041-.015c0.138-.151.388,0.049,0.085,0.019Zm-5.687,1.417C420.411,601.553,420.3,601.71,420.213,601.613Zm33.865,31.117-0.026,0-0.035-.007C453.788,632.492,454.159,632.48,454.078,632.73Z" transform="translate(-405 -600)"/>
  <path id="G" class="cls-2" d="M441,620.779h-1.3l-1.533,6.043a18.033,18.033,0,0,0-.481,2.373,17.968,17.968,0,0,0-.543-2.387l-1.824-6.029h-1.289l-1.75,5.981a17.133,17.133,0,0,0-.528,2.435,20.291,20.291,0,0,0-.475-2.36l-1.54-6.056h-1.3l2.625,9.915h1.261l1.872-6.456a14.135,14.135,0,0,0,.475-2,17.612,17.612,0,0,0,.5,1.96l1.932,6.5h1.262Z" transform="translate(-405 -600)"/>
  <path id="W" data-name="W" class="cls-1" d="M423.553,626.876h1.879v2.068a6.761,6.761,0,0,1-1.336.136,2.287,2.287,0,0,1-1.923-.851,3.952,3.952,0,0,1-.661-2.465,3.551,3.551,0,0,1,.82-2.462,2.789,2.789,0,0,1,2.184-.916,4.983,4.983,0,0,1,2.258.543l0.7-1.682a7.366,7.366,0,0,0-2.943-.61,5.211,5.211,0,0,0-3.808,1.343,4.993,4.993,0,0,0-1.373,3.743,5.49,5.49,0,0,0,1.183,3.788,4.369,4.369,0,0,0,3.428,1.319,11.678,11.678,0,0,0,1.726-.126,11.135,11.135,0,0,0,1.8-.437v-5.141h-3.934v1.75Z" transform="translate(-405 -600)"/>
</svg>
