<svg xmlns="http://www.w3.org/2000/svg" width="50.014" height="50.014" viewBox="0 0 340 340">
  <defs>
    <style>
      .cls-1 {
        fill: #d7d7d7;
        fill-rule: evenodd;
      }
    </style>
  </defs>
  <path id="Img" class="cls-1" d="M330.158,36.557l-0.052.072-0.1.065C328.905,36.676,329.755,35.77,330.158,36.557Zm-143.894-10.8-0.114.093-0.131.061C185.985,25.227,187.051,25.11,186.264,25.755Zm-10.194,16.9C176.4,42.042,176.5,42.686,176.07,42.655ZM65.261,0h1.563l-0.55.55ZM0,302.98A10.705,10.705,0,0,0,7.315,299.5a30.574,30.574,0,0,0,3.845-4.716l-6.674-6.668L0,292.6V281.32L5.428,275.9l16.586,16.572a49.9,49.9,0,0,1-4.361,7.176,52.743,52.743,0,0,1-5.128,5.933C8.547,309.553,4.37,311.746,0,312.212V302.98Zm18.086,30.313L29.336,340H19.774l-5.305-3.093Zm131.523-124.3q7.136-.024,13.621,6.456,6.865,6.858,6.776,14.2t-7.042,14.292l-7.669,7.661-27.725-27.7,8.479-8.471Q142.474,209.017,149.609,208.992Zm6.157,36.157,3.749-3.746q11.192-11.181.174-22.19-5.29-5.286-10.6-5.417t-10.55,5.1l-4.522,4.518Zm-20.891,20.645,12.039-12.029,3.11,3.108-15.506,15.492-27.725-27.7,3.467-3.464Zm-24.409,5.781,19.977,4.862-4.051,4.047-18.124-4.78-5.483,5.478,11.454,11.444-3.466,3.464-27.726-27.7L90.64,260.8q5.125-5.12,9.547-5.616t8.366,3.446Q114.072,264.145,110.466,271.575Zm-5.341-9.176q-2.618-2.616-5.385-2.256T93.467,264l-3.938,3.934,10.3,10.288,4.126-4.122q3.354-3.351,3.571-6.221A6.943,6.943,0,0,0,105.125,262.4ZM64.869,188.482l7.478-7.472,3.07,25.222,29.008,6.653-7.653,7.646-21.805-5.148-0.791,4.9L85.6,231.7l-6.739,6.733L46.868,206.466l6.739-6.733,14.639,14.626-1.111-6.411ZM0,254.537v-1.244l17.682-17.666,5.558,5.553L11.674,252.735l7.024,7.018L29.459,249l5.558,5.553L24.256,265.305l8.249,8.242,11.566-11.555,5.6,5.6-18.3,18.288ZM77.419,280.7q7.118,0.448,13.812,7.136,6.656,6.651,7.124,13.8t-5.543,13.155q-6.086,6.081-13.157,5.661t-13.9-7.241q-6.77-6.764-7.19-13.791t5.741-13.182Q70.3,280.253,77.419,280.7Zm-10.037,8.607q-4.484,4.481-3.948,9.648T69.451,309.6q5.5,5.495,10.7,6.059t9.646-3.878q4.427-4.423,3.882-9.562t-6.121-10.709Q82,285.957,76.905,285.421T67.381,289.308ZM23.123,230.191l18.3-18.289,5.558,5.553L35.42,229.01l7.024,7.018,10.761-10.752,5.558,5.553L48,241.581l8.249,8.242,11.566-11.555,5.6,5.6-18.3,18.289ZM49.485,17.322L19.774,0h9.562L39.3,5.939a80.392,80.392,0,0,1,7.918,5.276,68.084,68.084,0,0,1-5.338-8.27L40.258,0h5.086L52.99,13.821ZM218.02,338.088a44.425,44.425,0,0,1,7.533-3c1.229,0.125,2.224-.8,3.442-0.713,0.591-.051,1.3.433,0.931-0.5,1.131-.352,2.438-0.55,3.611-0.994a15.823,15.823,0,0,1,4.418-.776c1.51-.1,2.913-0.719,4.429-0.782,1.239-.014,2.422-0.582,3.651-0.408a25.6,25.6,0,0,1,3.791-.562c1.3-.511,2.682.3,3.983,0.2,1.221-.641,2.446-0.224,3.686-0.526,1.669-.4,3.378.128,5.064,0.139,0.73,0.158,3.168.007,2.232,1.28,0.68-.185.668-1.209,1.695-0.909,1.823-.132,3.448.878,5.244,0.949,0.836,0.128,1.515,1.306,2.327.532,1,0.833,2.343.356,3.446,0.973,1.172,0.456,2.192,1.164,3.367,1.566,1.074,0.552,2.319.9,3.453,1.4a16.511,16.511,0,0,0,3.022,1.506,13.569,13.569,0,0,1,3.323,2,5.315,5.315,0,0,1,1.2.536h-4.472a2.94,2.94,0,0,1-1.51-1.025,12.36,12.36,0,0,0-3.569-1.821c-1.114-.5-2.2-0.895-3.317-1.412-1.07-.277-2.147-0.5-3.2-0.856a33.354,33.354,0,0,0-3.587-.54c-1.322-.109-2.65-0.256-3.95-0.5-1.321-.753-2.92-0.444-4.361-0.759a96.211,96.211,0,0,0-11.29-.855c-1.242-.133-2.5.506-3.8,0.337a48.688,48.688,0,0,0-5.471.524,25.8,25.8,0,0,0-3.705.377,33.03,33.03,0,0,0-5.6,1.131,3.647,3.647,0,0,0-2.881.863c-1,.4-1.946.51-2.963,0.83a18.4,18.4,0,0,0-3.318,1.233c-1.236.444-2.491,0.868-3.758,1.213-0.854.48-1.868,0.826-2.819,1.256h-3.045C215.558,338.925,217.086,338.589,218.02,338.088Zm31.714-6.875C248.845,331.228,249.419,331.989,249.734,331.213Zm-13,1.993C236.052,333.729,237.068,333.291,236.731,333.206Zm-2.255.344-0.23.025C233.145,333.905,234.068,334.208,234.476,333.55Zm-4.772,1.694,0.02-.2C229.12,334.771,229.212,336.108,229.7,335.244Zm-4.4.582C224.153,336.318,226.323,336.219,225.305,335.826Zm-3.913,2.2,0.114-.134,0.079-.149C220.882,337.789,220.57,338.965,221.392,338.025Zm52.273-.079a23.3,23.3,0,0,1,6.027,1.906c0.119,0.059.246,0.1,0.368,0.148h-2.149c-0.037-.01-0.071-0.026-0.108-0.036a50.891,50.891,0,0,0-5.548-1.722C270.949,337.472,273.189,337.568,273.665,337.946Zm-16.131-2.109c-0.745.077-1.893-.432-0.513-0.432,0.44,0.009,2.249-.183,1.805.437A5.937,5.937,0,0,1,257.534,335.837Zm3.736,0.273c-0.516.039-2.386-.331-1.092-0.647,0.544,0.063,2.3-.074,1.982.663A1.94,1.94,0,0,1,261.27,336.11Zm2.414-.1c0.534,0.059.283,0.63-.155,0.523C262.6,336.474,262.819,335.52,263.684,336.012Zm4.62,0.79c0.339,0.1.759,0.372,0.068,0.312C267.522,337.317,267.42,336.454,268.3,336.8Zm2.351,1.013-0.173-.028c-0.743.025-1.58-.915-0.31-0.514,0.577-.019,2.04.7,0.649,0.564ZM224.823,340a57.787,57.787,0,0,1,8.084-1.588c0.916-.912,1.815-1.8,2.739-2.723a2.507,2.507,0,0,1,1.759-.737,83.737,83.737,0,0,1,11.242.774,30.243,30.243,0,0,0,3.684-.148c0.992-.069,2.473-0.3,3.218.059a1.23,1.23,0,0,1-1.2.361h0c-0.877-.014-1.75.053-2.624,0.113,4.982,0.776,9.86,1.851,14.651,2.989a74.516,74.516,0,0,1,9.081.9H224.823Zm96.443-36.114q-7.746-7.74-7.677-16.467t7.875-16.524a33.223,33.223,0,0,1,11.4-7.459l3.187,7.659a22.5,22.5,0,0,0-8.989,5.484,12.583,12.583,0,0,0-4.047,9.945q0.324,5.58,5.313,10.564,5.208,5.2,10.073,5.829a9.967,9.967,0,0,0,1.6.063v9.232a16.544,16.544,0,0,1-2.72.093Q329.231,311.845,321.266,303.886ZM340,254.537l-0.623-.622,0.623-.622v1.244ZM332.819,288.5L340,281.32V292.6l-1.536,1.534ZM45.344,340H40.258L30.013,321.377l3.58-3.577L55.52,329.58a71.132,71.132,0,0,1,8.183,5.164,72.257,72.257,0,0,1-5.3-7.968L45.764,305.64l3.617-3.615,20.4,35.024L66.823,340H65.261L42.736,327.764a71.117,71.117,0,0,1-6.875-4.083,55.632,55.632,0,0,1,4.276,6.907ZM288.725,0.628A6.541,6.541,0,0,0,287.392,0h4.472c0.653,0.373,1.272.817,1.966,1.131a24.6,24.6,0,0,1,4.181,2.556,31.379,31.379,0,0,1,4.755,3.207c0.946,0.456,1.641,1.517,2.652,1.515,0.408,0.406.031,1.358,0.967,1.107a13.9,13.9,0,0,1,4.34,3.747,4.817,4.817,0,0,1,2.243,2.47,5,5,0,0,1,1.715,1.373c1.141-.049.927,2.028,1.936,2,0.737,0.879,1.371,1.843,2.1,2.725,0.768,1,2.408,1.1,2.852,2.308,0.19,1.164,2.051,1.471,1.676,2.727a12.561,12.561,0,0,0,1.8,2.335c0.65,1.167,1.327,2.344,2.071,3.43,0.315,0.571.149,1.19,0.944,1.047,0.521,0.938,1.444,1.729,1,2.894a23.252,23.252,0,0,1,1.7,2.709c0.635,0.86,1.465,1.517,1.57,2.678,0.815,0.883.954,2.056,1.479,3.017,0.8,1.173,1.049,2.641,1.774,3.851,0.293,1.4.1,2.9,0.743,4.228a25.454,25.454,0,0,0,.5,3.306c-0.071,1.124.589,2.19,0.526,3.285,0.415,1.011-.1,2.061.208,3.025a11.843,11.843,0,0,1-.04,3.752c0.366,0.919,1.3,2.434-.149,3.046,0.076,0.834,1.091,1.794.873,2.9,0,0.8,0,1.61-.049,2.415l0.421,1.058a2.48,2.48,0,0,1-.5,2.606,4.524,4.524,0,0,1,.033,1.276,23.142,23.142,0,0,1-.469,5.068c-0.478,1.183,0,2.594-.386,3.893-0.013,1.215-.906,2.221-0.705,3.467-0.437,1.6-.5,3.292-1.055,4.869-0.658,2.14-1.536,4.216-2.049,6.4a4.48,4.48,0,0,1-.365.683,0.038,0.038,0,0,1,0,.015,2.5,2.5,0,0,1-.738,1.755c-0.2.2-.4,0.407-0.6,0.606a2.761,2.761,0,0,0-.137.433c-0.422,1.379-1.7,2.288-2,3.719-0.413,1.184-.943,2.288-1.461,3.418-0.492,1.811-1.757,3.3-2.279,5.1-0.556,1.3-1.8,2.146-2.291,3.479a24.376,24.376,0,0,1-2.158,3.058c-1.851,2.164-3.812,4.252-5.446,6.586-0.984,1.158-2.011,2.288-2.977,3.454-0.225.2-.46,0.4-0.7,0.581-1.4,1.138-2.825,2.226-4.3,3.251a14.625,14.625,0,0,1-3.326,2.689c-1.861,1.07-3.5,2.5-5.425,3.459a15.2,15.2,0,0,1-3.09,2.36c-2.259,1.149-4.241,2.877-6.695,3.608a3.655,3.655,0,0,0-2.976,1.077c-0.1.032-.185,0.08-0.278,0.117-1.464,1.476-2.912,2.932-4.325,4.344a2.51,2.51,0,0,1-2.249.692l-4.544-.874a2.4,2.4,0,0,1-.69-0.307c-1.332.269-2.554,1-3.931,1.037a27.734,27.734,0,0,1-6.333.594c-1.372.419-2.59-.592-3.9-0.171-0.991.713-2.284,0.442-3.374,0.4-0.872.9-2.155,0.083-3.269,0.266a41.043,41.043,0,0,0-5.065-.149c-1.171.339-2.4-.215-3.6-0.215-1.77-.177-3.607.065-5.312-0.514-1.168.115-2.178-.567-3.284-0.669-1.128-.383-2.494-0.42-3.458-1.061-1.184-.277-2.268-0.9-3.486-1.185-1.02-.805-2.348-0.232-3.453-0.928a20.873,20.873,0,0,1-4.217-1.717c-1.241-.532-2.322-1.452-3.578-1.858-1.037-.28-1.886-1.445-2.846-1.414,0.25-.993-2.018-0.44-2.168-1.552,0.1-.265,1.118-1.332.412-0.666-0.826,1.02-2.131.106-2.707-.7-0.678-.767-1.855,0-2.475-1.1a5.671,5.671,0,0,1-2.417-1.934c-1.071.49-1.251-1.534-2.19-1.574-0.638-.37-0.428-1.394-1.369-1.6a6.515,6.515,0,0,1-2.423-1.95c-0.767-.625-0.813-1.94-1.92-1.538-0.506-1.121-1.982-1.5-2.285-2.731-0.577-1.1-1.974-1.521-2.723-2.573-1.948-2.014-4.3-3.747-5.632-6.26-0.965-.228-0.9-1.01-0.339-1.61-0.333-.007-1.287.874-1.587-0.154-0.145-.639.446-1.309-0.624-1.211-1.206-.076-0.683-1.385-1.795-1.775a14.885,14.885,0,0,1-1.967-2.858c-0.9-.667.876-1.575,0.266-1.964-0.369.971-1.093,0.957-1.387-.05-0.984-.776-0.782-2.147-1.521-3.132a30.171,30.171,0,0,1-1.33-3.616,28.208,28.208,0,0,1-1.24-2.959c-0.348-1.061-.637-2.144-1.084-3.183-0.661-1.25-.358-2.781-1.173-3.978a31.8,31.8,0,0,1-.956-3.362c-0.568-1.084-.477-2.516-0.721-3.722-0.153-1.272-.805-2.442-0.818-3.736-0.425-.45,1.092-1.207-0.032-1.049-1.094-.634.2-2.1-0.186-2.761-0.81-.757-0.234-2.335-0.428-3.4,0-1.3-.426-2.552-0.225-3.869-0.007-.991.292-1.857-0.28-2.735-0.072-.715,1.489-1.506,1.08-1.844-1.2.822-.113-1.341-0.567-1.925,0.079-1.383.913-2.648,0.748-4.1a24.7,24.7,0,0,0,.344-3.849,25.13,25.13,0,0,0,.511-3.566c-0.405-1.044,1.153-2.144.342-3.19,0.027-1.068,1.227-1.679.811-2.634,0.748-1.035.293-2.45,1.018-3.454,0.333-1.392,1.2-2.618,1.284-4.1,0.106-1.445,1.407-2.471,1.8-3.864,0.259-.532.51-1.088-0.24-0.893-0.135-.828,1.581-0.418,1.335-1.444,0.58-.224.623-1.436,0.889-1.382,0.536-.207-0.316-1.428.7-1.636,0.708-.833,1.247-1.833,1.938-2.683-0.6-.5.305-1.405,0.559-1.861,0.7-.076,1.87-1.087.6-0.965,0.123-1.163,1.349-1.831,2.05-2.688,1.455-1.772,2.686-3.718,3.96-5.621,1.331-1.677,2.951-3.116,4.429-4.666,3.35-3.3,6.625-6.676,10.087-9.854a8.507,8.507,0,0,0,2.514-2c1.1-1.02,2.371-1.826,3.438-2.876A25.636,25.636,0,0,1,212.61.93c0.887-.411,2.073-1.453,2.572-0.5A1.45,1.45,0,0,1,215.246,0h3.045c-0.212.1-.424,0.19-0.626,0.3-1.239.3-2.256,1.066-3.472,1.373-1.105.923-2.521,1.41-3.534,2.446-0.916.758-1.218,0.1-.757-0.693-1.246.277-.106,1.705-1.3,2.2-2.126,1.73-4.565,3.025-6.649,4.811a7.245,7.245,0,0,0-2.656,2.489c-2.285,2.423-4.838,4.65-6.609,7.5-0.815,1.137-2.087,1.828-2.858,3.011-0.125.479-1.372-.193-0.954,0.411,1.056-.139-0.434,1.777-0.687,2.283-1.719,2.837-3.791,5.448-5.351,8.382a6.884,6.884,0,0,0-1.422,2.781c-0.472.935-1.8,0.763-1.759,2.007,0.078,0.454.456-.68,0.585-0.876,1.111,0.8-.593,2.4-0.552,3.523a21.152,21.152,0,0,1-1.507,3.758c-0.484,1.265-.712,2.61-1.285,3.849a19.956,19.956,0,0,1-1.166,3.282,8.031,8.031,0,0,1-.564,2.819c-0.229,1.089-.617,2.14-0.749,3.255-0.055,1.3-.694,2.38-0.743,3.622,0,1.3-.249,2.56-0.37,3.891-0.275,1.089.16,2.216-.429,3.252,0.172,2.39-.035,4.793-0.018,7.19a13.979,13.979,0,0,0,.352,4.594,25.326,25.326,0,0,0,.025,3.537c0.149,1.266.5,2.5,0.558,3.777,0.353,1.256.488,2.551,0.855,3.8a18.884,18.884,0,0,0,1.049,3.678c-0.341.957,0.439,1.766,0.536,2.653l1.045-13.181a27.359,27.359,0,0,1-.792-4.3c-0.271-2.279-.045-4.593-0.421-6.859,0.125-1.3.234-2.533,0.473-3.83,0.436-2.235.306-4.541,0.933-6.743-0.069-.691.771-1.79,0.777-0.539a24.133,24.133,0,0,0-.6,3.365c0.126,1.343-.525,2.677-0.1,3.994,0.021,1.227-.427,2.4-0.3,3.646a39.518,39.518,0,0,0,.095,4.7c0.139,0.749.208,1.517,0.277,2.286l1.973-24.9c-0.323.877-.362,2.019-0.95,2.586-0.292-1.044.563-2.418,0.641-3.619,0.153-.647.348-1.282,0.542-1.919l0.318-4a2.517,2.517,0,0,1,.479-1.289l2.081-2.828a18.856,18.856,0,0,0,.653-1.776,8.628,8.628,0,0,0,.54-1.007,53.981,53.981,0,0,1,5.868-15.2C198.415,13.194,210.5,3.861,224.823,0H275.46c1.659,0.264,3.3.561,4.906,0.925A17.8,17.8,0,0,0,277.911,0h2.149a15.144,15.144,0,0,1,3.4,1.394c0.636,0.258,1.275.537,1.9,0.836,1.768,0.546,3.507,1.144,5.191,1.827,1.5,0.167,2.993.273,4.482,0.342-1-.58-1.947-1.272-2.982-1.809A9.144,9.144,0,0,0,288.725.628Zm48.318,67.639,0-.131-0.03-.11C336.371,67.652,336.724,69.406,337.043,68.267ZM171.27,75.784C170.4,76.091,171.914,76.447,171.27,75.784Zm0.583,1.774C171.212,77.138,172.031,78.742,171.853,77.558Zm0.246,4.265C171.57,81.829,172.257,82.509,172.1,81.822Zm0.355-19.568C171.775,62.777,172.791,62.338,172.454,62.254Zm41.228-60.64c0.09-.541.878-0.069,0.754-0.7C213.987,0.688,212.554,1.223,213.682,1.613Zm-5.539,3.081c-0.81-.089-0.835.993-1.215,1.339A4.381,4.381,0,0,0,208.143,4.694Zm-3.776,3.061C203.689,8.279,204.7,7.84,204.367,7.755ZM191.522,20.832c0.177-.222.678-0.292,0.607-0.652C191.565,20.112,190.306,21.754,191.522,20.832Zm-1.24,1.677a0.346,0.346,0,0,0,.121-0.375C189.849,21.993,189.484,23.183,190.282,22.509Zm-5.939,8.047C183.664,31.081,184.679,30.642,184.343,30.557Zm-3.711,6.315c0.194-.017.812-0.156,0.592-0.466C180.573,36.245,179.239,36.993,180.632,36.871ZM179.4,40.1C178.42,40.132,180.2,40.811,179.4,40.1Zm-1.854,4.013-0.179-.04C176.15,43.766,178.328,45.363,177.549,44.117Zm-0.3,2.337C176.4,46.285,177.445,47.249,177.251,46.454Zm-1.735,3.1c-0.663.24-.268,2.377-0.071,0.862C175.356,49.859,176.758,48.847,175.516,49.556Zm-0.448,4.4C174.539,53.962,175.227,54.643,175.068,53.956Zm0.273-2.036c0.053-.1.344-0.3,0.208-0.433C174.8,51.318,174.474,52.71,175.341,51.92Zm-0.706-1.327C173.933,50.335,174.527,51.541,174.635,50.593ZM173.3,93.422C172.621,93.945,173.637,93.507,173.3,93.422Zm1.014,2.718C173.225,96.23,174.631,96.9,174.314,96.139Zm1.957,6.16C175.721,102.171,176.385,103.225,176.271,102.3Zm1.02,4.586C176.435,106.716,177.485,107.68,177.291,106.885Zm121.385-92.9a2.335,2.335,0,0,1,.365.416c1.542,1,2.812,2.363,4.3,3.44a1.343,1.343,0,0,1,.55.186A52.787,52.787,0,0,0,298.676,13.983Zm3.588,5.231a0.292,0.292,0,0,0,.321.1C302.711,18.838,301.69,18.534,302.264,19.214Zm1.434,1.052c0.189,0.151.246,0.58,0.556,0.516C304.317,20.3,302.914,19.229,303.7,20.266Zm1.133-11.081C303.946,9.107,305.314,9.787,304.831,9.185Zm0.313,9.993a3.442,3.442,0,0,0,1.022,1.022,10.433,10.433,0,0,0,.823.707c-0.025-.033-0.047-0.067-0.072-0.1C306.352,20.234,305.732,19.724,305.144,19.178Zm27.8,75.832c0.234-1.117.706-2.135,0.937-3.254,0.887-1.458.468-3.248,0.993-4.8,0.009-1.575.435-3.117,0.383-4.7,0.009-1.05.305-2.057,0.359-3.1-0.06-.017-0.125-0.01-0.184-0.031a82.053,82.053,0,0,1-2.5,15.395C332.934,94.682,332.936,94.848,332.943,95.01ZM331.589,71.7l-0.311-.781c0.006,0.392-.006.785-0.006,1.178A2.559,2.559,0,0,1,331.589,71.7Zm-3.081-23.841a12.487,12.487,0,0,0,1.179,3.3c0.612,1.312.382,2.8,0.76,4.166L335.7,68.507c-0.024-.548.023-1.1-0.029-1.646a8.66,8.66,0,0,0-.345-3.7c-0.048-1.093-.274-2.155-0.282-3.258-0.287-1.029-.443-2.085-0.764-3.088-0.455-1.6-.422-3.3-0.836-4.9-0.352-1.176-.523-2.412-0.948-3.561a11.735,11.735,0,0,1-1.413-3.084c-0.348-1.156-1.02-2.18-1.256-3.35-0.582-1.286-1.34-2.5-1.781-3.8-0.619-1.013-.869-2.215-1.576-3.191a6.2,6.2,0,0,0-1.776-3.153c-1.061-1.186-1.988-2.479-2.934-3.751-0.755-.8-0.687-2.1-1.622-2.633a24.74,24.74,0,0,1-2.554-2.977c-0.245-.789-1.513-0.569-1.8-1.535-0.719-.808-1.772-1.748-1.578-2.782,0.384-.419.673-0.731,0.049-0.207-1.317,1-1.78-1.364-2.818-1.812a10.431,10.431,0,0,1-2.736-2.231c-0.783-1.064-2.081-1.4-2.985-2.318-0.017-.022-0.04-0.031-0.057-0.053q2.687,3.034,5.106,6.125a61.027,61.027,0,0,1,10.805,15.44l1.464,3.676a5.877,5.877,0,0,1,.843,1.534,19.6,19.6,0,0,1,1.876,2.953c0.478,1.281,1.441,2.4,1.614,3.773C328.067,45.853,327.951,46.934,328.508,47.854Zm-20.347,87.485a2.436,2.436,0,0,1,.067.365,117.251,117.251,0,0,0,8.329-8.68l0.116-.155h0a25.248,25.248,0,0,1,2.375-3.249c0.835-1.03,1.411-2.238,2.3-3.231a38.172,38.172,0,0,1,2.3-3.081,16.083,16.083,0,0,0,2.236-4.122,11.6,11.6,0,0,0,1.083-1.858l-1.913,1.934a67.343,67.343,0,0,1-10.026,12.787,70.607,70.607,0,0,1-9.135,7.635A2.451,2.451,0,0,1,308.161,135.339ZM293.969,146.1a33.771,33.771,0,0,0,3.722-2,34.477,34.477,0,0,1,3.114-2.309c0.954-.708,1.861-1.475,2.773-2.236l-6.434,2.229q-2.809,2.87-5.573,5.678A6.59,6.59,0,0,0,293.969,146.1Zm-17.025,5.554,0.357,0.722,1.278,0.245,1.312-.407c2.049-2.054,4.157-4.183,6.295-6.351-0.249.091-.5,0.19-0.749,0.267a7.124,7.124,0,0,1-1.124.5,87.55,87.55,0,0,1-8.249,4.069A2.422,2.422,0,0,1,276.944,151.651Zm-10.477,4.4c0.294-.078.587-0.158,0.881-0.241-0.792.007-1.579-.035-2.369-0.06C265.074,156.308,266.072,155.67,266.467,156.048Zm-10.857.479c1.04-1.187,2.5.023,3.847-.253,1.229-.113,2.459-0.536,3.716-0.185a1.291,1.291,0,0,0,1.615-.353c-1.537-.053-3.076-0.095-4.6-0.26a62.094,62.094,0,0,1-6.433.81A8.974,8.974,0,0,1,255.61,156.527Zm5.768-7.606q-0.865.065-1.735,0.115l0.625,0.27Zm-22.926,1.163c0.791,0.156,1.582.317,2.377,0.46q-3.845-1.517-7.594-3.376c-1.383-.276-2.756-0.589-4.128-0.921A37.768,37.768,0,0,0,238.452,150.084ZM206.519,142.2C205.991,142.209,206.678,142.89,206.519,142.2Zm-6.287-5.311C199.554,137.416,200.569,136.977,200.232,136.892Zm-12.716-13.038C186.428,123.946,187.833,124.612,187.516,123.854Zm-1.964-2.69,0.076-.154,0.046-.143C185.51,120.219,184.727,122.38,185.552,121.164Zm-0.695-1.879C183.2,118.662,185.285,120.353,184.857,119.285Zm-1.272-.959-0.053-.022-0.146.022C182.367,118.587,183.247,119.091,183.585,118.326Zm-0.508-.508-0.054-.022-0.145.022C181.859,118.079,182.738,118.582,183.077,117.818Zm-0.643-.957c0.221,0,.746-0.083.583-0.433C182.314,116.019,180.936,116.959,182.434,116.861Zm-3.694-8.132a0.4,0.4,0,0,0,0-.394C178.09,108.152,178.251,109.843,178.74,108.729ZM181.449,96.1l-0.159,2.015c0.158,0.77.324,1.538,0.508,2.3,0.678,0.676,1.358,1.354,2.067,2.059A67.418,67.418,0,0,1,181.449,96.1ZM187.7,64.3c0,0.013,0,.025-0.008.038-0.291.979-.251,1.844-0.467,2.758a26.129,26.129,0,0,0-.379,3.181,25.776,25.776,0,0,1-.125,3.2c0,0.031,0,.063-0.009.094,0.2,2.568.462,5.147,0.844,7.723A88.39,88.39,0,0,0,187.7,64.3Zm-2.233,46.766a17.784,17.784,0,0,0,1.376,2.474c0.2,0.315.375,0.652,0.547,0.992-0.133-.658-0.281-1.309-0.387-1.979C186.484,112.046,185.982,111.556,185.471,111.062Zm1.316,4.09a14.676,14.676,0,0,1-1.623-3.139,10.154,10.154,0,0,1-1.35-2.562c-2.274-2.224-4.4-4.341-6.373-6.312a2.627,2.627,0,0,0,.419.959c0.3,1.3,1.283,2.322,1.327,3.7,0.182,0.957.944,1.753,1.093,2.582,1.009,0.276.113,1.687,0.728,2.031,0.551,0.791,1,1.96,1.707,2.8,0.28,0.758,1.532,1.517,1.142,2.257,0.869,0.289-.1,1.272,1.064,1.24a3.073,3.073,0,0,1,1.213,2.707c0.958-.568,1.17,1.167.306,1.507,0.448-.164,1.967-0.2,2.141.864,0.787,1.178,2.169,1.736,2.881,2.944,1.424,1.7,3.091,3.165,4.448,4.921,0.65,1.17,2.123,1.487,2.593,2.735,0.824,0.412,1.635,1.408,2.169,1.677-0.71,1.02.788,0.1,1.161,0.882,1.436,1.068,3.064,2.086,3.923,3.709,1.12-.123-0.494.689,0.428,0.7,1.654,0.027,2.918,1.23,4.035,2.3a8.293,8.293,0,0,1,3.234,1.56c0.986,0.584,2.183.876,2.722,1.866,0.847-.208.715,0.541,1.578,0.227,1.247,0.771,2.308,2.026,3.826,2.267a13.258,13.258,0,0,1,3.337.951c1.288,0.651,2.791.741,4.05,1.484,0.154,0.033.312,0.063,0.468,0.095a41.861,41.861,0,0,1-9.963-6.723c-0.294-.157-0.593-0.305-0.882-0.465-0.6-.283-2.032-1.332-0.528-0.852-0.066-.066-0.136-0.123-0.2-0.189a2.381,2.381,0,0,1-.623-1.241c-0.709-.264-1.413-0.542-2.116-0.822a2.466,2.466,0,0,1-2.573-.56c-0.288-.287-0.551-0.567-0.835-0.855-0.817-.36-1.613-0.767-2.421-1.147,0.155,0.3.878,0.868,0.214,0.736a18.177,18.177,0,0,1-2.438-1.79c-2-1-3.967-2.043-5.888-3.185-7.251-4.31-11.111-10.491-13.08-17.55A22.018,22.018,0,0,1,186.787,115.152Zm20.969,5.941c-0.537-.7-1.286-1.362-1.819-2.124a4.322,4.322,0,0,0-2.267-2.185,26.516,26.516,0,0,1-1.843-2.409,19.494,19.494,0,0,1-2.485-3.53c-0.706-.933-1.1-2.051-1.719-3.049-0.469-1.034-1.312-1.8-1.62-2.9a28.881,28.881,0,0,0-.927-2.9c-0.517-.9-0.659-1.968-1.225-2.834a7.7,7.7,0,0,0-1.042-3.15,7.543,7.543,0,0,1-1-2.833c-0.053-.189-0.114-0.376-0.17-0.563-0.122,1.727-.236,3.452-0.306,5.157,3.007,9.373,7.182,17.218,12.255,23.1,3.373,2.883,6.906,5.74,10.572,8.486l8.349,3.612A9.515,9.515,0,0,1,220,131.422c-2.852-2.123-5.7-4.254-8.379-6.6a36.792,36.792,0,0,1-3.814-3.6l-0.051-.133h0Zm-16.072-62.73c0.07-.237.122-0.48,0.2-0.716,0.755-1.514.655-3.318,1.57-4.766,0.2-.964.709-1.779,0.846-2.755a14.911,14.911,0,0,1,1.081-2.611,6.311,6.311,0,0,1,.479-1.383,89.2,89.2,0,0,0-5.425,8.746A24.344,24.344,0,0,1,191.684,58.363Zm2.951,62.381a22.715,22.715,0,0,0,6.446,8.127Q197.574,124.743,194.635,120.744Zm18.979,14.426q0.5,0.515,1.006,1.031c0.327,0.139.661,0.258,0.988,0.392Q214.6,135.89,213.614,135.17Zm-19.6-105.131c-0.031.052-.058,0.111-0.089,0.164l7.315-9.943A65.533,65.533,0,0,0,194.018,30.039Zm-5.1,17.721c1.481-2.384,3.134-4.757,4.87-7.127a0.923,0.923,0,0,1,.519-0.682c0.109-.146.225-0.293,0.335-0.44a2.213,2.213,0,0,1,.974-1.591c0.665-.589.013-1.594,0.964-2.136a5.011,5.011,0,0,1,1.684-2.092c-0.412-.917,1.332-1.088,1.374-1.9,0.324-.551,1.2-0.379,1.392-1.189a5.779,5.779,0,0,1,1.7-2.1c0.5-.61,1.446-0.732,1.343-1.478A63.707,63.707,0,0,0,188.917,47.76Zm14.622-19.15,0.044-.049C203.523,28.516,203.506,28.536,203.539,28.609ZM225.526,4.886a49.371,49.371,0,0,0-20.672,11.674l3.651-1.472a14.587,14.587,0,0,1,3.321-2.184c0.642,0.316-1.106.878-1.387,1.32-0.058.048-.11,0.1-0.167,0.151l5.758-2.322c2.173-1.274,4.427-2.444,6.724-3.552,1.049-1.045,2.113-2.1,3.178-3.159A16.33,16.33,0,0,0,222.973,6.8a13.716,13.716,0,0,1-2.805,1.1C221.8,6.646,223.768,5.945,225.526,4.886Zm9.635-1.722-0.583.579c0.747-.245,1.493-0.491,2.247-0.718C236.276,3.057,235.716,3.116,235.161,3.165Zm3.816,4.985L224.125,14.14c-1.535,1.536-3.029,3.048-4.509,4.553a28.33,28.33,0,0,1,2.936-1.716,12.97,12.97,0,0,1,2.716-1.42A6.244,6.244,0,0,1,228,14.269a32.024,32.024,0,0,1,3.63-1.422c0.962-.366,1.843-0.751,2.864-1.053a31.178,31.178,0,0,1,3.912-1.232c1.056-.186,2.121-0.587,3.195-0.807a22.061,22.061,0,0,1,5.33-1.006,14.546,14.546,0,0,0,1.478-.31C245.34,8.251,242.213,8.134,238.977,8.149Zm11.238,0.845c-1.115.359-2.294,0.347-3.426,0.6a11.339,11.339,0,0,1-2.935.714,28.034,28.034,0,0,1-3.005.621c-0.983.464-2.06,0.565-3.038,1.056-1.485.276-2.929,0.738-4.416,1.013a13.01,13.01,0,0,0-3.022,1.1,9.607,9.607,0,0,0-2.662,1.123,10.881,10.881,0,0,0-3.769,1.79,15.667,15.667,0,0,0-2.7,1.643c-1.006.83-2.1,1.557-3.085,2.421a29.386,29.386,0,0,1-2.877,2.087,207.145,207.145,0,0,0-17.8,20.68c-0.018.074-.031,0.137-0.065,0.242a6.674,6.674,0,0,1-1.051,2.96,32.689,32.689,0,0,0-1.423,4.028,20.339,20.339,0,0,0-1.173,3.429,26.39,26.39,0,0,1-.889,3.113c-0.218,1.047-.419,2.1-0.64,3.145,1.431,7.234.72,15.949-.058,25q-0.195,2.27-.37,4.543a31.189,31.189,0,0,0,2.038,6.291c0.809,2.425,2.146,4.618,3.125,6.966,1.019,2.327,2.36,4.493,3.556,6.729a55.073,55.073,0,0,0,4.8,6.406,85.2,85.2,0,0,0,8.233,8.234c1.468,0.938,2.745,2.146,4.166,3.159a21.544,21.544,0,0,0,4.47,3.034,48.458,48.458,0,0,0,4.7,3.063c1.81,0.945,3.746,1.632,5.569,2.557,2.657,1.239,5.531,1.929,8.28,2.924,0.686,0.905-1.212.415-1.647,0.205a5.174,5.174,0,0,0-1.332-.3l9.911,4.288a94.569,94.569,0,0,0,37.887-5.174,16.118,16.118,0,0,1,2.129-.977c0.877-.54,1.913-0.766,2.759-1.381a5.462,5.462,0,0,0,2.728-1.552c1.03-.921,2.151-1.729,3.254-2.552a2.313,2.313,0,0,1,.644-0.409c1.751-1.5,3.451-3.058,5.078-4.683,13.861-13.849,22.235-31,23.862-48.678a62.606,62.606,0,0,0-1.126-6.762c0.014,0.2.009,0.41,0.035,0.611a6.859,6.859,0,0,1-.077,2.765,1.039,1.039,0,0,1-.3-1.026h0c0.039-1.5-.095-3-0.168-4.5-0.514-2.014-1.088-3.961-1.732-5.782a74.42,74.42,0,0,0-3.111-7.43,11.092,11.092,0,0,1,.49,2.327c0.343,0.954-.077,2.1.648,2.864,0.015,1.137.333,2.264,0.45,3.414,0.181,1.448.182,2.915,0.273,4.372,0.152,3.661-.075,7.328-0.284,10.986a9.551,9.551,0,0,0-.329,2.979,20.279,20.279,0,0,1-.5,3.11c0.091,0.92-.512,1.869-0.673,2.8a22.454,22.454,0,0,0-.891,2.936c-0.335,1.1-.858,2.12-1.136,3.237-0.557.967-.668,2.089-1.255,3.019-0.077,1.09-1.031,1.825-1.221,2.847a34.526,34.526,0,0,1-2.013,4.447,9.746,9.746,0,0,0-.892,1.851,26.555,26.555,0,0,0-2.148,2.789,8.123,8.123,0,0,1-1.712,2.284c-0.871,1.333-2.057,2.435-3,3.721-0.033,1.186-1.517,1.487-2.054,2.449a11.948,11.948,0,0,1-2.111,2.21c-0.6-.163-0.06.79-0.776,0.885-1.113.883-2.128,1.894-3.31,2.682-0.39.952-1.569,1.217-2.27,1.965a24.775,24.775,0,0,0-2.462,1.76A9.279,9.279,0,0,0,289.649,130c-0.947.7-2.147,0.863-3.1,1.532a16.318,16.318,0,0,0-2.46,1.192,19.091,19.091,0,0,0-3.03,1.557,9.946,9.946,0,0,0-2.736,1.032c-1.532.786-3.313,0.857-4.828,1.677a15.372,15.372,0,0,0-3.047.623,6.549,6.549,0,0,1-2.654.574,35.39,35.39,0,0,1-4.94,1.094c-1.054-.215-2.087.758-3.023,0.116-0.68-.458-1.314.88-2.157,0.329-1.079-.078-2.152.3-3.241,0.121-1.051.022-2.065-.369-3.075-0.442a16.62,16.62,0,0,1-3.409-.109c-1.1-.16-2.14-0.418-3.24-0.479a23.979,23.979,0,0,0-3.429-.847c-2.049-.566-4.091-1.167-6.111-1.822-1.321-.424-2.552-1.083-3.885-1.462-1.042-.1-1.738-0.981-2.674-1.388-1.048-.857-2.371-1.266-3.5-2.012-1.4-.779-2.713-1.708-4.158-2.4a25.565,25.565,0,0,1-2.64-1.778c-2.113-1.668-4.045-3.549-6.107-5.275-1.04-.36-1.343-1.459-2.221-2.016a24.306,24.306,0,0,1-2.767-2.772h0c-0.458-.859-1.385-1.321-1.693-2.315-0.809-.951-1.211-2.182-1.99-3.17a29.925,29.925,0,0,0-2-2.661c-0.556-1.119-1.662-1.854-2.08-3.058a19.98,19.98,0,0,1-2.515-4.817,23.772,23.772,0,0,1-1.334-3.912c-0.577-1.532-.427-3.287-1.245-4.725,0.047-.96-0.291-1.9-0.263-2.889-0.07-1.351-.763-2.612-0.556-3.986-0.25-1.239-.119-2.544-0.333-3.8a37.369,37.369,0,0,0-.15-4.577,17.987,17.987,0,0,1,.147-3.257c-0.05-1.05.274-2.064,0.311-3.1a30.409,30.409,0,0,1,.351-4.437c-0.051-1.13.455-2.2,0.516-3.328a14.035,14.035,0,0,0,.462-2.706c0.373-.975.466-2,0.8-2.978a23.561,23.561,0,0,1,1.494-4.48,22.51,22.51,0,0,1,.794-2.54c0.436-.919.854-1.822,1.253-2.772a42.152,42.152,0,0,0,2.218-4.808c0.595-.76.754-1.755,1.373-2.509,0.673-.948,1.274-1.946,1.871-2.917,0.55-.489.607-1.214,1.334-1.419a23.255,23.255,0,0,1,2.826-3.56c1.465-1.132,2.72-2.531,4.291-3.522,0.9-.674,1.524-1.73,2.587-2.155,0.65,0.312-.869,1.12-1.116,1.52-2.471,2.135-4.654,4.575-6.97,6.868-0.843-.126-0.508,1.154-1.206,1.622-0.94,1.345-2.216,2.48-2.812,4.037-0.777.651-.938,1.735-1.592,2.434-0.7.952-.612,2.281-1.329,3.246a15.778,15.778,0,0,1-1.117,2.571c0.026,1.325-.78,2.493-1.152,3.738a23.876,23.876,0,0,1-1.261,3.1,19.3,19.3,0,0,0-.463,2.731c0.118,0.688-.705.821-0.19,1.36a24.08,24.08,0,0,0-.375,2.92c-0.539.973-.346,2.142-0.823,3.121a11.539,11.539,0,0,1-.481,3.237c-0.033,1.057-.173,2.118-0.257,3.127,0.231,0.924-.223,1.882-0.154,2.832,0.155,0.832-.538,1.938.285,2.433a3.448,3.448,0,0,0-.319,2.73c-0.009.934,0.353,1.851,0.279,2.806,0.011,1.258.329,2.484,0.316,3.748a16.464,16.464,0,0,0,.624,3.841c0.118,1.2.639,2.3,0.794,3.5,0.226,1.2.724,2.316,0.919,3.52a9.687,9.687,0,0,0,1.781,3.033c0.514,0.881.588,2.194,1.241,2.831,0.907,0.066.35,1.541,1.1,2.038a14.654,14.654,0,0,0,1.5,2.732,30.419,30.419,0,0,0,2.586,4.193,24.1,24.1,0,0,0,3.572,4.5l1.56,1.558c1.709,1.995,1.506,2.054,2.589,2.721,0.8,0.414,1.466,1.206,2.356,1.668a16.325,16.325,0,0,1,2.908,2.192,16.47,16.47,0,0,1,2.272,1.615c0.882,0.541,1.7,1.127,2.539,1.724,0.735,0.918,1.948,1.02,2.755,1.8,0.383,0.342,1.128.69,0.4,0.08,0.78-.112,1.356,1.143,2.3,1.081,0.375,0.513.817,1.017,1.373,0.54,0.934,0.454,1.809.97,2.8,1.361,1.029,0.3,1.854.937,2.808,1.212,1.187-.145,2.04.752,3.108,1.042,0.889,0.644,1.984.154,2.779,0.884,0.869-.31,1.795.6,2.83,0.426,1.192-.057,2.252.572,3.454,0.479a15.05,15.05,0,0,0,2.978.553,12.987,12.987,0,0,0,3.237-.017c1.026-.179,2.087.374,3.134,0.181a24.687,24.687,0,0,1,4.615.139,10.408,10.408,0,0,1,2.829-.5,11.931,11.931,0,0,0,3.18-.491,11.575,11.575,0,0,0,2.97-.659c1.068-.149,2.044-0.707,3.136-0.755a36.3,36.3,0,0,0,4.832-1.6c1.647-.806,3.4-1.362,5-2.278,1.067-.478,2.006-1.271,3.2-1.4a14.346,14.346,0,0,0,2.7-1.444,35.688,35.688,0,0,0,5.571-3.913,80.074,80.074,0,0,0,9.344-9.319c1.925-2.305,3.506-4.868,5.454-7.156,0.615-.741.691-1.7,1.651-2.13,0.153-1.018,1.153-1.712,1.324-2.842,0.394-1.3,1.274-2.409,1.631-3.725-0.127-.575-0.69-0.834.119-0.493,0.8-.464.753-1.771,1.233-2.555a12.055,12.055,0,0,0,1.3-2.8,12.613,12.613,0,0,1,1.145-3c0.376-1.24.646-2.512,0.965-3.767,0.381-1.681.327-3.413,0.729-5.091,0.105-1.947.5-3.878,0.618-5.828a32.423,32.423,0,0,0-.142-7.415,35.182,35.182,0,0,0-.674-5.559,2.6,2.6,0,0,0,0-2.478c-0.251-1.349-.6-2.679-0.851-4.028a11.061,11.061,0,0,0-.843-3.06A99.2,99.2,0,0,0,288.12,19.9c-1.019-.434-1.909-1.131-2.944-1.555a39.766,39.766,0,0,0-4.222-1.935c-0.861-.488-1.843-0.611-2.729-1.039a13.337,13.337,0,0,1-2.7-.753c-1.177-.378-2.418-0.548-3.567-0.925a8.929,8.929,0,0,0-3.046-.61c-0.514-.279-2.039-0.2-1.906-0.97h0c0.831-.1,1.66.524,2.549,0.382,1.386,0.394,2.927.269,4.21,1,0.972,0.3,1.962.473,2.964,0.678a25.708,25.708,0,0,1,2.967,1.069c0.725,0.561,1.807.372,2.582,0.9,0.424,0.272.883,0.488,1.322,0.735-0.542-.347-1.06-0.739-1.609-1.074a98.145,98.145,0,0,0-29.654-7.078C251.626,8.8,250.914,8.87,250.215,8.994ZM275.29,6.335c-0.065-.015-0.128-0.026-0.192-0.041-0.065.075-.061,0.177,0.225,0.109A0.111,0.111,0,0,0,275.29,6.335Zm1.934,0.415a0.158,0.158,0,0,0,.2.044Zm4.538,1.466C281.914,7.479,281.076,8.39,281.762,8.216Zm1.942-.2c-0.248.165-.679,0.9,0.067,0.435l0.035-.153a0.681,0.681,0,0,0,.033-0.26Zm-1.3.99c-1.084-.406-2.24-0.59-3.3-1.073a16.906,16.906,0,0,1-2.815-.975c-0.1-.01-0.2-0.021-0.3-0.03,2.708,1.314,5.39,2.709,8,4.286A74.251,74.251,0,0,1,307.6,26.966a75.689,75.689,0,0,1,13.668,18.815l-0.73-1.834a92.34,92.34,0,0,0-6.611-13,22.551,22.551,0,0,0-1.366-1.809,6.061,6.061,0,0,0-2.121-2.261c-2.066-1.944-3.962-4.119-6.405-5.617-0.972-.691-1.556-1.778-2.569-2.431-0.41-.1.179-1.18-0.345-0.815,0.11,0.9-1.526-.358-1.959-0.572-2.428-1.453-4.658-3.211-7.17-4.528a5.8,5.8,0,0,0-2.383-1.2c-0.8-.4-0.641-1.538-1.713-1.495-0.391.071,0.582,0.386,0.75,0.5-0.694.961-2.057-.489-3.028-0.446A17.812,17.812,0,0,1,282.4,9.008Zm12.986,5.17C294.941,13.6,295.31,14.468,295.386,14.178Zm-5.4-3.135c0.013,0.166.127,0.7,0.4,0.5C290.521,10.986,289.889,9.846,289.982,11.042Zm-2.773-1.029C287.193,9.168,286.6,10.7,287.209,10.014Zm7.363,2.425c-0.855-.706-1.97-0.785-2.46-1.895-1.183-.167-1.981-1.321-3.294-1.507a7.529,7.529,0,0,1-.808-0.309c-0.166-.023-0.333-0.06-0.5-0.082,0.11,0.334.235,0.664,0.687,0.552,0.189,0.5,1.231.522,1.183,0.752,0.174,0.459,1.231-.283,1.4.588,0.71,0.6,1.566,1.056,2.292,1.643,0.438-.523,1.207.25,1.6,0.464,0.059,0.6.906,1.579,0.825,0.527C295.189,12.928,294.873,12.694,294.572,12.439Zm-31.161-.377c-0.386-.118-1.829.014-1.557-0.667,0.945-.273,1.93.263,2.878,0.394,0.484,0.223,2.063.047,1.8,0.741C265.517,12.22,264.4,12.478,263.411,12.062Zm-9.238.182c-1.134-.281-2.277.207-3.435,0.117a16.629,16.629,0,0,1-3.545-.1c-1.031-.035-1.985.634-2.984,0.6-0.733.6-1.66,0.2-2.4,0.808-0.917.528-2.016,0.375-2.961,0.839-0.991.18-1.789,0.886-2.834,0.874-0.323.023-.85,0.369-0.429-0.227,0.763-.824,2.088-0.767,3.07-1.264,1.679-.635,3.465-0.846,5.152-1.45a28,28,0,0,1,4.572-.936c1.156-.5,2.443-0.315,3.659-0.546a37.968,37.968,0,0,1,7.517,0c0.474,0.2,1.694-.036,1.759.438a33.458,33.458,0,0,1-3.405.479A8.638,8.638,0,0,0,254.173,12.245ZM235.59,15.16h0Zm7.316,62.573a16.618,16.618,0,0,0-6.632,4.046,9.292,9.292,0,0,0-2.987,7.336A11.974,11.974,0,0,0,237.2,96.9q3.84,3.836,7.428,4.3A7.639,7.639,0,0,0,251.2,98.68a22.58,22.58,0,0,0,2.837-3.479l-4.92-4.916-4.443,4.439-4.161-4.158,9.3-9.294,12.227,12.217a36.939,36.939,0,0,1-3.218,5.294,38.871,38.871,0,0,1-3.784,4.376q-5.309,5.305-11.245,4.966t-11.809-6.2q-5.709-5.7-5.656-12.141t5.813-12.189a24.529,24.529,0,0,1,8.412-5.5ZM229.78,18c-1.014.468-1.963,0.982-2.979,1.441A14.07,14.07,0,0,1,224.077,21a44.616,44.616,0,0,1-4.586,3.106c-0.222.644-1.946,1.02-.753,0.063a40.082,40.082,0,0,0,3.413-2.729c2.049-1.252,4.209-2.312,6.316-3.459a12.779,12.779,0,0,1,3.563-1.4C232.028,17.474,230.414,17.432,229.78,18ZM244.8,65.627l18.046,10.754a68.447,68.447,0,0,1,6.737,4.487,57.974,57.974,0,0,1-4.541-7.036L254.948,55.483,258,52.438,276.65,62.455a60.522,60.522,0,0,1,6.962,4.391,61.276,61.276,0,0,1-4.507-6.779L268.357,42.086l3.08-3.077,17.344,29.8L285.8,71.786,265.773,60.913a60.358,60.358,0,0,1-5.849-3.472,47.3,47.3,0,0,1,3.636,5.876l10.93,19.766-2.984,2.981L241.716,68.7Zm-28.51-39.333c-0.061-.654,1.4-1.4,1.463-0.936C217.554,26.3,216.883,26.081,216.285,26.294Zm21.87,111.735a0.393,0.393,0,0,1-.229-0.35C238.325,136.86,239.11,138.275,238.155,138.028Zm3.382,2.011a24.847,24.847,0,0,1,3.429.551,28.144,28.144,0,0,0,3.255.305,35.4,35.4,0,0,0,5.447.262c2.212-.024,4.429.068,6.636-0.159a13.558,13.558,0,0,0,3.386-.351,30.343,30.343,0,0,0,3.484-.52c1.172-.14,2.318-0.439,3.485-0.617,0.922-.294,1.951-0.289,2.906-0.593a24.437,24.437,0,0,1,3.42-.877c1.136-.429,2.289-0.795,3.391-1.327,1.205-.371,2.276-1.088,3.489-1.453,1.082-.527,2.051-1.273,3.166-1.753a28.424,28.424,0,0,0,4.031-2.467c1.552-.84,2.778-2.152,4.312-3.024a40.624,40.624,0,0,0,5.687-4.5c1.341-1.385,3.015-2.414,4.3-3.867,0.921-.816,1.639-1.836,2.569-2.64a14.178,14.178,0,0,1-1.446,2.423,7.982,7.982,0,0,1-2.714,2.6c-1.056.385-1.3,1.581-2.276,1.94-1.288,1.065-2.354,2.379-3.662,3.42-0.834.533-1.615,1.174-2.5,1.628a18.5,18.5,0,0,1-2.39,1.936,17.155,17.155,0,0,0-2.595,1.464,17.587,17.587,0,0,1-2.728,1.7,17.344,17.344,0,0,1-2.557,1.635c-1.107.422-2.077,1.258-3.261,1.418-0.768.609-1.7,0.519-2.493,1a10.977,10.977,0,0,0-2.85,1.041c-1.309.619-2.818,0.23-4.134,0.851a18.006,18.006,0,0,0-2.9.631,21.616,21.616,0,0,1-3.493.682c-1.2.356-2.485,0.235-3.679,0.638a16.157,16.157,0,0,1-3.913-.035,17.7,17.7,0,0,1-3.3.032,24.475,24.475,0,0,1-4.089-.046c-1-.3-2.066-0.143-3.087-0.385-1.537-.308-3.094-0.51-4.641-0.753-0.332-.181-1.959-0.268-1.685-0.8h0ZM313.1,109.231c0.761-.88.34,1.132-0.072,0.239l0.02-.12Zm2.646-4.561c0.528-.867,1.089-1.71,1.556-2.616a20.679,20.679,0,0,0,1.538-2.65c0.589-1.772,1.613-3.372,2.11-5.178a44.317,44.317,0,0,0,1.529-4.781c0.673-1.129.572,0.8,0.242,1.209a20.287,20.287,0,0,1-1.69,5.194c-0.53,1.054-.644,2.292-1.358,3.252a22.276,22.276,0,0,1-1.383,2.875,27.991,27.991,0,0,0-1.751,3.155,24.628,24.628,0,0,1-2.3,3.162c-0.123.14-.584,0.287-0.356-0.084A24.025,24.025,0,0,0,315.741,104.67Zm7.093-16.461,0.02-.143,0.026-.148c-0.016-.639.8-1.365,0.445-0.271C323.337,88.143,322.708,89.406,322.834,88.209Zm0.912-2.17c-0.09.292-.327,0.655-0.27,0.06C323.309,85.37,324.053,85.276,323.746,86.039Zm0.718-3.976c-0.055.459-.544,0.249-0.449-0.129C324.074,81.136,324.894,81.315,324.464,82.063Zm-0.085-1.309a1.649,1.649,0,0,1,.021-0.765c-0.03-.443.3-2.053,0.565-0.944C324.907,79.513,325.01,81.018,324.379,80.754Zm0.271-2.867a5.153,5.153,0,0,1,.016-1.11c-0.061-.639.387-1.63,0.375-0.444C325.031,76.711,325.18,78.263,324.65,77.887ZM222.449,6.124C222.059,5.663,223.2,6.173,222.449,6.124ZM215.121,10.9c-0.318.15-1.777,1.349-1.368,0.473,0.659-.216,1.693-1.471,2.142-1.059A1.3,1.3,0,0,1,215.121,10.9ZM211.194,141.02l-0.179-.065h0C210.107,140.376,211.483,140.564,211.194,141.02Zm5.266,2.858C215.516,143.04,217.531,143.743,216.46,143.878Z"/>
</svg>
