<svg id="Logo" data-name="Logo" xmlns="http://www.w3.org/2000/svg" width="96" height="40" viewBox="0 0 96 40">
  <defs>
    <style>
      .cls-1, .cls-2 {
        fill-rule: evenodd;
      }
      .cls-2 {
        fill: #c81919;
      }
    </style>
  </defs>
  <path id="Title" class="cls-1" d="M467.1,78.588h-1.224l-1.44,5.656a16.928,16.928,0,0,0-.453,2.222,16.835,16.835,0,0,0-.509-2.234l-1.715-5.643h-1.211l-1.644,5.6a15.929,15.929,0,0,0-.5,2.279,18.734,18.734,0,0,0-.447-2.209l-1.446-5.669h-1.224l2.466,9.28h1.186l1.759-6.043a12.99,12.99,0,0,0,.446-1.873,16.653,16.653,0,0,0,.472,1.834l1.816,6.081h1.186Zm8.353,1.12a4.006,4.006,0,0,0-3.155-1.266,4.079,4.079,0,0,0-3.2,1.247,6.1,6.1,0,0,0,.006,7.052A4.056,4.056,0,0,0,472.28,88a4.008,4.008,0,0,0,3.164-1.276A6,6,0,0,0,475.448,79.709Zm-5.456.717a2.8,2.8,0,0,1,2.3-.955,2.763,2.763,0,0,1,2.269.943,5.486,5.486,0,0,1-.007,5.621,3.195,3.195,0,0,1-4.563-.013,4.357,4.357,0,0,1-.784-2.806A4.3,4.3,0,0,1,469.992,80.426Zm9.665-.828h1.332a2.859,2.859,0,0,1,1.714.4,1.5,1.5,0,0,1,.529,1.279,1.637,1.637,0,0,1-.522,1.32,2.535,2.535,0,0,1-1.658.444h-1.4V79.6Zm1.854,4.437,2.257,3.834h1.37l-2.556-4.158a2.459,2.459,0,0,0,1.868-2.488,2.368,2.368,0,0,0-.832-1.977,4.117,4.117,0,0,0-2.566-.657h-2.568v9.28h1.173V84.035h1.854Zm10.251,3.834V86.828h-4.073V78.588h-1.172v9.28h5.245Zm8.036-8.09a4.624,4.624,0,0,0-3.385-1.19h-2.868v9.28h2.594a4.991,4.991,0,0,0,3.611-1.216,4.661,4.661,0,0,0,1.259-3.513A4.5,4.5,0,0,0,499.8,79.779Zm-3.812,7.087h-1.268V79.585h1.53a3.516,3.516,0,0,1,2.648.911,3.725,3.725,0,0,1,.876,2.682q0,3.688-3.786,3.688h0Z" transform="translate(-405 -55)"/>
  <path id="Title-2" data-name="Title" class="cls-2" d="M459.556,68.745h2.037v2.234a7.387,7.387,0,0,1-1.448.147,2.485,2.485,0,0,1-2.085-.919,4.257,4.257,0,0,1-.717-2.662,3.826,3.826,0,0,1,.889-2.659A3.032,3.032,0,0,1,460.6,63.9a5.426,5.426,0,0,1,2.449.586l0.758-1.816a8.022,8.022,0,0,0-3.192-.659,5.668,5.668,0,0,0-4.129,1.45A5.382,5.382,0,0,0,455,67.5a5.908,5.908,0,0,0,1.283,4.091A4.745,4.745,0,0,0,460,73.015a12.782,12.782,0,0,0,1.872-.135,12.087,12.087,0,0,0,1.953-.472V66.856h-4.266v1.89Zm13.156,2.249H468.8V68.232h3.641v-1.86H468.8V64.021h3.913v-1.86H466.52V72.869h6.192V70.994Zm8.033,0h-3.913V68.232h3.64v-1.86h-3.64V64.021h3.913v-1.86h-6.193V72.869h6.193V70.994Zm6.709-4.094,3.75-4.739h-2.53l-2.912,3.64-0.9,1.26v-4.9h-2.28V72.869h2.28V69.045l0.963-.689,2.817,4.512h2.589Z" transform="translate(-405 -55)"/>
  <path id="Img" data-name="Img" class="cls-2" d="M444.88,74.793a1.172,1.172,0,0,1,.058.52c0.2,0.184-.187.5-0.012,0.663-0.024.272-.08,0.541-0.1,0.812a2.917,2.917,0,0,1,.091.868c-0.164.228,0.1,0.593-.178,0.741a2.982,2.982,0,0,0-.091.7c-0.088.306-.172,0.618-0.23,0.926-0.044.149-.177,0.225-0.018,0.335a0.8,0.8,0,0,1-.32.656,5.461,5.461,0,0,1-.171.742,1.273,1.273,0,0,1-.188.715,3.009,3.009,0,0,1-.26.757c-0.064.332-.27,0.621-0.352,0.947a4.084,4.084,0,0,0-.59.837,6,6,0,0,0-.476.64c-0.2.177-.271,0.468-0.467,0.642a6.544,6.544,0,0,1-.477.544,2.8,2.8,0,0,1-.641.625c-0.094.216-.193,0.628-0.541,0.488a2.015,2.015,0,0,1-.344.635c-0.135.133-.272,0.271-0.417,0.4l-0.108.249a0.594,0.594,0,0,1-.526.354,1.078,1.078,0,0,1-.21.22,5.547,5.547,0,0,1-.938.774c-0.281.119-.439,0.436-0.724,0.59a4.632,4.632,0,0,0-.706.465c-0.344.195-.641,0.47-1,0.642-0.474.249-.974,0.451-1.43,0.732a1.084,1.084,0,0,1-.177.054l0,0a0.6,0.6,0,0,1-.422.171h-0.2a0.673,0.673,0,0,0-.1.05c-0.305.161-.675,0.1-0.968,0.289-0.271.13-.547,0.226-0.826,0.33-0.39.222-.856,0.26-1.249,0.475-0.314.125-.667,0.059-0.976,0.2a5.867,5.867,0,0,1-.883.152c-0.679.053-1.364,0.075-2.036,0.193-0.362.029-.727,0.047-1.088,0.081-0.072,0-.145-0.011-0.217-0.02h0c-0.428-.043-0.855-0.1-1.278-0.176a3.515,3.515,0,0,1-1.018-.107c-0.5-.133-1.015-0.168-1.5-0.33a3.651,3.651,0,0,1-.922-0.123,10.081,10.081,0,0,1-1.743-.518,0.877,0.877,0,0,0-.686-0.319c-0.021-.011-0.044-0.018-0.066-0.027-0.5,0-.989,0-1.467,0a0.6,0.6,0,0,1-.5-0.262l-0.62-.911a0.566,0.566,0,0,1-.065-0.168,5.5,5.5,0,0,1-.84-0.486,6.587,6.587,0,0,1-1.172-.965c-0.3-.161-0.338-0.535-0.63-0.684a1.237,1.237,0,0,1-.638-0.5,1.2,1.2,0,0,1-.6-0.5,9.693,9.693,0,0,0-.831-0.877,3.077,3.077,0,0,1-.572-0.641,5.57,5.57,0,0,1-.811-0.98,3.984,3.984,0,0,1-.443-0.665,3.586,3.586,0,0,1-.4-0.76c-0.153-.246-0.232-0.532-0.389-0.786a7.878,7.878,0,0,0-.427-0.737,4.926,4.926,0,0,1-.422-1c-0.12-.3-0.147-0.635-0.291-0.914a3.244,3.244,0,0,0-.242-0.717c0.21-.125-0.267-0.414-0.1-0.626,0.062-.028.415-0.036,0.183-0.043-0.313.033-.379-0.341-0.339-0.573a1.784,1.784,0,0,1-.233-0.6,1.341,1.341,0,0,1-.082-0.732c-0.264-.1.048-0.469-0.1-0.633a1.056,1.056,0,0,0,.04-0.5,1.547,1.547,0,0,1-.079-0.736c-0.024-.234.191-0.463-0.065-0.582a4.509,4.509,0,0,1,.076-0.844,7.089,7.089,0,0,0-.025-0.891,7.161,7.161,0,0,1,.107-2c-0.124-.2.02-0.321,0.216-0.328-0.055-.057-0.366-0.069-0.243-0.293,0.084-.132.3-0.145,0.1-0.309a1.748,1.748,0,0,1,0-.6,3.49,3.49,0,0,1,.151-0.812c-0.04-.264.415-0.118,0.377-0.286-0.227.1-.347-0.023-0.226-0.242a3.081,3.081,0,0,1,.273-0.783,7.1,7.1,0,0,1,.387-0.832,6.777,6.777,0,0,1,.291-0.707c0.121-.237.256-0.468,0.356-0.718a8.43,8.43,0,0,0,.475-0.867,7.554,7.554,0,0,1,.407-0.727,3.413,3.413,0,0,1,.508-0.748,8.335,8.335,0,0,1,.5-0.766c0-.147.389-0.02,0.172-0.182-0.078-.291.391-0.32,0.436-0.5a1.461,1.461,0,0,1,.5-0.645,5.928,5.928,0,0,1,.617-0.689,1.071,1.071,0,0,0,.416-0.508,3.542,3.542,0,0,0,.494-0.129c-0.342-.064.208-0.244,0.23-0.419a5.471,5.471,0,0,0,.821-0.564,5.919,5.919,0,0,0,.71-0.59,6.092,6.092,0,0,0,.69-0.514,2.056,2.056,0,0,0,.6-0.479,1.57,1.57,0,0,0,.583-0.307c0.3-.048.464-0.363,0.757-0.41a5.528,5.528,0,0,0,.911-0.474,5.206,5.206,0,0,1,.958-0.348c0.134-.046.271-0.1,0.111-0.191,0.117-.162.338,0.2,0.47-0.019A1.852,1.852,0,0,0,418.584,56c0.126,0.055.189-.294,0.4-0.158,0.26-.021.521-0.1,0.781-0.126-0.016-.186.29-0.185,0.41-0.219,0.131,0.1.5,0.131,0.265-.061a1.451,1.451,0,0,1,.8-0.108c0.546-.053,1.083-0.174,1.621-0.28,0.509-.058,1.027-0.028,1.539-0.04,1.125,0.008,2.25-.01,3.374.038a2.045,2.045,0,0,0,.764.086c0.358,0.013.71,0.091,1.068,0.094a6.135,6.135,0,0,1,.809.2c0.22,0.08.6,0.1,0.52,0.348a0.864,0.864,0,0,1,.876.084,4.479,4.479,0,0,1,.812.3,4.426,4.426,0,0,1,.97.462c0.187,0.228.512,0.239,0.7,0.459,0.109,0.091.147,0.292,0.243,0.072,0.25,0.131.5,0.318,0.779,0.44a3.789,3.789,0,0,1,.878.612c0.273,0.237.615,0.369,0.882,0.613a5.752,5.752,0,0,1,.686.545,6.118,6.118,0,0,1,.736.543,3.133,3.133,0,0,1,.64.7,3.251,3.251,0,0,1,.712.531,4.987,4.987,0,0,1,.833.875c0.1,0.149.535,0.534,0.161,0.591,0.147,0.083.318-.091,0.441,0.132a11.165,11.165,0,0,1,.726,1.041c0.12,0.162.035,0.475,0.3,0.481a4.2,4.2,0,0,0,.418.743c0.121,0.274.173,0.564,0.3,0.83,0.088,0.273.24,0.541,0.346,0.817a3.868,3.868,0,0,0,.257.762,3.227,3.227,0,0,1,.223.9,5.487,5.487,0,0,1,.252.812,5.789,5.789,0,0,1,.275,1.133,7.431,7.431,0,0,1,.261,1.34,1.735,1.735,0,0,0,.192.7c0,0.137-.224.234-0.024,0.349a3.286,3.286,0,0,1,.1,1.36A1.134,1.134,0,0,1,444.88,74.793ZM405.3,76.228C405.1,76.2,405.347,76.3,405.3,76.228Zm0.057-4.333C405.161,71.727,405.286,72.076,405.361,71.895Zm34.7,15.789,0.023-.022,0.013-.024C440.05,87.467,439.812,87.822,440.059,87.684Zm2.172-17.272c-0.171-.227-0.111-0.555-0.3-0.808a1.843,1.843,0,0,1-.084-0.188c-0.024-.032-0.046-0.066-0.07-0.1-0.038.075-.073,0.151,0.022,0.209a1.535,1.535,0,0,0,.073.325c-0.048.106,0.256,0.159,0.138,0.335,0.018,0.221.086,0.441,0.109,0.662,0.163-.014.162,0.245,0.192,0.347-0.091.11-.114,0.418,0.05,0.227-0.011-.093-0.025-0.186-0.032-0.279A1.427,1.427,0,0,1,442.231,70.412Zm0.25,3.167a0.069,0.069,0,0,0,.037.071C442.62,73.591,442.5,73.368,442.481,73.579Zm0.071,0.6c0.093-.071.036-0.487-0.007-0.18C442.552,74.054,442.489,74.136,442.552,74.177Zm-0.009,2.8a1.438,1.438,0,0,0,.024-0.737,9.846,9.846,0,0,0-.133-2.023c-0.047-.28.038-0.561-0.022-0.841-0.053-.086.229-0.169,0.079-0.2-0.134.171-.2-0.317-0.234-0.426-0.165-.653-0.245-1.324-0.447-1.968a1.376,1.376,0,0,0-.2-0.6,0.83,0.83,0,0,0-.037-0.54c-0.078-.054.033,0.163,0.043,0.209-0.28.045-.265-0.428-0.437-0.584a4.222,4.222,0,0,1-.331-0.754c-0.115-.251-0.279-0.476-0.377-0.736a3.994,3.994,0,0,1-.311-0.638l-0.046-.056c0.235,0.677.453,1.362,0.627,2.067a17.57,17.57,0,0,1,1.33,6.624,17.908,17.908,0,0,1-.874,5.465l0.187-.431a21.861,21.861,0,0,0,1.083-3.3A5.321,5.321,0,0,0,442.543,76.982Zm-0.373-5.407C442.193,71.4,442.108,71.611,442.17,71.575Zm-0.933-3c-0.07-.014-0.268.038-0.062,0.085l0.032-.02a0.162,0.162,0,0,0,.049-0.038Zm-1.164-1.737c-0.023,0-.04.019,0.02,0.056a0.026,0.026,0,0,0,.006-0.017Zm-15.88-8.278h0.016C424.207,58.54,424.2,58.54,424.193,58.558Zm-8.726,3.349c-0.215.116-.355,0.268-0.546,0.386a6.234,6.234,0,0,0-.6.472,6.092,6.092,0,0,1-.563.518l-0.017.014c-0.4.466-.794,0.944-1.165,1.442a21.113,21.113,0,0,0,2.9-2.836Zm-6.23,12.958,0.014-.031h0c0.028-.208.013-0.445,0.052-0.663a1.024,1.024,0,0,0-.013-0.749,6.251,6.251,0,0,1,.1-0.715,4.611,4.611,0,0,1,.177-1.012c0.039-.276.161-0.531,0.225-0.8a5,5,0,0,1,.218-0.761,6.9,6.9,0,0,0,.334-0.644c0.064-.238.221-0.442,0.272-0.683a1.82,1.82,0,0,0,.357-0.705,1.784,1.784,0,0,1,.312-0.644c0.023-.041.044-0.082,0.066-0.123-0.313.27-.624,0.541-0.925,0.817a15.736,15.736,0,0,0-1.838,5.95c0.083,1.052.2,2.127,0.352,3.206l0.8,2.012a2.239,2.239,0,0,1-.162-0.684c-0.124-.837-0.245-1.675-0.3-2.519A8.811,8.811,0,0,1,409.237,74.864Zm7.915-13.292c0.052-.028.1-0.06,0.155-0.087a11.638,11.638,0,0,1,1.072-.538c0.2-.129.421-0.18,0.609-0.321a3.631,3.631,0,0,1,.625-0.258,1.506,1.506,0,0,1,.315-0.152,21.467,21.467,0,0,0-2.4.56A5.712,5.712,0,0,1,417.152,61.572Zm12.972-1.988c-0.519,0-1.028,0-1.533.008a6.818,6.818,0,0,1,.787.2,3.129,3.129,0,0,1,.7.218,1.5,1.5,0,0,1,.68.242,7.62,7.62,0,0,1,.854.371c0.225,0.1.439,0.184,0.663,0.3a7.438,7.438,0,0,1,.87.451c0.21,0.146.458,0.258,0.677,0.4a5.306,5.306,0,0,1,1.072.727,3.5,3.5,0,0,0,.3.2c-0.487-.547-1-1.093-1.546-1.635ZM422.5,58.7a0.028,0.028,0,0,0-.03,0Zm17.854,8.575a0.037,0.037,0,0,0,.027.042Zm0.519,1.01C441.025,68.182,440.729,68.194,440.875,68.28Zm0.617,1.218C441.632,69.354,441.271,69.511,441.492,69.5Zm0.295,0.639c-0.026.03-.1,0.138-0.019,0.151C441.888,70.219,441.973,69.921,441.787,70.138ZM424.2,91.726a19.141,19.141,0,0,0,12.276-4.18,15.07,15.07,0,0,0,.954-1.328c-0.032.037-.068,0.07-0.1,0.109a1.625,1.625,0,0,1-.481.452,0.248,0.248,0,0,1,.123-0.223h0c0.261-.247.492-0.521,0.734-0.786,0.254-.425.486-0.849,0.686-1.264a17.675,17.675,0,0,0,.731-1.774,2.672,2.672,0,0,1-.311.474,1.666,1.666,0,0,0-.375.591c-0.19.194-.327,0.437-0.5,0.65-0.214.274-.462,0.521-0.694,0.782-0.594.642-1.253,1.221-1.907,1.8a2.272,2.272,0,0,0-.56.446,4.867,4.867,0,0,1-.612.439,2.744,2.744,0,0,1-.588.359,5.368,5.368,0,0,0-.648.344c-0.242.128-.5,0.213-0.74,0.354-0.258.069-.467,0.239-0.723,0.3a5.914,5.914,0,0,1-.689.274,8.253,8.253,0,0,1-1.093.41,2.339,2.339,0,0,0-.464.162,6.375,6.375,0,0,0-.835.108,1.965,1.965,0,0,1-.677.1c-0.373.078-.76,0.064-1.136,0.122a1.572,1.572,0,0,1-.762.067,2.884,2.884,0,0,1-.732.017,1.264,1.264,0,0,0-.28.018c-0.338-.039-0.681-0.039-1.014-0.105a2.039,2.039,0,0,1-.717-0.051,5.956,5.956,0,0,0-.714-0.118,2.226,2.226,0,0,0-.753-0.164c-0.278-.042-0.51-0.216-0.784-0.264a3.931,3.931,0,0,0-.618-0.213,4.562,4.562,0,0,0-.776-0.248,2.392,2.392,0,0,0-.638-0.286c-0.392-.125-0.705-0.413-1.1-0.53a3.678,3.678,0,0,0-.621-0.407,1.57,1.57,0,0,1-.546-0.35,8.6,8.6,0,0,1-1.021-.647,1.737,1.737,0,0,1-.53-0.489,3.259,3.259,0,0,1-.421-0.307c-0.169-.195-0.415-0.311-0.569-0.525-0.181-.173-0.286-0.409-0.445-0.591a3.944,3.944,0,0,1-.558-0.592c-0.158-.211-0.291-0.43-0.467-0.625a5.616,5.616,0,0,0-.436-0.719c-0.251-.44-0.5-0.885-0.725-1.334-0.152-.293-0.249-0.612-0.41-0.9a2.276,2.276,0,0,1-.217-0.683,9.477,9.477,0,0,0-.251-0.927c-0.1-.366-0.17-0.744-0.3-1.1a6.106,6.106,0,0,1-.145-0.743c-0.075-.636-0.084-1.278-0.14-1.915a2.832,2.832,0,0,1-.035-0.713,5.8,5.8,0,0,1,0-.932h0a3.257,3.257,0,0,1,.105-0.675c0.024-.3.165-0.571,0.2-0.868a6.989,6.989,0,0,0,.112-0.784,6.633,6.633,0,0,1,.166-0.865,4.706,4.706,0,0,1,.39-1.234,5.594,5.594,0,0,1,.437-0.883,7.448,7.448,0,0,0,.589-1c0.17-.154.273-0.369,0.444-0.53a4.7,4.7,0,0,1,.581-0.765c0.168-.251.411-0.448,0.587-0.7a9.015,9.015,0,0,0,.75-0.8,4.226,4.226,0,0,1,.576-0.524c0.169-.185.4-0.3,0.577-0.47a7.2,7.2,0,0,1,.811-0.688,7.825,7.825,0,0,1,.651-0.473,3.434,3.434,0,0,0,.536-0.378c0.228-.1.417-0.258,0.639-0.367a5.645,5.645,0,0,1,1.011-.5,5.436,5.436,0,0,1,.564-0.294c0.229-.081.453-0.163,0.681-0.256a10.066,10.066,0,0,0,1.189-.436c0.23-.028.425-0.169,0.657-0.191,0.274-.046.545-0.113,0.81-0.176a0.958,0.958,0,0,1,.466-0.015,5.611,5.611,0,0,1,1.081-.124c0.439,0.056.888,0.032,1.322,0.129a3.062,3.062,0,0,1,.8.072c0.057,0.162-.337.042-0.446,0.068-0.779-.056-1.562-0.012-2.341-0.016-0.122-.163-0.281.109-0.479,0.07a4.81,4.81,0,0,0-1.159.207,5.234,5.234,0,0,0-.681.142c-0.28.042-.49,0.281-0.775,0.323a3.77,3.77,0,0,1-.624.245,3.044,3.044,0,0,1-.827.435,5.835,5.835,0,0,1-.739.311,4.6,4.6,0,0,0-.541.382c-0.1.136-.258,0.02-0.262,0.2a5.825,5.825,0,0,0-.558.428c-0.256.073-.421,0.3-0.667,0.387a2.736,2.736,0,0,1-.63.464c-0.184.172-.387,0.328-0.572,0.483a4.057,4.057,0,0,1-.506.451,0.7,0.7,0,0,0-.363.457,0.824,0.824,0,0,0-.516.406c-0.16.156-.254,0.371-0.428,0.519-0.211.214-.365,0.474-0.581,0.684a3.945,3.945,0,0,0-.545.751c-0.182.221-.282,0.5-0.458,0.722s-0.269.512-.44,0.747a2.312,2.312,0,0,0-.212.81,3.355,3.355,0,0,0-.269.685,1.251,1.251,0,0,1-.159.528,3.434,3.434,0,0,0-.209.711,7.222,7.222,0,0,0-.273,1.141,5.7,5.7,0,0,0-.157,1.358v0.525a2.239,2.239,0,0,0-.022.893c0.064,0.2.043,0.449,0.116,0.677a3.835,3.835,0,0,1,.12.858,3.767,3.767,0,0,1,.111.654c0.058,0.239.1,0.475,0.138,0.717a5.442,5.442,0,0,0,.162.766c0.006,0.122.074,0.306,0.053,0.08,0.151,0.112.036,0.42,0.206,0.569-0.023.149-.034,0.308,0.141,0.322,0.081,0.233.142,0.468,0.244,0.7,0.124,0.223.155,0.469,0.27,0.676a1.924,1.924,0,0,1,.349.7,6.212,6.212,0,0,1,.32.616,5.948,5.948,0,0,1,.407.548c0.211,0.191.284,0.475,0.5,0.662a3.552,3.552,0,0,0,.41.594,3.063,3.063,0,0,0,.55.542c0.2,0.142.29,0.414,0.5,0.557a5.947,5.947,0,0,1,.757.8,2.486,2.486,0,0,1,.562.392,2.856,2.856,0,0,0,.621.452,2.771,2.771,0,0,0,.614.389c0.206,0.154.465,0.225,0.658,0.4a8.68,8.68,0,0,0,1.088.544c0.415,0.141.805,0.343,1.23,0.457a2.675,2.675,0,0,1,.779.3,3.418,3.418,0,0,0,.7.211,8.566,8.566,0,0,0,1.6.278,19.248,19.248,0,0,0,3.158,0c0.716-.064,1.417-0.23,2.134-0.287a1.28,1.28,0,0,1,.64-0.081c0.2-.146.484-0.095,0.705-0.256,0.287-.153.623-0.191,0.906-0.353,0.076-.118.025-0.257,0.1-0.063a1.534,1.534,0,0,0,.641-0.223,2.9,2.9,0,0,0,.694-0.253,3.024,3.024,0,0,1,.7-0.312c0.273-.145.534-0.314,0.8-0.472,0.349-.219.633-0.519,0.985-0.734,0.347-.31.741-0.569,1.091-0.877a7.753,7.753,0,0,0,1.231-1.272,8.365,8.365,0,0,0,.827-1.049,0.623,0.623,0,0,0,.42-0.417c0.186-.269.352-0.552,0.538-0.821a2.59,2.59,0,0,0,.375-0.657,23.472,23.472,0,0,0,.667-10.805c-0.1-.244-0.132-0.511-0.235-0.757a9.347,9.347,0,0,0-.386-1.036c-0.063-.227-0.209-0.413-0.286-0.634a3.164,3.164,0,0,1-.33-0.581c-0.135-.262-0.316-0.5-0.447-0.756a2.123,2.123,0,0,0-.411-0.615c-0.04-.133-0.311-0.377-0.159-0.484h0c0.158,0.122.193,0.367,0.367,0.493a4.2,4.2,0,0,1,.542.877c0.114,0.214.252,0.409,0.387,0.612a6.26,6.26,0,0,1,.321.679c0.027,0.216.242,0.367,0.284,0.586,0.025,0.117.066,0.23,0.1,0.346-0.033-.149-0.055-0.3-0.091-0.451a23.307,23.307,0,0,0-3.817-6.178c-0.132-.106-0.264-0.215-0.4-0.311-0.249-.127-0.447-0.327-0.681-0.475a2.718,2.718,0,0,1-.618-0.374,6.68,6.68,0,0,1-.613-0.4c-0.245-.087-0.444-0.251-0.693-0.333-0.3-.2-0.62-0.368-0.918-0.572a3.135,3.135,0,0,0-.7-0.323,2.3,2.3,0,0,0-.64-0.259,2.607,2.607,0,0,0-.94-0.333,3.759,3.759,0,0,0-.735-0.178c-0.311-.029-0.619-0.091-0.932-0.111a7.082,7.082,0,0,1-.84-0.133,49.859,49.859,0,0,0-6.51.488c-0.016.009-.029,0.018-0.052,0.03a1.609,1.609,0,0,1-.679.322,7.841,7.841,0,0,0-.923.439,4.867,4.867,0,0,0-.778.38,6.337,6.337,0,0,1-.678.374c-0.214.139-.426,0.283-0.64,0.422a22.618,22.618,0,0,1-4.242,4.2q-0.417.349-.832,0.7a7.421,7.421,0,0,0-.72,1.4c-0.274.544-.419,1.138-0.651,1.7s-0.361,1.153-.537,1.73a13.029,13.029,0,0,0-.273,1.886,20.17,20.17,0,0,0,0,2.77c0.089,0.4.1,0.823,0.17,1.232A5.094,5.094,0,0,0,410,78.952a11.288,11.288,0,0,0,.276,1.306c0.146,0.463.357,0.9,0.509,1.367,0.24,0.655.609,1.255,0.9,1.885-0.037.268-.275-0.134-0.313-0.242a1.226,1.226,0,0,0-.174-0.275l0.951,2.388a22.585,22.585,0,0,0,7.283,5.5,3.917,3.917,0,0,1,.526.194c0.239,0.057.453,0.193,0.7,0.232a1.313,1.313,0,0,0,.724.2c0.33,0.018.657,0.071,0.982,0.118a0.554,0.554,0,0,1,.178.039C423.093,91.7,423.645,91.726,424.2,91.726ZM408.363,67.682a16,16,0,0,1,.67-1.48l-0.368.313c-0.1.156-.205,0.313-0.3,0.473C408.362,67.216,408.362,67.444,408.363,67.682Zm12.146-8.74a0.222,0.222,0,0,1,.2-0.027l0.131-.018a0.533,0.533,0,0,1,.434-0.1,1.587,1.587,0,0,1,.525-0.2,1.205,1.205,0,0,1,.639-0.069,1.032,1.032,0,0,1,.553-0.088,0.959,0.959,0,0,0,.437.034,1.386,1.386,0,0,1,.642-0.067,0.614,0.614,0,0,0,.478-0.023,15.329,15.329,0,0,0-6.072.941C419.133,59.17,419.814,59.049,420.509,58.942Zm4.71-2.175a15.768,15.768,0,0,0-2.878.431l-0.043.013Zm2.1,0.351a3.5,3.5,0,0,1,.931.191c0.056,0.161-.335-0.038-0.458-0.011l-0.053,0,1.366,0.577c0.584,0.151,1.163.333,1.739,0.533l1.072,0a3.936,3.936,0,0,0-.746-0.253,3.271,3.271,0,0,1-.662-0.286,13.085,13.085,0,0,1,1.417.394,11.857,11.857,0,0,0-5.473-1.511Zm6.832,2.732c-0.1-.087-0.2-0.171-0.305-0.256h-0.2C433.82,59.677,433.988,59.761,434.154,59.85Zm4.4,27.494,0.08-.184c-0.065.067-.134,0.131-0.2,0.2A0.622,0.622,0,0,1,438.556,87.343Zm-3.008,3.762a5.14,5.14,0,0,0,.98-0.641c0.268-.264.6-0.451,0.861-0.727,0.179-.175.4-0.3,0.585-0.461-0.007-.013-0.019-0.023-0.026-0.036a19.639,19.639,0,0,1-3.029,2.17l-0.08.085C435.068,91.347,435.32,91.255,435.548,91.105Zm-11.727,3.011a0.64,0.64,0,0,1-.051.073,28.186,28.186,0,0,0,2.878-.061l0.046-.006h0a6.114,6.114,0,0,1,.952-0.147c0.315-.033.617-0.139,0.936-0.157a9.186,9.186,0,0,1,.91-0.132,3.877,3.877,0,0,0,1.076-.318,2.8,2.8,0,0,0,.5-0.13l-0.651,0a16.207,16.207,0,0,1-3.86.466,16.988,16.988,0,0,1-2.837-.251A0.581,0.581,0,0,1,423.821,94.116ZM419.6,93.54a8.051,8.051,0,0,0,.967.29,8.257,8.257,0,0,1,.917.135c0.282,0.041.565,0.065,0.848,0.09l-1.466-.707-1.9.019A1.577,1.577,0,0,0,419.6,93.54Zm-3.707-1.491,0.291,0.152c0.694,0,1.411,0,2.139-.011-0.057-.027-0.116-0.051-0.171-0.081a1.684,1.684,0,0,1-.276-0.1,21.067,21.067,0,0,1-2.084-.7,0.567,0.567,0,0,1-.012.308l-0.062.181Zm-2.6-3.787,0.06,0.151,0.253,0.122C413.505,88.445,413.4,88.354,413.3,88.262Zm-0.033,2.328,0.19,0.108c-0.136-.132-0.262-0.272-0.391-0.409A0.763,0.763,0,0,0,413.264,90.59Zm-1.917-1.745a1.314,1.314,0,0,1,.693.6,2.388,2.388,0,0,1,.66.594,0.309,0.309,0,0,0,.333.212c-0.251-.267-0.5-0.533-0.735-0.818a14.877,14.877,0,0,1-1.225-.945A2.119,2.119,0,0,1,411.347,88.845Zm-1.812-3.97c0.108,0.159.214,0.32,0.324,0.477q-0.393-.9-0.712-1.846c-0.187-.279-0.367-0.562-0.543-0.849A8.952,8.952,0,0,0,409.535,84.875Zm-1.579-6.112q-0.051-.288-0.1-0.575c0,0.114,0,.228,0,0.343C407.887,78.609,407.923,78.685,407.956,78.763Zm-2.487-.584C405.378,78.091,405.379,78.321,405.469,78.179Zm0.015-7.067,0.039-.013,0.032-.016C405.637,70.946,405.139,71.177,405.484,71.112Zm0.148-.808,0-.013L405.6,70.27C405.382,70.142,405.445,70.375,405.632,70.3Zm0.052,0.375C405.51,70.295,405.576,70.93,405.684,70.678Zm-0.052-.546,0-.013L405.6,70.1C405.382,69.971,405.445,70.2,405.632,70.132Zm0.053-.269c0.038,0.037.14,0.112,0.172,0.025C405.807,69.7,405.415,69.628,405.685,69.863Zm0.819-2.544C406.388,67.147,406.4,67.485,406.5,67.319Zm-0.067.554a0.1,0.1,0,0,0,.067-0.066C406.425,67.667,406.166,67.978,406.437,67.873Zm0.671-1.5C407.036,66.262,406.97,66.551,407.108,66.376ZM407.18,69.4a4.3,4.3,0,0,0-.186.648c-0.019.087-.047,0.173-0.075,0.259,0.089-.133.174-0.268,0.269-0.4C407.185,69.734,407.183,69.567,407.18,69.4Zm-0.374,5.623q0.1-1.285.285-2.452A5.378,5.378,0,0,0,406.806,75.02Zm0.317,5.87c-0.023-.076-0.049-0.151-0.071-0.227-0.054-.149-0.118-0.566.055-0.232,0-.022,0-0.044,0-0.066a0.565,0.565,0,0,1,.1-0.314c-0.075-.163-0.147-0.329-0.219-0.494a0.585,0.585,0,0,1-.34-0.527c0-.1,0-0.188,0-0.284-0.077-.2-0.143-0.4-0.215-0.6-0.025.077,0,.294-0.088,0.16h0a4.26,4.26,0,0,1-.11-0.711c-0.168-.5-0.325-1.011-0.456-1.526a6.692,6.692,0,0,1,.758-5.153,5.323,5.323,0,0,1,.168-0.608,3.43,3.43,0,0,1,.257-0.8,2.392,2.392,0,0,1,.2-0.658c-0.008-.757-0.009-1.471-0.01-2.134a0.62,0.62,0,0,0-.091.232,4.508,4.508,0,0,1-.4.846c-0.131.192-.137,0.454-0.252,0.618a0.947,0.947,0,0,1-.221.464c-0.04.225-.162,0.5-0.184,0.757a0.879,0.879,0,0,1-.189.572c0.1,0.195-.232.2-0.03,0.388a0.728,0.728,0,0,1-.253.66c0.258,0.066,0,.393-0.2.305a0.4,0.4,0,0,1,.215.505c-0.066.331,0.073,0.657-.011,0.98-0.046.525-.013,1.052-0.08,1.576a6.173,6.173,0,0,1-.025.9c0.07,0.208.038,0.512,0.083,0.647-0.293.052,0.116,0.15,0.047,0.343a2.918,2.918,0,0,1,.036,1.284c0.21,0.168-.2.033-0.046,0.19a1.511,1.511,0,0,1,.294,1.065,1.957,1.957,0,0,1,.282.807,1.49,1.49,0,0,1,.145.772,1.851,1.851,0,0,0,.228.3,2.662,2.662,0,0,0,.264,1.025,3.144,3.144,0,0,1,.4.721c0.108,0.326.347,0.594,0.434,0.931,0.02,0.032.042,0.063,0.063,0.095A9.893,9.893,0,0,1,407.123,80.89Zm0.7-15.88C407.62,64.842,407.745,65.191,407.82,65.01Zm0.288-.628C407.905,64.356,408.151,64.453,408.108,64.382Zm1.76-2.154C409.778,62.14,409.779,62.37,409.868,62.227Zm0.681-.759C410.511,61.29,410.378,61.7,410.549,61.468Zm0.2-.4C410.55,60.976,410.747,61.292,410.75,61.072Zm2.491-2.078C413.038,58.967,413.284,59.064,413.241,58.993Zm1.847-.957C415,57.948,415,58.179,415.088,58.037Zm0.5-.639C415.509,57.236,415.405,57.539,415.584,57.4Zm-0.106.342c0.026-.007.109,0.008,0.109-0.038C415.489,57.548,415.2,57.727,415.478,57.74Zm0.43-.368c-0.152-.071-0.447.355-0.158,0.133C415.83,57.4,416.238,57.461,415.908,57.371Zm0.819-.23C416.611,56.969,416.625,57.307,416.727,57.141Zm0.422-.38c-0.153-.258-0.055.377,0.024,0.037Zm1.017-.327C418,56.273,418.181,56.687,418.166,56.434Zm0.755-.337c0.035,0.03.163,0.11,0.179,0.021C419.017,55.981,418.664,55.883,418.921,56.1Zm1.7-.439C420.414,55.632,420.66,55.729,420.617,55.658Zm2.367-.356a0.083,0.083,0,0,0,.084-0.043C423,55.142,422.735,55.281,422.984,55.3Zm0.494-.074a0.243,0.243,0,0,0,.213-0.008C423.607,55.114,423.116,55.179,423.478,55.228Zm4.386-.041C427.66,55.161,427.906,55.258,427.864,55.187Zm0.724,0.141a1.053,1.053,0,0,0,.432-0.021C428.9,55.156,428.711,55.334,428.588,55.328Zm1.891,0.392c0.106-.076.16,0.136,0.245,0.01C430.687,55.616,430.354,55.465,430.479,55.72Zm1.911,0.693,0.042,0,0.039-.012C432.344,56.287,432.092,56.433,432.39,56.413Zm1.034,0.288C433.146,56.59,433.53,56.938,433.424,56.7Zm0.843,0.642,0.037-.03C434.248,57.165,434.037,57.4,434.267,57.342Zm1.05,0.483c-0.242-.13-0.137.077,0.043,0.035Zm0.483,0.356C435.6,58.155,435.843,58.252,435.8,58.181Zm2.537,1.851C438.184,59.885,438.152,60.11,438.337,60.032Zm5.232,9.033a2.163,2.163,0,0,0-.232-0.891,2.03,2.03,0,0,1-.2-0.757,2.931,2.931,0,0,0-.3-0.907c-0.105-.271-0.221-0.52-0.322-0.8-0.134-.227-0.279-0.445-0.4-0.683a7.983,7.983,0,0,0-.515-0.694,9.436,9.436,0,0,1-.584-0.748,3.463,3.463,0,0,0-.609-0.861,22.8,22.8,0,0,0-1.765-2.043c-0.187-.231-0.509-0.335-0.7-0.582a11.649,11.649,0,0,0-1.014-.832,6.154,6.154,0,0,0-.69-0.559,7.864,7.864,0,0,0-1.139-.751,0.873,0.873,0,0,0-.633-0.34c-0.237-.1-0.416-0.241-0.642-0.358a4.417,4.417,0,0,0-.769-0.351c-0.285-.133-0.569-0.273-0.841-0.428-0.276-.076-0.558-0.23-0.846-0.318-0.26-.158-0.562-0.2-0.82-0.353a10.18,10.18,0,0,0-1.011-.183c-0.284-.026-0.224-0.187-0.011-0.244-0.258-.163-0.307.269-0.592,0.15-0.653-.066-1.284-0.258-1.939-0.308a1.747,1.747,0,0,0-.871-0.028,12,12,0,0,0-2.388.152c-0.33.054-.662-0.043-0.993,0.026-0.1.06-.2-0.263-0.231-0.091,0.2,0.154-.374.226-0.5,0.269-0.771.188-1.564,0.28-2.324,0.511a1.657,1.657,0,0,0-.712.229,1,1,0,0,0-.637.042c-0.063.09,0.192-.038,0.247-0.049,0.054,0.321-.5.3-0.689,0.5a5.116,5.116,0,0,1-.891.379c-0.3.131-.562,0.32-0.869,0.432a4.789,4.789,0,0,1-.753.356,1.921,1.921,0,0,1-.572.38c-0.223.145-.467,0.257-0.678,0.422-0.229.209-.52,0.284-0.739,0.485-0.22.22-.475,0.389-0.721,0.593a2.711,2.711,0,0,1-.623.475c-0.376.431-.817,0.8-1.22,1.207a3.309,3.309,0,0,0-.718.832,5.94,5.94,0,0,0-.595.6c-0.189.238-.338,0.5-0.545,0.729-0.153.271-.349,0.512-0.5,0.784a4.485,4.485,0,0,0-.445.8,1.319,1.319,0,0,0-.358.537l2.408-2.043a6.4,6.4,0,0,1,.593-0.856c0.34-.429.77-0.781,1.09-1.225,0.241-.2.468-0.387,0.728-0.565,0.452-.3.821-0.713,1.3-0.978,0.106-.128.434-0.172,0.223,0.04a5.8,5.8,0,0,0-.672.465,4.218,4.218,0,0,0-.692.656c-0.205.21-.478,0.331-0.669,0.563a9.556,9.556,0,0,0-.779.806c-0.1.15-.221,0.291-0.34,0.431l4.548-3.859a1.726,1.726,0,0,1-.6.276h0a3.178,3.178,0,0,1,.721-0.5c0.135-.083.276-0.157,0.416-0.232l0.732-.621a0.606,0.606,0,0,1,.3-0.137l0.831-.126c0.139-.058.278-0.117,0.411-0.189a2.053,2.053,0,0,0,.262-0.079,12.955,12.955,0,0,1,3.565-1.571,13.872,13.872,0,0,1,12.22,2.361l0.924,0a0.6,0.6,0,0,1,.422.172,19.967,19.967,0,0,1,1.771,2.021,7.151,7.151,0,0,0,.648.594,1.908,1.908,0,0,1,.534.551,0.3,0.3,0,0,1-.264-0.141h0c-0.145-.15-0.305-0.285-0.462-0.422,0.711,0.968,1.354,1.97,1.971,2.967a17.859,17.859,0,0,1,2.057,2.659,4.075,4.075,0,0,0-.271-0.593A12.114,12.114,0,0,0,440.956,65c-0.091-.349.272,0.044,0.288,0.187a5.542,5.542,0,0,1,.7,1.334,5.462,5.462,0,0,1,.376.894c0.064,0.15.125,0.3,0.181,0.461,0.207,0.389.4,0.782,0.569,1.18,0.225,0.281.46,0.549,0.7,0.811C443.7,69.6,443.653,69.329,443.569,69.065Zm-0.612,4.587a12.569,12.569,0,0,0-.2-1.557,0.518,0.518,0,0,1-.008.131c0.092,0.427.075,0.871,0.144,1.3A0.323,0.323,0,0,1,442.957,73.652Zm0.017,0.749a2.253,2.253,0,0,0,.019.257c0-.01,0-0.019,0-0.029,0-.192-0.017-0.382-0.024-0.572A0.814,0.814,0,0,0,442.974,74.4Zm1.638-2.079C444.476,72.161,444.592,72.505,444.612,72.322Zm0.122,3.049c-0.392-.053-0.07-0.529-0.169-0.779a2.474,2.474,0,0,1-.086-0.836,5.835,5.835,0,0,0-.112-0.892c0-.006,0-0.012,0-0.018q-0.058.962-.173,1.89a14.457,14.457,0,0,1-.787,4.416l-0.374.865a1.384,1.384,0,0,1-.117.4,4.57,4.57,0,0,1-.183.812,4.229,4.229,0,0,1-.365.907,5.247,5.247,0,0,1-.3.678,2.984,2.984,0,0,0-.359.754,5.943,5.943,0,0,1-.577.829l-1.344,3.1c0.089-.1.19-0.181,0.274-0.282a2.063,2.063,0,0,0,.569-0.681c0.177-.192.318-0.409,0.5-0.6,0.125-.221.278-0.425,0.393-0.648,0.194-.346.488-0.626,0.689-0.966,0.139-.257.319-0.494,0.442-0.759a2.793,2.793,0,0,1,.283-0.757c0.137-.253.2-0.538,0.355-0.775,0.119-.314.2-0.647,0.342-0.94,0.067-.275.228-0.519,0.274-0.8a1.474,1.474,0,0,0,.233-0.829c0.021-.378.084-0.752,0.139-1.125a2.574,2.574,0,0,0,.171-0.716,5.984,5.984,0,0,1,.072-0.931,4.086,4.086,0,0,1-.044-0.561,0.929,0.929,0,0,1,.2-0.734C444.827,75.392,444.928,75.388,444.734,75.371Zm-3.952-10.678-0.025-.032-0.024-.034c-0.13-.121-0.113-0.42.034-0.139C440.868,64.583,440.994,64.949,440.782,64.693Zm-0.292-.534c-0.178-.109-0.049-0.271.041-0.064C440.571,64.17,440.6,64.286,440.49,64.159Zm-0.721-.912c-0.147-.166.051-0.29,0.114-0.062C439.964,63.286,439.825,63.339,439.769,63.248Zm-0.163-.3a0.475,0.475,0,0,1-.148-0.152c-0.093-.08-0.347-0.457-0.075-0.292C439.465,62.606,439.784,62.878,439.606,62.949Zm-0.516-.608a1.454,1.454,0,0,1-.217-0.218h0c-0.139-.112-0.247-0.391-0.014-0.159C438.932,62.039,439.271,62.311,439.09,62.34ZM406.867,80.132h0C406.849,79.832,407.071,80.29,406.867,80.132Zm-0.407-1.367-0.02-.041h0C406.385,78.475,406.586,78.737,406.46,78.766ZM431.2,57.954C431.21,57.811,431.317,58.088,431.2,57.954Zm-2.049-.428c-0.079-.028-0.529-0.072-0.311-0.15a0.972,0.972,0,0,1,.541.182A0.313,0.313,0,0,1,429.149,57.526ZM421.3,90.63a4.244,4.244,0,0,1-.749-0.172,4.189,4.189,0,0,1-.709-0.155,3.762,3.762,0,0,1-.792-0.31,4.6,4.6,0,0,1-.591-0.25,2.633,2.633,0,0,0-.659-0.3c-0.326-.116-0.515-0.435-0.843-0.552a4.257,4.257,0,0,0-.6-0.381,5.178,5.178,0,0,1-.706-0.473c-0.263-.142-0.46-0.379-0.731-0.511a3.826,3.826,0,0,1-.655-0.664,4.16,4.16,0,0,1-.563-0.549,5.736,5.736,0,0,1-.684-0.7c-0.118-.219-0.325-0.371-0.457-0.584-0.208-.31-0.437-0.606-0.657-0.907-0.026-.086-0.286-0.374-0.149-0.419h0a5.985,5.985,0,0,1,.486.669,6.751,6.751,0,0,0,.5.6,8.45,8.45,0,0,0,.877.96c0.378,0.368.737,0.756,1.149,1.089a3.227,3.227,0,0,0,.632.51,7.334,7.334,0,0,0,.677.5c0.222,0.173.467,0.316,0.694,0.482,0.206,0.106.379,0.28,0.592,0.389a5.892,5.892,0,0,1,.727.428c0.265,0.119.522,0.251,0.8,0.347,0.267,0.14.569,0.2,0.836,0.342,0.272,0.093.563,0.131,0.832,0.237a6.852,6.852,0,0,0,1.1.263c0.4,0.119.834,0.1,1.241,0.216a9.778,9.778,0,0,0,1.723.2c0.461-.008.918,0.1,1.381,0.072,0.294,0.018.588-.033,0.882-0.012a3.417,3.417,0,0,1-.655.165,1.922,1.922,0,0,1-.9-0.018c-0.244-.113-0.487.048-0.713-0.056-0.4-.037-0.8,0-1.2-0.04-0.231-.05-0.472-0.074-0.7-0.147a4.431,4.431,0,0,1-.732-0.076A4.1,4.1,0,0,0,421.3,90.63Zm7.746-.068,0.029-.011c0.277-.02-0.134.248-0.053,0.028Zm0.335-.052a5.787,5.787,0,0,0,.913-0.282c0.236-.057.474-0.1,0.706-0.179a4.911,4.911,0,0,0,.709-0.187c0.4-.2.844-0.3,1.233-0.517a10.59,10.59,0,0,0,1.068-.548c0.305-.077-0.038.23-0.163,0.244a4.9,4.9,0,0,1-1.165.59,4.841,4.841,0,0,1-.781.319,5.356,5.356,0,0,1-.72.251,6.689,6.689,0,0,0-.83.236,5.957,5.957,0,0,1-.924.146c-0.045,0-.148-0.05-0.046-0.074h0Zm4.9-1.86,0.028-.021,0.029-.021c0.106-.11.367-0.1,0.122,0.029C434.377,88.724,434.057,88.831,434.28,88.651Zm0.522-.212c-0.065.034-.166,0.055-0.056-0.035C434.841,88.253,434.983,88.362,434.8,88.439Zm0.795-.548c-0.087.068-.135-0.05-0.055-0.1C435.688,87.669,435.8,87.837,435.6,87.89Zm0.6-.424c-0.089.069-.326,0.34-0.388,0.189a0.392,0.392,0,0,1,.133-0.125C436.007,87.451,436.336,87.236,436.192,87.467Zm0.333-.432c0.1-.118.342-0.209,0.139-0.012-0.066.062-.3,0.348-0.329,0.2a1.244,1.244,0,0,1,.19-0.184h0Zm-25-4.239a0.094,0.094,0,0,1,.02-0.1C411.752,82.628,411.646,83,411.526,82.8Zm15.621-22.4c-0.193.126-.269-0.024-0.406-0.089C426.842,60.192,427.214,60.311,427.147,60.4Zm0.369-.034h0a9.665,9.665,0,0,0,1.039.115c0.559,0.134,1.1.319,1.654,0.48a3.057,3.057,0,0,1,.839.364,0.942,0.942,0,0,1-.62-0.14c-0.251-.092-0.5-0.165-0.748-0.258a3.388,3.388,0,0,1-.725-0.2,10.7,10.7,0,0,1-1.3-.248C427.507,60.554,427.152,60.327,427.516,60.366Zm4.375,1.318a2.3,2.3,0,0,1,.733.3c0.391,0.175.729,0.44,1.117,0.622a6.694,6.694,0,0,1,.931.611,3.994,3.994,0,0,1,.712.523,9.023,9.023,0,0,1,1.271,1.264,0.7,0.7,0,0,1,.223.37,8.079,8.079,0,0,1-.656-0.492,2.069,2.069,0,0,0-.695-0.568,4.883,4.883,0,0,0-.6-0.558,3.967,3.967,0,0,1-.583-0.613c-0.168-.179-0.443-0.227-0.606-0.4-0.225-.023-0.314-0.246-0.542-0.267-0.245-.065-0.4-0.276-0.643-0.357a3.54,3.54,0,0,1-.627-0.329c-0.059-.05-0.206-0.081-0.034-0.11h0Zm5.079,3.783a1.687,1.687,0,0,1,.42.55c0.044,0.119.341,0.355,0.18,0.428a7.29,7.29,0,0,1-.45-0.6c-0.045-.085-0.311-0.305-0.15-0.374h0Zm-15.25-10.3-0.033-.012c0.11-.12.31,0.039,0.068,0.015ZM417.17,56.3C417.329,56.254,417.237,56.38,417.17,56.3Zm27.093,24.886-0.021,0-0.028-.006C444.03,81,444.328,80.988,444.263,81.189Z" transform="translate(-405 -55)"/>
  <path id="Text" class="cls-1" d="M433.8,71.624h-1.042l-1.226,4.834a14.56,14.56,0,0,0-.385,1.9,14.29,14.29,0,0,0-.434-1.91l-1.46-4.823h-1.03l-1.4,4.785a13.586,13.586,0,0,0-.423,1.948,16.293,16.293,0,0,0-.38-1.888l-1.232-4.845h-1.041l2.1,7.932h1.009l1.5-5.165a11.277,11.277,0,0,0,.38-1.6,14.017,14.017,0,0,0,.4,1.568l1.546,5.2h1.009Z" transform="translate(-405 -55)"/>
  <path id="Text-2" data-name="Text" class="cls-2" d="M419.843,76.5h1.5v1.655a5.444,5.444,0,0,1-1.068.108,1.829,1.829,0,0,1-1.538-.681,3.161,3.161,0,0,1-.529-1.972,2.839,2.839,0,0,1,.656-1.969,2.231,2.231,0,0,1,1.747-.733,3.991,3.991,0,0,1,1.807.434L422.978,72a5.889,5.889,0,0,0-2.354-.488,4.169,4.169,0,0,0-3.046,1.074,4,4,0,0,0-1.1,2.995,4.386,4.386,0,0,0,.947,3.03,3.492,3.492,0,0,0,2.742,1.055,9.386,9.386,0,0,0,1.381-.1,8.881,8.881,0,0,0,1.44-.35V75.1h-3.146v1.4Z" transform="translate(-405 -55)"/>
</svg>
