<svg xmlns="http://www.w3.org/2000/svg" xmlns:xlink="http://www.w3.org/1999/xlink" width="16" height="12" viewBox="0 0 16 12"><defs><path id="4dn5a" d="M910.4 31h-12.8a1.6 1.6 0 0 1-1.6-1.6v-8.8a1.6 1.6 0 0 1 1.6-1.6h12.8a1.6 1.6 0 0 1 1.6 1.6v8.8a1.6 1.6 0 0 1-1.6 1.6zm-12.517-2.118l.234.235a.386.386 0 0 0 .283.117c.11 0 .205-.04.283-.117l2.634-2.635a.4.4 0 0 0 0-.565l-.234-.235a.4.4 0 0 0-.566 0l-2.634 2.635a.385.385 0 0 0-.117.283c0 .11.039.204.117.282zM910.1 21.1l-.236-.236a.399.399 0 0 0-.546-.018l-5.055 4.323a.397.397 0 0 1-.527 0l-5.054-4.323a.399.399 0 0 0-.547.018l-.235.236a.387.387 0 0 0-.117.294.386.386 0 0 0 .134.287l5.817 5.082a.398.398 0 0 0 .532 0l5.817-5.082a.386.386 0 0 0 .134-.287.387.387 0 0 0-.117-.294zm.017 7.217l-2.634-2.635a.4.4 0 0 0-.566 0l-.234.235a.4.4 0 0 0 0 .565l2.634 2.635a.386.386 0 0 0 .283.117c.11 0 .205-.04.283-.117l.234-.235a.386.386 0 0 0 .117-.282c0-.11-.039-.205-.117-.283z"/></defs><g><g transform="translate(-896 -19)"><use fill="#fff" xlink:href="#4dn5a"/></g></g></svg>