<svg xmlns="http://www.w3.org/2000/svg" xmlns:xlink="http://www.w3.org/1999/xlink" preserveAspectRatio="xMidYMid" width="75" height="75" viewBox="0 0 75 75">
  <defs>
    <style>
      .cls-1 {
        fill: #c81919;
        fill-rule: evenodd;
      }
    </style>
  </defs>
  <path d="M74.760,37.100 C74.798,37.438 74.978,37.750 74.868,38.074 C75.245,38.418 74.518,39.007 74.846,39.317 C74.801,39.827 74.696,40.331 74.648,40.841 C74.576,41.397 75.061,41.948 74.820,42.469 C74.511,42.896 75.003,43.580 74.486,43.858 C74.401,44.285 74.299,44.711 74.315,45.162 C74.151,45.735 73.992,46.320 73.883,46.898 C73.802,47.178 73.553,47.321 73.850,47.526 C73.718,47.987 73.759,48.527 73.250,48.756 C73.205,49.246 73.037,49.677 72.930,50.148 C72.859,50.619 72.913,51.089 72.578,51.488 C72.556,52.024 72.228,52.438 72.089,52.907 C71.971,53.530 71.584,54.072 71.430,54.683 C71.077,55.217 70.540,55.631 70.324,56.252 C69.939,56.587 69.772,57.069 69.432,57.453 C69.054,57.786 68.924,58.330 68.557,58.656 C68.368,59.106 67.873,59.277 67.663,59.677 C67.358,60.164 66.896,60.482 66.460,60.849 C66.284,61.254 66.099,62.027 65.446,61.763 C65.205,62.051 65.223,62.674 64.802,62.955 C64.548,63.204 64.291,63.463 64.020,63.702 L63.818,64.168 C63.643,64.574 63.250,64.815 62.831,64.832 C62.713,64.986 62.589,65.135 62.437,65.246 C61.886,65.766 61.336,66.307 60.680,66.698 C60.153,66.920 59.855,67.515 59.322,67.805 C58.932,68.184 58.330,68.220 57.999,68.677 C57.354,69.043 56.796,69.559 56.119,69.881 C55.231,70.349 54.294,70.728 53.439,71.255 C53.333,71.301 53.220,71.328 53.107,71.355 C53.106,71.357 53.104,71.358 53.102,71.360 C52.892,71.566 52.608,71.681 52.311,71.681 C52.186,71.681 52.054,71.682 51.927,71.682 C51.867,71.714 51.803,71.733 51.746,71.775 C51.175,72.078 50.482,71.961 49.931,72.317 C49.424,72.561 48.906,72.742 48.383,72.936 C47.653,73.352 46.779,73.424 46.042,73.827 C45.453,74.062 44.792,73.937 44.212,74.202 C43.660,74.294 43.127,74.478 42.558,74.487 C41.284,74.586 40.000,74.627 38.741,74.848 C38.062,74.903 37.378,74.936 36.701,74.999 C36.565,74.993 36.430,74.980 36.295,74.962 L36.295,74.962 C35.491,74.881 34.692,74.773 33.898,74.630 C33.257,74.647 32.613,74.599 31.991,74.430 C31.061,74.181 30.086,74.114 29.173,73.811 C28.594,73.753 28.001,73.786 27.445,73.582 C26.364,73.232 25.187,73.152 24.177,72.609 C23.806,72.239 23.426,71.983 22.891,72.010 C22.851,71.990 22.807,71.977 22.766,71.959 C21.834,71.964 20.913,71.967 20.017,71.967 C19.642,71.967 19.292,71.783 19.084,71.475 L17.921,69.767 C17.855,69.672 17.831,69.560 17.799,69.453 C17.291,69.117 16.671,68.963 16.224,68.540 C15.430,68.014 14.681,67.423 14.027,66.730 C13.460,66.429 13.394,65.726 12.847,65.447 C12.307,65.360 11.982,64.866 11.651,64.508 C11.090,64.517 10.942,63.855 10.530,63.561 C9.999,63.026 9.568,62.384 8.972,61.917 C8.493,61.654 8.279,61.092 7.899,60.714 C7.394,60.100 6.735,59.597 6.378,58.876 C5.972,58.544 5.868,58.010 5.550,57.629 C5.314,57.153 4.892,56.710 4.790,56.204 C4.502,55.743 4.355,55.206 4.061,54.730 C3.993,54.154 3.390,53.916 3.260,53.348 C2.967,52.736 2.623,52.144 2.468,51.476 C2.244,50.917 2.193,50.285 1.924,49.761 C1.684,49.345 1.784,48.710 1.470,48.417 C1.864,48.182 0.969,47.641 1.275,47.243 C1.390,47.191 2.052,47.175 1.617,47.163 C1.032,47.224 0.908,46.524 0.982,46.087 C1.010,45.631 0.393,45.503 0.545,44.960 C0.406,44.505 0.271,44.030 0.392,43.588 C-0.103,43.404 0.483,42.708 0.197,42.400 C0.113,42.082 0.504,41.825 0.273,41.461 C0.161,41.052 0.018,40.583 0.123,40.081 C0.078,39.642 0.481,39.213 0.003,38.991 C0.198,38.477 -0.150,37.892 0.145,37.407 C0.311,36.878 0.001,36.305 0.098,35.737 C0.120,34.486 -0.076,33.198 0.299,31.984 C0.065,31.608 0.335,31.382 0.702,31.369 C0.599,31.261 0.017,31.239 0.248,30.819 C0.405,30.572 0.805,30.547 0.434,30.241 C0.076,29.836 0.657,29.588 0.429,29.114 C0.522,28.611 0.496,28.089 0.712,27.591 C0.637,27.096 1.489,27.370 1.419,27.056 C0.994,27.245 0.769,27.012 0.995,26.602 C0.930,26.046 1.429,25.678 1.507,25.134 C1.697,24.583 1.978,24.088 2.233,23.573 C2.448,23.137 2.516,22.655 2.779,22.247 C3.005,21.802 3.257,21.369 3.445,20.901 C3.632,20.297 4.214,19.910 4.336,19.275 C4.503,18.779 4.882,18.380 5.099,17.912 C5.263,17.391 5.747,16.967 6.052,16.509 C6.407,16.060 6.572,15.485 6.978,15.072 C6.986,14.796 7.708,15.035 7.301,14.731 C7.155,14.185 8.034,14.130 8.118,13.800 C8.102,13.306 8.785,12.989 9.062,12.591 C9.476,12.179 9.737,11.651 10.219,11.299 C10.531,10.984 10.900,10.805 10.997,10.347 C11.202,10.099 11.948,10.341 11.925,10.106 C11.283,9.987 12.315,9.647 12.356,9.319 C12.820,8.908 13.486,8.771 13.895,8.260 C14.397,7.967 14.777,7.520 15.225,7.154 C15.635,6.807 16.169,6.588 16.519,6.190 C16.721,5.732 17.565,5.876 17.640,5.290 C17.987,4.962 18.561,5.147 18.732,4.714 C19.298,4.624 19.603,4.033 20.151,3.945 C20.699,3.610 21.364,3.499 21.860,3.056 C22.352,2.633 23.090,2.720 23.656,2.403 C23.907,2.316 24.163,2.220 23.863,2.045 C24.083,1.741 24.497,2.412 24.745,2.011 C24.999,2.122 25.398,1.754 25.465,1.855 C25.700,1.958 25.818,1.304 26.206,1.559 C26.695,1.519 27.183,1.374 27.672,1.323 C27.640,0.974 28.214,0.975 28.440,0.912 C28.686,1.108 29.377,1.158 28.936,0.797 C29.345,0.469 29.945,0.644 30.439,0.595 C31.463,0.495 32.471,0.269 33.479,0.070 C34.433,-0.040 35.403,0.017 36.364,-0.006 C38.472,0.009 40.582,-0.024 42.689,0.065 C43.154,0.260 43.609,0.209 44.120,0.226 C44.792,0.250 45.451,0.398 46.123,0.403 C46.631,0.557 47.154,0.552 47.639,0.773 C48.051,0.923 48.757,0.968 48.614,1.425 C49.062,0.969 49.745,1.429 50.256,1.582 C50.790,1.692 51.279,1.933 51.778,2.143 C52.447,2.290 52.995,2.713 53.597,3.010 C53.947,3.437 54.557,3.459 54.915,3.871 C55.119,4.041 55.190,4.418 55.369,4.006 C55.840,4.252 56.317,4.601 56.830,4.831 C57.413,5.163 58.009,5.495 58.477,5.980 C58.988,6.423 59.628,6.671 60.129,7.130 C60.526,7.516 61.082,7.710 61.416,8.153 C61.917,8.434 62.345,8.820 62.796,9.170 C63.370,9.419 63.550,10.112 63.995,10.490 C64.586,10.673 64.842,11.191 65.331,11.487 C65.986,11.888 66.361,12.592 66.892,13.128 C67.074,13.408 67.895,14.129 67.194,14.236 C67.468,14.392 67.789,14.065 68.019,14.484 C68.639,15.017 68.834,15.849 69.381,16.437 C69.606,16.741 69.447,17.327 69.950,17.339 C70.002,17.916 70.580,18.191 70.734,18.733 C70.961,19.247 71.059,19.792 71.304,20.290 C71.470,20.803 71.755,21.304 71.954,21.822 C72.088,22.307 72.201,22.798 72.434,23.250 C72.691,23.780 72.758,24.362 72.852,24.930 C73.118,25.402 73.136,25.951 73.326,26.454 C73.514,27.158 73.795,27.846 73.840,28.580 C74.092,29.397 74.232,30.242 74.330,31.091 C74.486,31.534 74.369,32.088 74.690,32.406 C74.691,32.663 74.269,32.845 74.646,33.061 C74.936,33.876 74.898,34.763 74.833,35.612 C74.956,36.107 74.993,36.629 74.760,37.100 ZM0.571,39.790 C0.189,39.742 0.651,39.924 0.571,39.790 ZM0.676,31.664 C0.302,31.350 0.536,32.003 0.676,31.664 ZM65.722,61.277 L65.765,61.237 L65.790,61.193 C65.704,60.872 65.260,61.536 65.722,61.277 ZM69.794,28.883 C69.472,28.458 69.585,27.842 69.228,27.369 C69.166,27.256 69.118,27.136 69.070,27.017 C69.025,26.957 68.983,26.893 68.938,26.833 C68.867,26.973 68.802,27.117 68.981,27.224 C68.883,27.440 69.205,27.777 69.117,27.834 C69.026,28.034 69.597,28.133 69.375,28.462 C69.410,28.876 69.537,29.290 69.581,29.704 C69.885,29.677 69.884,30.164 69.939,30.355 C69.769,30.562 69.726,31.139 70.034,30.781 C70.013,30.607 69.987,30.433 69.973,30.258 C69.926,29.765 69.597,29.389 69.794,28.883 ZM70.261,34.823 C70.266,34.860 70.271,34.949 70.331,34.956 C70.523,34.845 70.295,34.427 70.261,34.823 ZM70.395,35.945 C70.569,35.812 70.463,35.032 70.382,35.607 C70.394,35.714 70.276,35.868 70.395,35.945 ZM70.378,41.205 C70.567,40.754 70.475,40.292 70.423,39.822 C70.385,38.557 70.474,37.272 70.175,36.029 C70.086,35.504 70.246,34.976 70.132,34.451 C70.034,34.289 70.563,34.135 70.281,34.085 C70.029,34.405 69.911,33.491 69.842,33.286 C69.533,32.062 69.384,30.803 69.005,29.595 C68.922,29.185 68.886,28.807 68.630,28.465 C68.502,28.087 68.915,27.777 68.561,27.453 C68.415,27.352 68.624,27.758 68.642,27.846 C68.117,27.930 68.145,27.042 67.823,26.750 C67.608,26.286 67.327,25.841 67.203,25.335 C66.988,24.865 66.680,24.442 66.496,23.955 C66.267,23.578 66.071,23.171 65.913,22.760 C65.884,22.724 65.856,22.690 65.826,22.655 C66.268,23.924 66.675,25.210 67.003,26.531 C68.652,30.616 69.495,34.763 69.495,38.954 C69.495,42.368 68.946,45.788 67.858,49.204 L68.208,48.396 C69.028,46.447 69.705,44.382 70.237,42.206 C70.297,41.875 70.351,41.542 70.378,41.205 ZM69.679,31.063 C69.722,30.741 69.563,31.131 69.679,31.063 ZM67.930,25.434 C67.799,25.408 67.428,25.506 67.813,25.592 L67.873,25.555 C67.924,25.526 67.952,25.503 67.966,25.484 C67.954,25.467 67.942,25.451 67.930,25.434 ZM65.749,22.176 C65.704,22.179 65.673,22.212 65.785,22.281 C65.800,22.266 65.791,22.260 65.796,22.249 C65.781,22.224 65.765,22.201 65.749,22.176 ZM35.980,6.650 C35.990,6.649 36.000,6.649 36.010,6.648 C36.005,6.615 35.993,6.617 35.980,6.650 ZM19.621,12.931 C19.218,13.148 18.956,13.433 18.597,13.654 C18.210,13.929 17.825,14.213 17.468,14.539 C17.086,14.833 16.836,15.258 16.412,15.511 C16.400,15.519 16.391,15.529 16.379,15.537 C15.628,16.411 14.892,17.308 14.196,18.241 C16.308,16.453 18.234,14.697 19.636,12.921 C19.631,12.924 19.626,12.928 19.621,12.931 ZM7.943,37.234 L7.969,37.176 L7.970,37.176 C8.021,36.786 7.994,36.340 8.067,35.932 C8.195,35.466 8.269,34.975 8.041,34.527 C8.000,34.071 8.211,33.640 8.222,33.185 C8.288,32.546 8.347,31.897 8.554,31.287 C8.626,30.770 8.855,30.292 8.976,29.782 C9.156,29.308 9.132,28.800 9.383,28.355 C9.640,27.984 9.793,27.547 10.010,27.147 C10.131,26.700 10.425,26.318 10.521,25.867 C10.844,25.487 11.058,25.023 11.190,24.543 C11.336,24.112 11.465,23.687 11.773,23.335 C11.817,23.259 11.856,23.181 11.898,23.104 C11.311,23.611 10.728,24.119 10.165,24.635 C8.144,28.542 6.978,32.336 6.719,35.794 C6.873,37.768 7.087,39.784 7.378,41.807 L8.878,45.581 C8.774,45.149 8.543,44.754 8.574,44.298 C8.343,42.728 8.116,41.157 8.010,39.573 C7.966,38.795 7.875,38.012 7.943,37.234 ZM22.780,12.303 C22.877,12.251 22.971,12.191 23.070,12.140 C23.790,11.900 24.331,11.300 25.080,11.131 C25.449,10.889 25.869,10.793 26.223,10.528 C26.599,10.337 26.988,10.162 27.394,10.045 C27.576,9.923 27.778,9.837 27.985,9.760 C26.419,10.042 24.911,10.379 23.489,10.809 C23.299,11.317 23.055,11.813 22.780,12.303 ZM47.098,8.575 C46.124,8.576 45.171,8.582 44.224,8.590 C44.720,8.700 45.219,8.806 45.699,8.975 C46.175,9.015 46.564,9.238 47.011,9.383 C47.466,9.498 47.917,9.519 48.285,9.837 C48.805,10.106 49.399,10.201 49.887,10.534 C50.309,10.722 50.710,10.878 51.130,11.104 C51.678,11.374 52.254,11.610 52.761,11.949 C53.155,12.223 53.620,12.433 54.030,12.702 C54.776,13.032 55.403,13.569 56.039,14.065 C56.218,14.203 56.414,14.315 56.606,14.434 C55.693,13.407 54.739,12.384 53.708,11.368 L47.098,8.575 ZM32.809,6.908 C32.785,6.899 32.768,6.900 32.753,6.912 C32.772,6.910 32.791,6.909 32.809,6.908 ZM66.278,22.990 C66.281,23.031 66.294,23.064 66.329,23.068 C66.312,23.042 66.295,23.016 66.278,22.990 ZM67.251,24.884 C67.533,24.700 66.979,24.723 67.251,24.884 ZM68.408,27.170 C68.671,26.898 67.995,27.193 68.408,27.170 ZM68.961,28.369 C68.912,28.426 68.780,28.629 68.926,28.653 C69.150,28.521 69.311,27.962 68.961,28.369 ZM35.983,68.859 C44.772,68.859 52.870,66.085 58.995,61.018 C59.657,60.201 60.245,59.365 60.784,58.528 C60.724,58.596 60.657,58.660 60.601,58.732 C60.347,59.017 60.004,59.478 59.699,59.580 C59.650,59.407 59.814,59.267 59.929,59.162 L59.929,59.162 C60.419,58.699 60.852,58.184 61.305,57.688 C61.781,56.889 62.217,56.094 62.590,55.316 C63.106,54.244 63.558,53.130 63.962,51.989 C63.788,52.298 63.617,52.609 63.378,52.878 C63.184,53.288 62.688,53.517 62.675,53.987 C62.319,54.351 62.062,54.806 61.735,55.206 C61.332,55.720 60.868,56.184 60.434,56.673 C59.321,57.876 58.085,58.962 56.858,60.051 C56.445,60.260 56.131,60.570 55.808,60.888 C55.451,61.193 55.059,61.467 54.661,61.710 C54.399,62.030 53.906,62.139 53.559,62.383 C53.120,62.565 52.755,62.792 52.345,63.029 C51.891,63.269 51.400,63.427 50.957,63.692 C50.474,63.822 50.083,64.141 49.601,64.249 C49.231,64.570 48.696,64.501 48.311,64.763 C47.638,65.027 46.975,65.363 46.262,65.532 C45.962,65.651 45.660,65.659 45.392,65.835 C44.868,65.843 44.345,65.961 43.826,66.038 C43.405,66.109 42.927,66.307 42.558,66.219 C41.859,66.365 41.133,66.339 40.427,66.448 C40.040,66.812 39.474,66.440 38.999,66.574 C38.545,66.577 38.070,66.719 37.628,66.606 C37.488,66.364 37.358,66.836 37.101,66.640 C36.468,66.568 35.826,66.567 35.201,66.443 C34.775,66.620 34.317,66.332 33.858,66.347 C33.415,66.237 32.965,66.181 32.518,66.126 C32.079,65.893 31.590,65.889 31.106,65.818 C30.585,65.739 30.152,65.414 29.637,65.324 C29.258,65.158 28.879,65.024 28.479,64.924 C28.014,64.706 27.517,64.591 27.024,64.460 C26.665,64.216 26.250,64.054 25.829,63.923 C25.094,63.688 24.507,63.148 23.766,62.929 C23.418,62.603 22.999,62.410 22.603,62.165 C22.231,62.014 21.850,61.798 21.579,61.509 C20.901,61.177 20.288,60.720 19.665,60.297 C19.400,59.896 18.763,59.877 18.670,59.379 C18.600,59.020 17.975,59.243 17.882,58.803 C17.565,58.438 17.103,58.221 16.816,57.819 C16.476,57.494 16.279,57.051 15.981,56.709 C15.569,56.420 15.282,55.973 14.935,55.600 C14.638,55.204 14.389,54.793 14.060,54.427 C13.793,53.973 13.575,53.491 13.242,53.078 C12.772,52.253 12.315,51.419 11.882,50.575 C11.598,50.025 11.417,49.428 11.115,48.888 C10.817,48.527 10.875,48.031 10.707,47.607 C10.647,47.006 10.357,46.459 10.238,45.869 C10.042,45.183 9.919,44.474 9.681,43.800 C9.536,43.353 9.496,42.872 9.408,42.406 C9.267,41.214 9.251,40.010 9.146,38.815 C8.930,38.373 9.183,37.931 9.081,37.478 C9.055,36.898 9.015,36.308 9.084,35.731 L9.083,35.731 C9.211,35.315 9.064,34.876 9.281,34.465 C9.326,33.910 9.590,33.394 9.656,32.837 C9.785,32.353 9.793,31.853 9.866,31.366 C10.045,30.837 9.928,30.256 10.177,29.744 C10.386,28.964 10.489,28.139 10.908,27.430 C11.150,26.864 11.388,26.294 11.727,25.775 C12.030,25.109 12.634,24.603 12.831,23.890 C13.150,23.602 13.343,23.198 13.665,22.895 C14.071,22.446 14.252,21.830 14.753,21.461 C15.067,20.991 15.523,20.621 15.854,20.157 C16.309,19.647 16.866,19.230 17.259,18.665 C17.535,18.252 17.997,18.035 18.339,17.682 C18.656,17.335 19.081,17.117 19.422,16.802 C19.872,16.312 20.426,15.929 20.941,15.511 C21.283,15.139 21.784,14.960 22.161,14.624 C22.541,14.438 22.821,14.173 23.166,13.915 C23.593,13.725 23.947,13.431 24.364,13.227 C24.978,12.883 25.585,12.499 26.259,12.284 C26.593,12.058 26.956,11.919 27.317,11.732 C27.746,11.580 28.166,11.427 28.594,11.252 C29.341,10.994 30.117,10.783 30.823,10.434 C31.252,10.382 31.619,10.118 32.054,10.075 C32.568,9.988 33.076,9.862 33.573,9.744 C33.902,9.763 34.151,9.552 34.446,9.717 C35.104,9.548 35.795,9.522 36.472,9.484 C37.295,9.589 38.137,9.543 38.950,9.726 C39.448,9.795 39.982,9.660 40.454,9.862 C40.561,10.165 39.823,9.941 39.618,9.989 C38.157,9.884 36.691,9.966 35.229,9.959 C35.001,9.653 34.702,10.163 34.332,10.091 C33.607,10.219 32.842,10.175 32.159,10.479 C31.706,10.439 31.311,10.730 30.882,10.745 C30.357,10.824 29.964,11.272 29.430,11.350 C29.036,11.494 28.662,11.743 28.260,11.810 C27.848,12.236 27.222,12.351 26.709,12.627 C26.252,12.831 25.806,13.070 25.324,13.209 C24.940,13.413 24.657,13.675 24.310,13.925 C24.130,14.179 23.826,13.962 23.819,14.294 C23.462,14.562 23.072,14.807 22.773,15.098 C22.294,15.235 21.984,15.665 21.522,15.823 C21.154,16.144 20.794,16.483 20.342,16.694 C19.996,17.017 19.615,17.308 19.268,17.600 C19.049,17.964 18.600,18.124 18.321,18.446 C18.106,18.757 17.535,18.887 17.639,19.303 C17.211,19.346 16.894,19.751 16.672,20.064 C16.373,20.356 16.197,20.760 15.870,21.038 C15.474,21.439 15.186,21.926 14.781,22.321 C14.370,22.740 14.057,23.233 13.759,23.730 C13.418,24.145 13.232,24.659 12.902,25.085 C12.593,25.534 12.397,26.044 12.077,26.486 C11.793,26.950 11.775,27.495 11.679,28.005 C11.562,28.445 11.169,28.883 11.174,29.290 C11.440,29.597 10.796,29.887 10.877,30.281 C10.744,30.729 10.521,31.143 10.484,31.615 C10.266,32.317 10.076,33.027 9.973,33.755 C9.795,34.593 9.653,35.442 9.679,36.301 L9.679,37.285 C9.588,38.454 9.505,38.408 9.636,38.961 C9.758,39.343 9.718,39.804 9.854,40.231 C9.940,40.767 10.116,41.290 10.081,41.839 C10.205,42.235 10.233,42.653 10.288,43.066 C10.397,43.515 10.469,43.958 10.546,44.411 C10.488,44.933 10.840,45.347 10.849,45.847 C10.862,46.076 10.988,46.421 10.950,45.998 C11.233,46.208 11.017,46.786 11.336,47.065 C11.292,47.345 11.272,47.643 11.600,47.668 C11.752,48.106 11.866,48.545 12.057,48.982 C12.290,49.400 12.348,49.863 12.563,50.250 C12.985,50.579 12.971,51.131 13.218,51.559 C13.295,52.043 13.798,52.234 13.818,52.715 C14.192,52.891 14.196,53.472 14.580,53.742 C14.976,54.100 15.113,54.633 15.523,54.983 C15.705,55.399 16.026,55.720 16.292,56.096 C16.598,56.469 16.932,56.826 17.324,57.112 C17.706,57.379 17.867,57.889 18.260,58.158 C18.771,58.621 19.265,59.110 19.679,59.658 C20.028,59.904 20.454,60.050 20.734,60.393 C21.064,60.747 21.487,60.989 21.897,61.241 C22.268,61.495 22.626,61.824 23.048,61.970 C23.434,62.259 23.921,62.391 24.282,62.720 C24.960,63.063 25.595,63.492 26.321,63.740 C27.099,64.005 27.831,64.382 28.628,64.597 C29.118,64.782 29.667,64.828 30.087,65.162 C30.510,65.323 30.936,65.486 31.401,65.558 C32.399,65.757 33.382,66.071 34.409,66.079 C36.374,66.299 38.359,66.190 40.329,66.085 C41.670,65.964 42.985,65.654 44.328,65.546 C44.758,65.506 45.087,65.228 45.528,65.394 C45.899,65.121 46.437,65.217 46.849,64.915 C47.388,64.627 48.018,64.556 48.549,64.253 C48.691,64.032 48.595,63.772 48.743,64.135 C49.143,64.240 49.543,63.813 49.945,63.718 C50.417,63.658 50.809,63.415 51.245,63.243 C51.679,63.039 52.080,62.749 52.560,62.658 C53.072,62.385 53.561,62.069 54.061,61.773 C54.715,61.363 55.248,60.799 55.908,60.396 C56.559,59.814 57.296,59.329 57.953,58.750 C58.816,58.047 59.584,57.241 60.261,56.365 C60.794,55.721 61.387,55.120 61.811,54.398 C62.204,54.274 62.462,54.012 62.599,53.616 C62.947,53.111 63.258,52.580 63.607,52.076 C63.935,51.723 64.100,51.270 64.311,50.844 C66.311,44.525 66.697,37.388 65.560,30.578 C65.375,30.119 65.314,29.619 65.120,29.158 C64.908,28.500 64.684,27.846 64.396,27.216 C64.278,26.790 64.005,26.441 63.860,26.027 C63.580,25.691 63.445,25.316 63.242,24.936 C62.989,24.445 62.649,24.001 62.404,23.519 C62.164,23.123 62.012,22.676 61.632,22.365 C61.558,22.115 61.051,21.658 61.336,21.458 L61.336,21.459 C61.632,21.688 61.696,22.148 62.023,22.383 C62.337,22.945 62.866,23.392 63.040,24.028 C63.253,24.428 63.512,24.796 63.764,25.176 C63.960,25.602 64.224,26.004 64.366,26.450 C64.418,26.856 64.821,27.137 64.898,27.549 C64.946,27.769 65.023,27.982 65.084,28.198 C65.022,27.918 64.982,27.631 64.915,27.352 C63.333,23.433 60.939,19.565 57.759,15.764 C57.510,15.564 57.264,15.361 57.003,15.180 C56.535,14.941 56.165,14.566 55.726,14.289 C55.306,14.124 54.928,13.859 54.568,13.589 C54.148,13.396 53.815,13.074 53.419,12.837 C52.960,12.674 52.586,12.366 52.120,12.212 C51.562,11.831 50.957,11.521 50.399,11.139 C49.951,10.945 49.582,10.618 49.091,10.534 C48.703,10.345 48.325,10.117 47.891,10.049 C47.363,9.703 46.742,9.546 46.128,9.425 C45.669,9.326 45.218,9.095 44.750,9.092 C44.168,9.036 43.590,8.920 43.004,8.883 C42.480,8.815 41.942,8.766 41.429,8.634 C37.019,8.728 32.936,8.973 29.225,9.550 C29.196,9.567 29.171,9.583 29.127,9.606 C28.733,9.881 28.348,10.133 27.854,10.209 C27.249,10.424 26.692,10.742 26.125,11.031 C25.608,11.195 25.143,11.493 24.665,11.744 C24.262,12.015 23.826,12.228 23.395,12.446 C22.994,12.708 22.597,12.976 22.195,13.237 C20.353,15.972 17.362,18.499 14.243,21.112 C13.721,21.548 13.202,21.988 12.684,22.429 C12.154,23.265 11.674,24.132 11.334,25.057 C10.821,26.078 10.549,27.192 10.114,28.242 C9.699,29.299 9.436,30.405 9.106,31.488 C8.823,32.648 8.706,33.840 8.595,35.025 C8.456,36.754 8.494,38.491 8.593,40.221 C8.760,40.980 8.782,41.764 8.911,42.532 C9.032,43.325 9.046,44.151 9.366,44.900 C9.436,45.734 9.717,46.531 9.883,47.349 C10.157,48.218 10.553,49.045 10.837,49.912 C11.286,51.141 11.979,52.266 12.534,53.447 C12.465,53.949 12.018,53.196 11.947,52.992 C11.868,52.803 11.747,52.638 11.621,52.477 L13.403,56.956 C17.298,61.340 21.987,64.921 27.056,67.273 C27.395,67.379 27.731,67.486 28.041,67.636 C28.491,67.742 28.891,67.998 29.354,68.070 C29.752,68.351 30.231,68.421 30.712,68.441 C31.331,68.475 31.942,68.573 32.553,68.661 C32.670,68.664 32.780,68.695 32.887,68.735 C33.918,68.814 34.952,68.859 35.983,68.859 ZM6.303,23.763 C6.687,22.791 7.106,21.867 7.561,20.988 L6.871,21.574 C6.677,21.867 6.485,22.162 6.301,22.461 C6.302,22.888 6.302,23.317 6.303,23.763 ZM29.073,7.370 C29.202,7.299 29.334,7.261 29.454,7.318 C29.535,7.307 29.618,7.297 29.700,7.285 C29.887,7.094 30.250,7.047 30.513,7.090 C30.911,7.114 31.023,6.591 31.497,6.720 C31.894,6.602 32.308,6.488 32.695,6.590 C32.855,6.171 33.462,6.667 33.731,6.425 C34.009,6.354 34.233,6.685 34.550,6.489 C34.908,6.395 35.317,6.274 35.755,6.362 C36.107,6.327 36.445,6.587 36.649,6.319 C32.628,6.175 28.740,6.740 25.267,8.083 C26.493,7.798 27.770,7.570 29.073,7.370 ZM37.902,3.290 C36.203,3.386 34.415,3.631 32.508,4.098 C32.481,4.105 32.454,4.115 32.427,4.122 L37.902,3.290 ZM41.845,3.948 C42.440,4.002 43.030,4.094 43.591,4.306 C43.694,4.608 42.962,4.234 42.733,4.285 C42.699,4.282 42.665,4.283 42.631,4.280 L45.194,5.363 C46.287,5.646 47.373,5.988 48.453,6.363 C49.117,6.363 49.790,6.366 50.463,6.368 C50.011,6.165 49.547,6.002 49.063,5.894 C48.664,5.733 48.122,5.582 47.823,5.357 C48.740,5.477 49.586,5.876 50.479,6.096 C47.652,4.506 44.252,3.400 40.220,3.261 L41.845,3.948 ZM54.652,9.072 C54.468,8.909 54.271,8.751 54.080,8.591 C53.957,8.590 53.834,8.590 53.711,8.590 C54.026,8.748 54.341,8.906 54.652,9.072 ZM62.905,60.640 L63.055,60.295 C62.932,60.420 62.803,60.541 62.679,60.665 C62.755,60.658 62.831,60.632 62.905,60.640 ZM57.266,67.695 C58.010,67.515 58.444,66.818 59.103,66.493 C59.606,65.999 60.230,65.647 60.716,65.131 C61.052,64.802 61.465,64.577 61.814,64.265 C61.800,64.241 61.777,64.223 61.765,64.197 C59.948,65.776 58.049,67.129 56.086,68.267 C56.037,68.320 55.985,68.373 55.936,68.427 C56.365,68.148 56.838,67.976 57.266,67.695 ZM35.282,73.342 C35.256,73.393 35.219,73.433 35.187,73.478 C36.985,73.518 38.789,73.508 40.582,73.365 L40.668,73.353 L40.668,73.353 L40.668,73.353 C41.261,73.243 41.845,73.092 42.452,73.076 C43.043,73.014 43.609,72.815 44.207,72.782 C44.769,72.655 45.340,72.604 45.913,72.534 C46.607,72.421 47.299,72.245 47.929,71.938 C48.251,71.891 48.558,71.796 48.862,71.693 C48.455,71.695 48.053,71.697 47.642,71.700 C45.277,72.278 42.858,72.574 40.405,72.574 C38.647,72.574 36.871,72.406 35.087,72.103 C35.396,72.429 35.492,72.917 35.282,73.342 ZM27.369,72.262 C27.976,72.428 28.551,72.714 29.182,72.806 C29.754,72.910 30.340,72.891 30.902,73.059 C31.429,73.136 31.960,73.180 32.491,73.227 L29.743,71.902 C28.543,71.915 27.354,71.926 26.175,71.936 C26.562,72.088 26.938,72.279 27.369,72.262 ZM20.420,69.466 C20.601,69.562 20.783,69.656 20.965,69.752 C22.266,69.749 23.610,69.742 24.976,69.732 C24.868,69.682 24.759,69.635 24.654,69.580 C24.475,69.534 24.305,69.461 24.137,69.385 C22.804,69.003 21.491,68.577 20.231,68.068 C20.271,68.256 20.273,68.453 20.208,68.645 L20.092,68.986 L20.420,69.466 ZM15.553,62.363 L15.665,62.645 L16.140,62.874 C15.943,62.705 15.747,62.535 15.553,62.363 ZM15.491,66.729 C15.609,66.797 15.728,66.864 15.847,66.930 C15.594,66.683 15.358,66.421 15.115,66.165 C14.967,66.371 15.486,66.484 15.491,66.729 ZM11.897,63.456 C12.604,63.409 12.684,64.253 13.197,64.589 C13.623,64.941 14.147,65.196 14.434,65.703 C14.496,66.022 14.814,66.089 15.058,66.101 C14.588,65.599 14.113,65.101 13.681,64.566 C12.875,64.010 12.111,63.416 11.384,62.793 C11.573,63.002 11.757,63.213 11.897,63.456 ZM8.502,56.010 C8.703,56.309 8.903,56.609 9.109,56.905 C8.618,55.777 8.174,54.621 7.773,53.444 C7.422,52.920 7.086,52.389 6.757,51.851 C7.148,53.323 7.742,54.709 8.502,56.010 ZM5.540,44.546 C5.477,44.186 5.418,43.827 5.360,43.468 C5.356,43.681 5.353,43.895 5.352,44.111 C5.411,44.257 5.479,44.400 5.540,44.546 ZM0.879,43.450 C0.709,43.285 0.711,43.717 0.879,43.450 ZM0.907,30.195 L0.980,30.171 L1.040,30.140 C1.194,29.884 0.260,30.319 0.907,30.195 ZM1.184,28.679 L1.174,28.655 L1.121,28.616 C0.715,28.377 0.834,28.814 1.184,28.679 ZM1.283,29.383 C0.955,28.663 1.080,29.855 1.283,29.383 ZM1.184,28.358 L1.174,28.334 L1.121,28.295 C0.715,28.056 0.834,28.493 1.184,28.358 ZM1.285,27.853 C1.356,27.922 1.547,28.062 1.607,27.900 C1.513,27.550 0.778,27.412 1.285,27.853 ZM2.819,23.082 C2.602,22.758 2.629,23.394 2.819,23.082 ZM2.694,24.121 C2.745,24.097 2.813,24.062 2.819,23.997 C2.670,23.734 2.185,24.318 2.694,24.121 ZM3.951,21.312 C3.817,21.099 3.694,21.640 3.951,21.312 ZM4.087,26.980 C3.938,27.375 3.822,27.783 3.738,28.195 C3.702,28.358 3.651,28.520 3.597,28.681 C3.764,28.432 3.924,28.179 4.102,27.934 C4.096,27.611 4.092,27.298 4.087,26.980 ZM3.385,37.526 C3.517,35.920 3.695,34.388 3.920,32.927 C3.411,34.374 3.193,35.898 3.385,37.526 ZM3.980,48.535 C3.936,48.393 3.889,48.252 3.847,48.110 C3.746,47.830 3.626,47.049 3.950,47.675 C3.950,47.633 3.946,47.593 3.946,47.551 C3.946,47.330 4.029,47.136 4.143,46.963 C4.002,46.656 3.867,46.346 3.733,46.036 C3.358,45.857 3.095,45.486 3.095,45.048 C3.095,44.866 3.100,44.695 3.101,44.515 C2.957,44.143 2.833,43.764 2.698,43.389 C2.651,43.533 2.701,43.940 2.532,43.689 L2.532,43.689 C2.424,43.253 2.360,42.804 2.327,42.355 C2.011,41.411 1.718,40.459 1.471,39.492 C0.540,35.844 1.278,32.676 2.893,29.827 C2.982,29.442 3.072,29.058 3.206,28.687 C3.255,28.142 3.517,27.696 3.688,27.184 C3.801,26.751 3.849,26.324 4.073,25.949 C4.058,24.530 4.056,23.191 4.055,21.946 C3.977,22.078 3.909,22.216 3.884,22.382 C3.567,22.890 3.554,23.519 3.131,23.968 C2.885,24.327 2.874,24.819 2.658,25.128 C2.890,25.533 2.159,25.696 2.244,25.998 C2.168,26.422 1.940,26.933 1.898,27.419 C1.747,27.747 1.903,28.381 1.544,28.492 C1.728,28.858 1.109,28.861 1.488,29.219 C1.544,29.660 1.357,30.249 1.014,30.456 C1.498,30.579 1.014,31.194 0.633,31.028 C0.827,31.118 1.319,31.587 1.037,31.977 C0.913,32.597 1.174,33.209 1.017,33.815 C0.930,34.799 0.992,35.789 0.865,36.771 C0.700,37.346 1.066,37.910 0.819,38.452 C0.950,38.842 0.891,39.413 0.975,39.666 C0.426,39.764 1.193,39.947 1.063,40.310 C1.179,41.101 1.373,41.935 1.130,42.719 C1.524,43.033 0.754,42.781 1.043,43.075 C1.559,43.605 1.578,44.383 1.594,45.072 C1.825,45.559 2.118,46.026 2.125,46.585 C2.252,47.080 2.539,47.549 2.396,48.032 C2.730,48.233 2.451,48.428 2.824,48.601 C2.974,49.238 2.913,49.969 3.318,50.524 C3.596,50.940 3.908,51.382 4.074,51.877 C4.275,52.488 4.723,52.991 4.887,53.622 C4.925,53.681 4.966,53.741 5.005,53.800 C4.423,52.149 4.073,50.390 3.980,48.535 ZM5.285,18.751 C4.911,18.436 5.145,19.090 5.285,18.751 ZM5.826,17.573 C5.445,17.524 5.906,17.706 5.826,17.573 ZM9.126,13.532 C8.957,13.367 8.958,13.799 9.126,13.532 ZM10.401,12.108 C10.332,11.774 10.082,12.538 10.401,12.108 ZM10.780,11.364 C10.405,11.186 10.773,11.777 10.780,11.364 ZM15.448,7.467 C15.067,7.418 15.528,7.599 15.448,7.467 ZM18.910,5.672 C18.741,5.507 18.743,5.938 18.910,5.672 ZM19.840,4.473 C19.699,4.171 19.505,4.738 19.840,4.473 ZM19.643,5.115 C19.691,5.101 19.847,5.129 19.846,5.044 C19.663,4.755 19.117,5.091 19.643,5.115 ZM20.448,4.424 C20.162,4.291 19.609,5.090 20.153,4.674 C20.302,4.469 21.067,4.592 20.448,4.424 ZM21.983,3.992 C21.765,3.669 21.792,4.304 21.983,3.992 ZM22.775,3.280 C22.487,2.796 22.671,3.987 22.819,3.348 L22.775,3.280 ZM24.680,2.666 C24.360,2.365 24.708,3.140 24.680,2.666 ZM26.096,2.033 C26.163,2.089 26.402,2.240 26.431,2.073 C26.275,1.817 25.615,1.632 26.096,2.033 ZM29.276,1.210 C28.895,1.161 29.356,1.343 29.276,1.210 ZM33.713,0.543 C33.757,0.538 33.863,0.531 33.870,0.463 C33.739,0.244 33.246,0.504 33.713,0.543 ZM34.638,0.404 C34.765,0.390 34.946,0.526 35.037,0.390 C34.880,0.191 33.960,0.312 34.638,0.404 ZM42.860,0.328 C42.479,0.279 42.940,0.461 42.860,0.328 ZM44.218,0.592 C44.481,0.603 44.782,0.653 45.029,0.552 C44.800,0.269 44.449,0.602 44.218,0.592 ZM47.763,1.327 C47.962,1.185 48.063,1.582 48.222,1.345 C48.152,1.131 47.529,0.848 47.763,1.327 ZM51.345,2.626 L51.424,2.619 L51.497,2.597 C51.258,2.390 50.787,2.663 51.345,2.626 ZM53.284,3.166 C52.762,2.958 53.482,3.611 53.284,3.166 ZM54.863,4.370 L54.933,4.313 C54.828,4.036 54.433,4.487 54.863,4.370 ZM56.833,5.275 C56.379,5.032 56.576,5.419 56.914,5.340 L56.833,5.275 ZM57.738,5.943 C57.356,5.894 57.818,6.076 57.738,5.943 ZM62.493,9.415 C62.206,9.139 62.147,9.560 62.493,9.415 ZM72.301,26.356 C72.229,25.787 72.177,25.187 71.867,24.685 C71.781,24.206 71.382,23.753 71.490,23.266 C71.427,22.673 71.190,22.110 70.937,21.566 C70.740,21.058 70.523,20.590 70.333,20.074 C70.082,19.649 69.810,19.240 69.589,18.794 C69.239,18.386 69.029,17.875 68.624,17.492 C68.239,17.041 67.865,16.575 67.529,16.089 C67.349,15.435 66.744,15.028 66.387,14.475 C65.386,13.116 64.233,11.875 63.079,10.644 C62.727,10.210 62.125,10.015 61.767,9.551 C61.171,8.986 60.520,8.485 59.866,7.991 C59.491,7.568 58.999,7.303 58.571,6.941 C57.887,6.434 57.200,5.913 56.437,5.532 C56.085,5.183 55.780,4.902 55.250,4.896 C54.805,4.708 54.471,4.443 54.048,4.224 C53.561,4.011 53.114,3.678 52.604,3.566 C52.071,3.316 51.539,3.055 51.028,2.764 C50.511,2.620 49.982,2.333 49.443,2.168 C48.955,1.871 48.389,1.792 47.906,1.506 C47.263,1.449 46.660,1.156 46.010,1.163 C45.479,1.114 45.591,0.812 45.990,0.706 C45.507,0.400 45.415,1.211 44.880,0.988 C43.657,0.863 42.472,0.503 41.245,0.409 C40.713,0.192 40.167,0.299 39.613,0.358 C38.120,0.402 36.603,0.300 35.136,0.642 C34.517,0.744 33.894,0.561 33.274,0.691 C33.083,0.803 32.901,0.198 32.841,0.520 C33.220,0.809 32.140,0.944 31.899,1.024 C30.454,1.377 28.969,1.548 27.543,1.983 C27.059,2.077 26.613,2.119 26.210,2.412 C25.763,2.558 25.398,2.086 25.015,2.491 C24.896,2.659 25.375,2.420 25.479,2.399 C25.578,3.000 24.530,2.968 24.186,3.337 C23.637,3.584 23.112,3.905 22.515,4.047 C21.961,4.294 21.462,4.647 20.887,4.857 C20.441,5.120 19.961,5.345 19.475,5.526 C19.136,5.795 18.837,6.090 18.402,6.238 C17.984,6.509 17.528,6.719 17.132,7.029 C16.703,7.421 16.157,7.562 15.747,7.938 C15.335,8.351 14.856,8.668 14.395,9.050 C13.962,9.307 13.742,9.800 13.227,9.941 C12.523,10.750 11.695,11.443 10.940,12.205 C10.414,12.657 9.945,13.168 9.593,13.767 C9.227,14.140 8.796,14.462 8.479,14.891 C8.124,15.338 7.845,15.836 7.457,16.259 C7.171,16.767 6.802,17.219 6.522,17.729 C6.252,18.230 5.851,18.674 5.688,19.221 C5.275,19.416 5.266,19.917 5.016,20.227 L9.530,16.396 C9.889,15.853 10.196,15.275 10.642,14.790 C11.279,13.986 12.085,13.326 12.685,12.492 C13.137,12.121 13.563,11.766 14.050,11.432 C14.898,10.864 15.588,10.095 16.486,9.598 C16.683,9.358 17.298,9.276 16.903,9.673 C16.470,9.944 16.031,10.217 15.644,10.545 C15.258,11.009 14.628,11.224 14.345,11.775 C13.963,12.168 13.449,12.397 13.092,12.830 C12.596,13.324 12.066,13.794 11.632,14.342 C11.439,14.623 11.217,14.887 10.995,15.152 L19.521,7.914 C19.140,8.089 18.766,8.437 18.399,8.431 L18.399,8.431 C18.638,8.009 19.345,7.845 19.751,7.491 C20.004,7.335 20.268,7.196 20.532,7.056 L21.903,5.892 C22.062,5.757 22.257,5.668 22.464,5.636 L24.021,5.400 C24.282,5.290 24.543,5.180 24.792,5.045 C24.961,5.014 25.120,4.950 25.283,4.897 C27.569,3.503 29.838,2.472 31.965,1.951 C40.581,-0.159 48.516,1.423 54.873,6.380 C55.453,6.381 56.020,6.384 56.606,6.384 C56.903,6.384 57.188,6.500 57.397,6.706 C58.619,7.903 59.695,9.185 60.716,10.496 C61.112,10.881 61.496,11.283 61.931,11.612 C62.267,11.903 62.812,12.296 62.932,12.645 C62.727,12.701 62.563,12.513 62.438,12.382 L62.438,12.382 C62.165,12.101 61.867,11.846 61.571,11.590 C62.904,13.406 64.109,15.284 65.267,17.155 C66.759,18.748 68.032,20.420 69.122,22.142 C68.976,21.762 68.821,21.385 68.615,21.030 C68.218,20.262 67.886,19.457 67.403,18.737 C67.233,18.082 67.912,18.819 67.943,19.088 C68.472,19.869 68.951,20.694 69.249,21.591 C69.445,22.167 69.863,22.659 69.956,23.267 C70.075,23.549 70.189,23.839 70.294,24.132 C70.682,24.862 71.043,25.599 71.360,26.346 C71.783,26.872 72.222,27.376 72.673,27.868 C72.538,27.368 72.459,26.852 72.301,26.356 ZM71.154,34.960 C71.086,33.981 70.975,33.005 70.784,32.039 C70.784,32.124 70.786,32.208 70.768,32.286 C70.940,33.087 70.909,33.919 71.039,34.728 C71.107,34.798 71.124,34.881 71.154,34.960 ZM71.186,36.365 C71.187,36.524 71.204,36.686 71.222,36.848 C71.225,36.829 71.229,36.812 71.231,36.793 C71.234,36.434 71.199,36.077 71.186,35.720 C71.154,35.939 71.126,36.158 71.186,36.365 ZM74.258,32.466 C74.002,32.162 74.220,32.809 74.258,32.466 ZM74.486,38.184 C73.751,38.084 74.355,37.192 74.168,36.723 C74.017,36.215 73.981,35.686 74.008,35.156 C74.098,34.573 73.794,34.056 73.797,33.483 C73.799,33.470 73.795,33.460 73.796,33.448 C73.722,34.652 73.615,35.835 73.471,36.992 C73.423,39.735 72.938,42.510 71.997,45.275 L71.295,46.897 C71.251,47.154 71.195,47.408 71.076,47.647 C71.065,48.196 70.837,48.629 70.733,49.171 C70.478,49.726 70.429,50.382 70.048,50.871 C69.989,51.371 69.609,51.676 69.494,52.141 C69.257,52.614 68.923,53.022 68.821,53.555 C68.598,54.162 68.053,54.559 67.740,55.110 L65.220,60.930 C65.386,60.749 65.576,60.590 65.733,60.400 C66.175,60.043 66.543,59.634 66.799,59.122 C67.131,58.762 67.396,58.356 67.744,58.005 C67.979,57.589 68.265,57.207 68.482,56.789 C68.846,56.140 69.395,55.614 69.772,54.978 C70.034,54.495 70.372,54.051 70.602,53.555 C70.670,53.071 70.916,52.596 71.132,52.135 C71.389,51.660 71.500,51.125 71.797,50.682 C72.020,50.092 72.166,49.469 72.439,48.919 C72.565,48.404 72.867,47.946 72.952,47.415 C73.283,46.959 73.367,46.410 73.390,45.859 C73.429,45.150 73.546,44.450 73.650,43.750 C73.664,43.259 74.098,42.870 73.971,42.407 C73.952,41.818 74.034,41.209 74.106,40.662 C74.278,40.335 73.807,40.005 74.022,39.610 C74.051,39.128 74.015,38.499 74.405,38.234 C74.660,38.223 74.850,38.215 74.486,38.184 ZM67.076,18.157 L67.030,18.097 L66.985,18.034 C66.741,17.808 66.774,17.247 67.049,17.774 C67.239,17.950 67.475,18.638 67.076,18.157 ZM66.529,17.156 C66.195,16.952 66.437,16.647 66.607,17.036 C66.682,17.175 66.729,17.393 66.529,17.156 ZM65.178,15.446 C64.903,15.134 65.275,14.902 65.393,15.330 C65.543,15.517 65.283,15.618 65.178,15.446 ZM64.873,14.885 C64.754,14.820 64.671,14.708 64.596,14.599 C64.420,14.449 63.945,13.742 64.455,14.050 C64.608,14.242 65.207,14.752 64.873,14.885 ZM63.906,13.744 C63.749,13.630 63.626,13.478 63.498,13.334 L63.498,13.334 C63.237,13.124 63.035,12.601 63.473,13.036 C63.610,13.178 64.244,13.688 63.906,13.744 ZM3.499,47.114 L3.499,47.114 C3.465,46.552 3.881,47.410 3.499,47.114 ZM2.736,44.551 L2.700,44.474 L2.700,44.474 C2.596,44.005 2.973,44.498 2.736,44.551 ZM49.111,5.516 C49.133,5.248 49.333,5.768 49.111,5.516 ZM45.270,4.714 C45.122,4.661 44.279,4.579 44.686,4.432 C44.964,4.571 45.690,4.501 45.701,4.773 C45.559,4.812 45.397,4.786 45.270,4.714 ZM30.557,66.804 C30.100,66.675 29.595,66.696 29.152,66.480 C28.672,66.472 28.295,66.278 27.823,66.190 C27.338,65.974 26.765,65.932 26.339,65.609 C25.902,65.559 25.636,65.238 25.229,65.140 C24.817,64.939 24.461,64.657 23.996,64.570 C23.384,64.352 23.029,63.753 22.415,63.534 C22.029,63.308 21.719,62.982 21.295,62.819 C20.795,62.586 20.399,62.221 19.971,61.932 C19.479,61.667 19.109,61.222 18.602,60.973 C18.131,60.619 17.740,60.179 17.373,59.728 C16.946,59.455 16.683,59.039 16.318,58.698 C15.901,58.250 15.375,57.910 15.036,57.394 C14.815,56.983 14.426,56.697 14.179,56.299 C13.790,55.717 13.360,55.162 12.947,54.598 C12.899,54.436 12.411,53.895 12.668,53.812 L12.668,53.812 C13.020,54.186 13.282,54.646 13.580,55.067 C13.880,55.448 14.167,55.841 14.515,56.190 C15.029,56.820 15.551,57.444 16.159,57.991 C16.868,58.681 17.541,59.410 18.313,60.034 C18.634,60.427 19.091,60.693 19.498,60.991 C19.899,61.330 20.328,61.634 20.768,61.926 C21.184,62.251 21.642,62.518 22.068,62.830 C22.454,63.028 22.778,63.354 23.178,63.559 C23.662,63.774 24.096,64.082 24.540,64.361 C25.037,64.584 25.518,64.832 26.037,65.012 C26.536,65.275 27.104,65.386 27.604,65.654 C28.114,65.829 28.658,65.899 29.164,66.099 C29.831,66.342 30.530,66.462 31.225,66.592 C31.983,66.815 32.788,66.788 33.552,66.997 C34.617,67.186 35.696,67.374 36.781,67.372 C37.646,67.357 38.503,67.560 39.371,67.506 C39.922,67.539 40.473,67.444 41.023,67.483 C40.839,67.603 40.165,67.711 39.796,67.792 C39.235,67.860 38.657,67.957 38.109,67.758 C37.652,67.547 37.195,67.847 36.772,67.653 C36.025,67.583 35.270,67.661 34.525,67.577 C34.092,67.483 33.641,67.438 33.216,67.303 C32.762,67.232 32.281,67.306 31.844,67.160 C31.433,67.048 31.000,66.845 30.557,66.804 ZM45.077,66.677 L45.131,66.656 C45.651,66.618 44.879,67.121 45.032,66.709 L45.077,66.677 ZM45.704,66.580 C46.279,66.415 46.875,66.310 47.417,66.051 C47.859,65.943 48.305,65.854 48.740,65.715 C49.193,65.629 49.636,65.515 50.069,65.364 C50.818,64.990 51.650,64.808 52.381,64.395 C53.052,64.060 53.754,63.777 54.383,63.368 C54.955,63.224 54.311,63.800 54.076,63.826 C53.395,64.274 52.675,64.680 51.892,64.933 C51.389,65.098 50.960,65.453 50.429,65.531 C49.993,65.710 49.541,65.885 49.079,66.003 C48.543,66.100 48.038,66.282 47.523,66.446 C46.955,66.582 46.371,66.675 45.790,66.719 C45.707,66.724 45.514,66.626 45.704,66.580 L45.704,66.580 ZM54.889,63.091 L54.941,63.053 L54.996,63.014 C55.194,62.807 55.683,62.835 55.223,63.069 C55.070,63.229 54.470,63.429 54.889,63.091 ZM55.867,62.694 C55.746,62.757 55.556,62.798 55.763,62.628 C55.941,62.345 56.206,62.550 55.867,62.694 ZM57.357,61.665 C57.193,61.793 57.105,61.572 57.255,61.483 C57.527,61.249 57.730,61.565 57.357,61.665 ZM58.473,60.870 C58.306,61.000 57.861,61.507 57.745,61.225 C57.801,61.124 57.900,61.054 57.994,60.990 C58.125,60.841 58.742,60.438 58.473,60.870 ZM59.098,60.060 C59.281,59.839 59.738,59.668 59.358,60.038 C59.234,60.155 58.789,60.691 58.741,60.406 C58.840,60.272 58.973,60.168 59.098,60.060 L59.098,60.060 ZM12.233,52.110 C12.211,52.048 12.224,51.973 12.272,51.927 C12.658,51.795 12.458,52.489 12.233,52.110 ZM41.517,10.105 C41.155,10.342 41.013,10.061 40.756,9.939 C40.944,9.714 41.643,9.937 41.517,10.105 ZM42.208,10.042 L42.208,10.042 C42.854,10.142 43.505,10.227 44.156,10.257 C45.203,10.508 46.224,10.854 47.256,11.157 C47.789,11.355 48.377,11.489 48.830,11.839 C48.546,12.120 48.048,11.598 47.667,11.576 C47.197,11.404 46.733,11.267 46.266,11.092 C45.799,11.004 45.351,10.914 44.907,10.725 C44.097,10.550 43.252,10.534 42.467,10.259 C42.192,10.392 41.527,9.968 42.208,10.042 ZM50.409,12.513 C50.913,12.494 51.315,12.930 51.784,13.083 C52.518,13.412 53.151,13.908 53.878,14.250 C54.520,14.543 55.047,15.006 55.624,15.396 C56.149,15.603 56.499,16.067 56.958,16.378 C57.832,17.085 58.627,17.887 59.341,18.749 C59.429,18.960 59.889,19.271 59.759,19.442 C59.352,19.137 58.905,18.866 58.528,18.519 C58.134,18.123 57.769,17.653 57.226,17.454 C56.956,17.008 56.439,16.801 56.100,16.408 C55.732,16.031 55.285,15.705 55.007,15.259 C54.691,14.923 54.176,14.833 53.870,14.508 C53.449,14.464 53.281,14.046 52.854,14.007 C52.396,13.885 52.096,13.489 51.650,13.338 C51.278,13.082 50.801,13.053 50.474,12.720 C50.364,12.625 50.087,12.568 50.410,12.513 L50.409,12.513 ZM59.931,19.609 C60.317,19.821 60.460,20.301 60.718,20.641 C60.801,20.864 61.357,21.307 61.055,21.444 C60.830,21.024 60.395,20.754 60.213,20.310 C60.128,20.151 59.629,19.738 59.931,19.609 L59.931,19.609 ZM31.343,0.294 L31.282,0.272 C31.488,0.045 31.863,0.345 31.409,0.300 L31.343,0.294 ZM22.814,2.420 C23.112,2.330 22.940,2.565 22.814,2.420 ZM73.602,49.095 L73.563,49.102 L73.511,49.091 C73.167,48.738 73.724,48.720 73.602,49.095 Z" class="cls-1"/>
</svg>
