<svg xmlns="http://www.w3.org/2000/svg" xmlns:xlink="http://www.w3.org/1999/xlink" width="16" height="14" viewBox="0 0 16 14"><defs><path id="bj87a" d="M465.965 544.103c-.017.12-.052.307-.086.546-.174.954-.468 2.746-.833 4.571-.38 1.86-.849 4.077-1.438 6.602-.035.119-.052.187-.052.204-.087.461-.347.802-.71.921a.994.994 0 0 1-.313.051c-.312 0-.658-.154-.988-.426l-.017-.017c-.139-.137-1.63-1.314-3-2.37-.311.323-1.42 1.466-2.062 1.978a.697.697 0 0 1-.381.136.373.373 0 0 1-.295-.12.89.89 0 0 1-.381-.545c-.052-.205-1.075-3.6-1.248-4.18-.503-.153-2.878-.938-3.415-1.21-.503-.222-.763-.495-.745-.802.034-.478.745-.785 1.074-.887.295-.136 2.774-1.228 5.825-2.473 3.397-1.382 7.245-2.815 7.679-2.951.623-.188.988-.171 1.213.017.26.221.225.614.173.955zm-10.192 11.446v.016c.07-.733.225-2.37.312-3.325v-.035c.017-.017.017-.017.017-.034.018 0 .018-.017.018-.017l.017-.017v-.017c1.265-1.126 3.172-2.848 4.628-4.162l2.097-1.927c.035-.035.052-.086.07-.103-.018.017-.018.017-.035.017-.017 0-.017.017-.035.017-.017.017-.052.034-.069.051l-8.268 5.39c.208.683 1.179 3.94 1.248 4.146z"/></defs><g><g transform="translate(-450 -543)"><use fill="#fff" xlink:href="#bj87a"/></g></g></svg>