<svg xmlns="http://www.w3.org/2000/svg" xmlns:xlink="http://www.w3.org/1999/xlink" width="14" height="16" viewBox="0 0 14 16"><defs><path id="i74pa" d="M500 397.824c-.005.43-.013.862-.04 1.287-.017.294-.017.587-.03.88-.047.811-.203 1.595-.54 2.328a4.593 4.593 0 0 1-1.863 2.066 6.432 6.432 0 0 1-2.165.793 10.4 10.4 0 0 1-1.807.155c-.372 0-.744-.005-1.115 0-.19 0-.38.005-.57-.018a.15.15 0 0 0-.144.064c-.298.366-.596.733-.899 1.1-.371.453-.743.906-1.11 1.356a.683.683 0 0 1-.13.123c-.117.082-.238.036-.268-.11-.009-.032-.005-.073-.005-.105-.004-.468.005-.94.009-1.407.004-.471.013-.944.017-1.416 0-.11.013-.096-.086-.141-.553-.234-1.068-.527-1.521-.94a4.743 4.743 0 0 1-1.133-1.548c-.264-.577-.41-1.19-.493-1.823a6.165 6.165 0 0 1-.047-.742c0-.234-.035-.468-.04-.702-.004-.165-.008-.334-.004-.499.005-.339-.025-.678-.013-1.017.026-.77.156-1.52.441-2.235a4.633 4.633 0 0 1 1.98-2.328 6.373 6.373 0 0 1 2.178-.792 10.02 10.02 0 0 1 1.431-.142 35.4 35.4 0 0 1 1.716-.005 9.136 9.136 0 0 1 2.175.266c.678.169 1.318.44 1.906.838a4.54 4.54 0 0 1 1.625 1.929c.23.5.368 1.026.458 1.571.065.404.091.806.087 1.214zm-3.342 3.299a1.532 1.532 0 0 0-.211-.234 15.765 15.765 0 0 0-.908-.724c-.156-.114-.311-.233-.489-.311a.86.86 0 0 0-.583-.074.909.909 0 0 0-.463.303c-.069.078-.12.164-.181.248-.143.192-.307.242-.523.16a3.198 3.198 0 0 1-.649-.354 3.469 3.469 0 0 1-.592-.494 3.683 3.683 0 0 1-.722-1.104c-.03-.078-.06-.16-.078-.248a.55.55 0 0 1 .148-.545c.064-.064.133-.119.203-.169a1.44 1.44 0 0 0 .203-.197.727.727 0 0 0 .147-.692 1.72 1.72 0 0 0-.1-.26 6.232 6.232 0 0 0-.877-1.325 2.34 2.34 0 0 0-.333-.335.716.716 0 0 0-.63-.132 1.618 1.618 0 0 0-.598.275 1.524 1.524 0 0 0-.691 1.283c0 .187.039.44.104.636.164.454.358.893.579 1.32a10.448 10.448 0 0 0 3.341 3.867 11.06 11.06 0 0 0 1.677.975c.117.055.233.119.359.156.13.041.26.091.398.078.108-.01.211-.032.315-.07.385-.133.696-.38.951-.709.147-.188.26-.394.32-.633a.79.79 0 0 0-.117-.691zm-.721-3.148a2.9 2.9 0 0 0-.117-.783 2.663 2.663 0 0 0-.476-.875 2.795 2.795 0 0 0-.886-.72 2.902 2.902 0 0 0-.838-.256c-.104-.017-.208-.036-.312-.023a.293.293 0 0 0-.259.207c-.052.137-.056.27.039.393a.231.231 0 0 0 .087.074.747.747 0 0 0 .22.069c.285.045.562.133.83.252a1.5 1.5 0 0 1 .82.866c.114.288.183.59.213.897.009.069.009.138.026.202.039.17.151.252.328.247.169-.004.281-.1.312-.27.021-.1.008-.201.013-.28zm-1.297-.774c-.203-.311-.463-.545-.813-.65a.77.77 0 0 0-.445-.005c-.151.046-.242.188-.242.362 0 .147.082.252.242.303l.108.027c.043.009.09.019.134.032a.703.703 0 0 1 .488.435c.044.106.057.225.074.34a.438.438 0 0 0 .065.191.3.3 0 0 0 .315.152.312.312 0 0 0 .264-.229c.03-.088.03-.179.03-.27a1.23 1.23 0 0 0-.22-.688zm2.416.857c-.004-.866-.307-1.663-.826-2.364a4.049 4.049 0 0 0-.955-.912 3.383 3.383 0 0 0-2.031-.619c-.195 0-.337.106-.355.372-.008.15.06.256.195.307a.45.45 0 0 0 .134.032c.194.018.389.055.579.1.44.106.864.257 1.245.519.328.224.592.508.795.856.273.467.41.985.497 1.521.026.174.04.349.052.522.013.142.056.27.195.33.229.102.445-.036.475-.298.013-.105-.004-.215 0-.366z"/></defs><g><g transform="translate(-486 -392)"><use fill="#fff" xlink:href="#i74pa"/></g></g></svg>