<svg xmlns="http://www.w3.org/2000/svg" xmlns:xlink="http://www.w3.org/1999/xlink" width="20" height="12" viewBox="0 0 20 12"><defs><path id="2gyxa" d="M1430.285 20.772c.225.629.502 1.236.788 1.836.682 1.424 1.382 2.808 2.321 4.06.95 1.266 2.071 2.492 3.392 3.31.367.227.753.42 1.155.565 1.552.563 3.255.51 3.78.135.525-.376-.1-2.843.376-3.138.475-.295 1.326.349 1.952.939.626.59 1.102 1.098 1.452 1.501.22.252.373.553.66.732.473.297 1.104.265 1.632.266.294.002.588.003.882-.001.2-.002.398.004.597-.007.326-.016.754-.156.729-.593a1.088 1.088 0 0 0-.066-.322 3.053 3.053 0 0 0-.323-.598c-.651-.932-1.083-1.407-1.408-1.782-.326-.375-1.665-1.73-1.752-1.998-.088-.27-.116-.388.132-.75.25-.361.794-1.275 1.219-1.932.267-.411.51-.844.749-1.274.283-.507.548-1.028.774-1.567.1-.24.193-.46.13-.73-.042-.182-.137-.34-.315-.384a1.237 1.237 0 0 0-.3-.027h-1.334c-.174 0-.348-.003-.522-.002-.178 0-.36-.002-.537.015-.253.022-.409.233-.536.443-.155.259-.298.526-.449.788-.103.18-.204.359-.304.54-.155.283-.315.564-.475.843l-.198.349c-.188.335-1.814 2.627-2.14 2.722-.326.094-.438.066-.438-.644v-4.746s-.025-.31-.3-.31H1437.42s-.62.003-.4.599c.218.597.866.777.866 1.773v3.901s-.11.875-.817.151c-.557-.57-1.016-1.245-1.421-1.944a15.533 15.533 0 0 1-1.064-2.274c-.088-.227-.173-.453-.262-.678a41.812 41.812 0 0 1-.274-.708c-.103-.275-.215-.635-.492-.76-.14-.064-.296-.061-.445-.061h-2.148c-.384 0-.861-.01-.952.503-.053.296.051.612.139.889.04.125.09.246.134.37z"/></defs><g><g opacity=".5" transform="translate(-1430 -19)"><use fill="#fff" xlink:href="#2gyxa"/></g></g></svg>