<svg xmlns="http://www.w3.org/2000/svg" xmlns:xlink="http://www.w3.org/1999/xlink" width="16" height="16" viewBox="0 0 16 16"><defs><path id="xpnka" d="M526 399.792c0 4.305-3.517 7.795-7.855 7.795a7.863 7.863 0 0 1-3.797-.97L510 407.997l1.417-4.181a7.713 7.713 0 0 1-1.127-4.025c0-4.304 3.517-7.794 7.855-7.794 4.339 0 7.855 3.49 7.855 7.794 0 4.305 0 0 0 0zm-7.855-6.552c-3.642 0-6.604 2.94-6.604 6.552 0 1.434.468 2.762 1.258 3.843l-.825 2.433 2.538-.807a6.602 6.602 0 0 0 3.633 1.084c3.641 0 6.604-2.94 6.604-6.553 0-3.612-2.963-6.552-6.604-6.552zm3.967 8.347c.047.08.047.463-.113.908-.16.447-.947.877-1.3.91-.353.031-.353.286-2.31-.478-1.958-.765-3.193-2.757-3.29-2.885-.096-.127-.785-1.035-.785-1.975 0-.94.497-1.402.673-1.594a.71.71 0 0 1 .514-.238c.128 0 .257.016.369.016.113 0 .273-.064.433.318.16.383.546 1.323.594 1.418.048.096.08.207.016.335-.064.127-.096.206-.192.32-.097.11-.203.247-.29.333-.095.095-.196.199-.084.39a5.76 5.76 0 0 0 1.071 1.322c.736.652 1.356.853 1.548.949.193.095.305.079.418-.049.112-.127.481-.557.61-.748.128-.191.256-.16.433-.096.176.064 1.123.526 1.315.622.193.095.32.143.37.222 0 0-.048-.08 0 0z"/></defs><g><g transform="translate(-510 -392)"><use fill="#fff" xlink:href="#xpnka"/></g></g></svg>